<svg width="921" height="743" viewBox="0 0 921 743" fill="none" xmlns="http://www.w3.org/2000/svg">
<path d="M158 551.732C245.261 551.732 316 546.359 316 539.732C316 533.104 245.261 527.732 158 527.732C70.739 527.732 0 533.104 0 539.732C0 546.359 70.739 551.732 158 551.732Z" fill="#E6E6E6"/>
<path d="M120.772 122.42C148.269 110.724 182.517 118.134 215.963 123.277C216.275 117.049 220.047 109.469 216.095 105.124C211.294 99.8455 211.736 94.299 214.625 88.7205C222.013 74.4555 211.428 59.2768 200.741 46.6558C198.332 43.8176 195.288 41.5875 191.855 40.1467C188.423 38.706 184.699 38.0952 180.986 38.364L161.188 39.7781C156.371 40.1222 151.773 41.9294 148.011 44.9579C144.248 47.9863 141.501 52.0915 140.135 56.7243V56.7243C135.408 63.1535 132.878 69.5648 134.471 75.9428C127.39 80.7817 126.201 86.6226 129.382 93.2072C132.08 97.3532 132.052 101.389 129.26 105.313C125.593 110.316 122.784 115.894 120.949 121.819L120.772 122.42Z" fill="#2F2E41"/>
<path d="M774.209 476.963H213.791C208.807 476.963 204.028 474.983 200.504 471.459C196.98 467.935 195 463.156 195 458.172C398.151 434.562 597.485 434.562 793 458.172C793 463.156 791.02 467.935 787.496 471.459C783.972 474.983 779.193 476.963 774.209 476.963Z" fill="#2F2E41"/>
<path d="M793 459.277L195 458.172L264.306 341.556L264.638 341.004V83.9964C264.637 80.8769 265.252 77.7878 266.445 74.9057C267.639 72.0236 269.389 69.4049 271.595 67.1991C273.8 64.9932 276.419 63.2435 279.301 62.0498C282.183 60.8562 285.272 60.2419 288.392 60.2422H696.292C699.412 60.2419 702.501 60.8562 705.383 62.0498C708.265 63.2435 710.883 64.9932 713.089 67.1991C715.295 69.4049 717.045 72.0236 718.239 74.9057C719.432 77.7878 720.046 80.8769 720.046 83.9964V342.772L793 459.277Z" fill="#3F3D56"/>
<path d="M287.85 76.8225C285.799 76.8248 283.832 77.6408 282.382 79.0913C280.931 80.5419 280.115 82.5086 280.113 84.56V318.896C280.115 320.948 280.931 322.915 282.382 324.365C283.832 325.816 285.799 326.632 287.85 326.634H700.15C702.201 326.631 704.168 325.815 705.618 324.365C707.069 322.914 707.885 320.948 707.887 318.896V84.56C707.885 82.5086 707.069 80.542 705.618 79.0914C704.168 77.6409 702.201 76.8249 700.15 76.8225H287.85Z" fill="white"/>
<path d="M289.578 357.584C288.944 357.585 288.324 357.767 287.79 358.109C287.256 358.451 286.831 358.939 286.565 359.514L265.21 405.939C264.977 406.445 264.876 407 264.914 407.555C264.953 408.11 265.13 408.646 265.43 409.114C265.73 409.582 266.143 409.968 266.631 410.235C267.119 410.502 267.666 410.641 268.222 410.641H717.314C717.879 410.641 718.435 410.497 718.929 410.222C719.423 409.946 719.838 409.549 720.135 409.069C720.432 408.588 720.601 408.039 720.627 407.474C720.652 406.91 720.532 406.348 720.279 405.842L697.067 359.417C696.793 358.865 696.37 358.401 695.846 358.077C695.322 357.753 694.718 357.582 694.102 357.584H289.578Z" fill="#2F2E41"/>
<path d="M492.342 72.9537C495.089 72.9537 497.316 70.7267 497.316 67.9796C497.316 65.2325 495.089 63.0055 492.342 63.0055C489.595 63.0055 487.368 65.2325 487.368 67.9796C487.368 70.7267 489.595 72.9537 492.342 72.9537Z" fill="white"/>
<path d="M448.2 419.484C447.471 419.485 446.763 419.726 446.184 420.169C445.605 420.613 445.189 421.234 444.998 421.938L439.642 441.834C439.509 442.326 439.492 442.841 439.59 443.341C439.689 443.84 439.902 444.31 440.211 444.714C440.521 445.118 440.919 445.445 441.376 445.67C441.832 445.896 442.334 446.013 442.843 446.013H544.717C545.246 446.013 545.767 445.887 546.237 445.644C546.707 445.402 547.112 445.051 547.418 444.62C547.725 444.189 547.924 443.692 547.999 443.168C548.074 442.645 548.023 442.111 547.85 441.612L540.963 421.715C540.737 421.064 540.314 420.499 539.752 420.099C539.191 419.7 538.519 419.485 537.829 419.484H448.2Z" fill="#2F2E41"/>
<path d="M720.046 337.135V341.556H264.306L264.649 341.004V337.135H720.046Z" fill="#2F2E41"/>
<path d="M707.335 90.6396C709.776 90.6396 711.756 88.66 711.756 86.2181C711.756 83.7762 709.776 81.7967 707.335 81.7967C704.893 81.7967 702.913 83.7762 702.913 86.2181C702.913 88.66 704.893 90.6396 707.335 90.6396Z" fill="white"/>
<path d="M653.32 247.149H334.68C333.116 247.148 331.616 246.525 330.51 245.419C329.403 244.313 328.781 242.813 328.779 241.249V162.208C328.781 160.643 329.403 159.144 330.51 158.037C331.616 156.931 333.116 156.309 334.68 156.307H653.32C654.884 156.309 656.384 156.931 657.49 158.037C658.596 159.144 659.219 160.643 659.221 162.208V241.249C659.219 242.813 658.596 244.313 657.49 245.419C656.384 246.525 654.884 247.148 653.32 247.149V247.149ZM334.68 158.667C333.741 158.668 332.841 159.042 332.178 159.705C331.514 160.369 331.141 161.269 331.14 162.208V241.249C331.141 242.187 331.514 243.087 332.178 243.751C332.841 244.415 333.741 244.788 334.68 244.789H653.32C654.259 244.788 655.158 244.415 655.822 243.751C656.486 243.087 656.859 242.187 656.86 241.249V162.208C656.859 161.269 656.486 160.369 655.822 159.705C655.158 159.042 654.259 158.668 653.32 158.667L334.68 158.667Z" fill="#E6E6E6"/>
<path d="M384.19 222.732C397.465 222.732 408.227 211.97 408.227 198.695C408.227 185.42 397.465 174.659 384.19 174.659C370.915 174.659 360.154 185.42 360.154 198.695C360.154 211.97 370.915 222.732 384.19 222.732Z" fill="#E6E6E6"/>
<path d="M439.703 182.671C439.176 182.67 438.655 182.773 438.168 182.974C437.681 183.175 437.239 183.47 436.866 183.842C436.493 184.214 436.198 184.656 435.996 185.143C435.794 185.629 435.69 186.151 435.69 186.677C435.69 187.204 435.794 187.725 435.996 188.212C436.198 188.698 436.493 189.14 436.866 189.512C437.239 189.884 437.681 190.179 438.168 190.38C438.655 190.581 439.176 190.684 439.703 190.683H628.561C629.623 190.683 630.642 190.261 631.393 189.51C632.145 188.759 632.567 187.74 632.567 186.677C632.567 185.615 632.145 184.596 631.393 183.844C630.642 183.093 629.623 182.671 628.561 182.671H439.703Z" fill="#E6E6E6"/>
<path d="M439.703 206.708C438.64 206.708 437.621 207.13 436.87 207.881C436.119 208.632 435.697 209.651 435.697 210.714C435.697 211.776 436.119 212.795 436.87 213.546C437.621 214.298 438.64 214.72 439.703 214.72H520.969C522.031 214.72 523.05 214.298 523.802 213.546C524.553 212.795 524.975 211.776 524.975 210.714C524.975 209.651 524.553 208.632 523.802 207.881C523.05 207.13 522.031 206.708 520.969 206.708H439.703Z" fill="#E6E6E6"/>
<path d="M263.522 208.328L204.619 239.644L203.873 213.547C223.099 210.338 241.39 204.75 258.302 195.653L264.463 180.433C265.134 178.774 266.225 177.319 267.629 176.209C269.033 175.1 270.701 174.375 272.469 174.105C274.238 173.834 276.046 174.029 277.717 174.669C279.388 175.309 280.864 176.372 281.999 177.755V177.755C283.661 179.778 284.492 182.356 284.323 184.969C284.154 187.581 282.999 190.031 281.091 191.824L263.522 208.328Z" fill="#FFB8B8"/>
<path d="M119.598 389.133C119.168 387.557 119.077 385.908 119.33 384.294C119.584 382.68 120.176 381.138 121.067 379.77L134.007 359.912C137.067 355.215 141.763 351.823 147.184 350.393C152.604 348.962 158.363 349.597 163.342 352.173V352.173C157.904 361.429 158.662 369.549 165.22 376.606C155.039 381.576 145.63 387.991 137.284 395.651C135.76 396.69 134.01 397.35 132.18 397.575C130.35 397.801 128.492 397.586 126.762 396.948C125.031 396.31 123.479 395.268 122.232 393.909C120.986 392.549 120.083 390.912 119.598 389.133V389.133Z" fill="#2F2E41"/>
<path d="M266.205 363.168C264.247 366.432 261.483 369.137 258.178 371.025C254.874 372.912 251.139 373.919 247.334 373.948L161.374 374.599L157.646 352.976L195.672 341.792L163.61 317.187L198.654 276.179L262.304 335.503C266.024 338.97 268.441 343.61 269.151 348.645C269.861 353.681 268.821 358.808 266.205 363.168V363.168Z" fill="#2F2E41"/>
<path d="M147.953 511.045H127.821C109.746 387.147 91.3476 262.903 145.716 216.53L209.838 226.968L201.637 281.398L165.847 322.406L147.953 511.045Z" fill="#2F2E41"/>
<path d="M165.649 539.112C164.073 539.542 162.424 539.633 160.81 539.38C159.196 539.127 157.655 538.535 156.286 537.643L134.427 534.705C129.73 531.645 126.338 526.949 124.907 521.529C123.477 516.108 124.111 510.35 126.686 505.37C135.943 510.808 144.063 510.049 151.12 503.491C156.106 513.558 164.321 512.944 172.166 521.426C173.205 522.949 173.865 524.699 174.091 526.529C174.316 528.36 174.101 530.217 173.464 531.948C172.826 533.678 171.784 535.231 170.425 536.477C169.066 537.723 167.428 538.626 165.649 539.112V539.112Z" fill="#2F2E41"/>
<path d="M195.672 133.767L158.391 124.82C164.583 112.146 165.093 98.0439 162.119 83.066L187.47 82.3204C188.264 100.946 190.667 118.347 195.672 133.767Z" fill="#FFB8B8"/>
<path d="M205.917 249.418C178.779 267.911 159.603 250.051 144.97 222.495C147.003 205.633 143.711 185.454 137.613 163.528C134.901 153.858 135.914 143.521 140.451 134.561C144.988 125.6 152.719 118.666 162.119 115.127V115.127L194.18 128.548C221.404 150.739 226.762 174.775 216.548 200.127L205.917 249.418Z" fill="#428CFF"/>
<path d="M127.821 152.408L97.9969 168.065L150.935 199.381L158.301 217.55C158.793 218.763 159.032 220.063 159.005 221.372C158.978 222.68 158.684 223.969 158.143 225.16C157.601 226.351 156.822 227.42 155.854 228.3C154.886 229.181 153.749 229.855 152.512 230.281V230.281C151.106 230.766 149.606 230.919 148.131 230.728C146.656 230.536 145.245 230.006 144.009 229.179C142.773 228.351 141.745 227.249 141.006 225.957C140.268 224.666 139.838 223.222 139.75 221.737L139.005 209.074L71.7216 186.87C69.4547 186.122 67.3877 184.868 65.6772 183.203C63.9667 181.537 62.6576 179.505 61.849 177.259V177.259C60.6703 173.985 60.6103 170.412 61.6784 167.101C62.7464 163.789 64.8822 160.925 67.7516 158.956L121.856 121.838L127.821 152.408Z" fill="#FFB8B8"/>
<path d="M157.646 155.39C145.207 149.939 133.896 155.86 119.62 160.609L117.383 121.092C131.559 113.536 145.075 111.499 157.646 117.364L157.646 155.39Z" fill="#428CFF"/>
<path d="M172.525 101.895C185.67 101.895 196.327 91.2381 196.327 78.0925C196.327 64.947 185.67 54.2904 172.525 54.2904C159.379 54.2904 148.723 64.947 148.723 78.0925C148.723 91.2381 159.379 101.895 172.525 101.895Z" fill="#FFB8B8"/>
<path d="M201 75.0893C177.434 77.3975 159.477 73.5433 148 62.5693V53.7316H199L201 75.0893Z" fill="#2F2E41"/>
<path d="M880.935 560.05C880.408 557.399 879.505 554.837 878.255 552.44L866.255 534.52H866.325C866.325 534.52 864.435 525.52 866.325 521.1C868.215 516.68 859.585 505.81 859.585 505.81C859.585 505.81 858.535 503.08 861.275 499.72C864.015 496.36 859.585 486.52 859.585 486.52C859.585 486.52 857.485 465.97 857.275 462.83C857.065 459.69 855.375 442.29 855.375 442.29L851.375 405.4L844.255 307.63L844.125 305.8C845.005 305.37 845.475 305.1 845.475 305.1L844.055 251.04L845.285 249.93C856.025 240.21 880.795 217.71 880.545 217.22C880.295 216.73 877.545 179.65 877.225 170.37C876.95 163.775 875.508 157.281 872.965 151.19C872.345 149.96 870.555 141.85 869.815 138.42C869.615 137.48 869.485 136.89 869.485 136.89C869.485 136.89 862.225 123.05 862.855 116.76C863.485 110.47 864.745 105.76 849.265 103.56C849.265 103.56 836.265 101.62 828.525 96.33C823.948 93.1613 818.945 90.6565 813.665 88.89C813.665 88.89 809.325 80.89 806.305 83.6C805.026 80.7454 804.07 77.7569 803.455 74.69L803.365 74.13C809.098 70.1326 813.223 64.2279 815.005 57.47C815.105 57.09 815.185 56.7 815.275 56.32C815.575 56.4217 815.888 56.479 816.205 56.49C818.835 56.49 820.455 53.56 822.915 52.63C823.915 52.24 825.145 52.18 825.915 51.39C826.169 51.0855 826.358 50.7325 826.472 50.3527C826.585 49.9728 826.62 49.5739 826.575 49.18C826.6 48.9072 826.6 48.6328 826.575 48.36C826.58 48.2634 826.58 48.1666 826.575 48.07V48.17C825.905 44.53 823.085 41.3 823.395 37.6C823.695 34.12 826.755 31.06 826.505 27.67C826.502 27.402 826.478 27.1346 826.435 26.87V26.99C826.062 25.6665 825.376 24.4523 824.435 23.45C823.359 21.9834 821.946 20.7968 820.315 19.99C818.925 19.38 817.315 19.24 816.015 18.51C812.195 16.43 812.205 11.01 809.935 7.31C808.962 5.76542 807.582 4.51946 805.946 3.70953C804.311 2.8996 802.483 2.55718 800.665 2.72C797.825 3 795.255 4.51 792.445 5C788.605 5.68 784.695 4.43 781.055 3C777.415 1.57 773.725 0 769.815 0C765.905 0 761.675 2 760.495 5.69C759.865 7.69 760.175 9.84 759.695 11.87C758.835 15.45 755.695 18.01 752.445 19.79C750.445 20.9 748.065 22.17 747.445 24.27C747.445 24.21 747.445 24.16 747.445 24.11C747.4 24.2776 747.367 24.4479 747.345 24.62C747.325 24.8429 747.325 25.0671 747.345 25.29C747.345 26.73 748.105 28.1 748.615 29.47C749.565 32.0764 749.544 34.938 748.555 37.53C747.815 39.43 746.555 41.1 745.835 42.99C745.496 43.8704 745.274 44.7917 745.175 45.73V45.57C745.15 45.9963 745.15 46.4237 745.175 46.85C745.163 48.3104 745.506 49.7519 746.175 51.05C746.634 51.9464 747.267 52.7418 748.039 53.3893C748.81 54.0368 749.703 54.5233 750.665 54.82C752.665 55.28 753.915 53.32 756.025 53.82C756.403 53.9109 756.774 54.0279 757.135 54.17C757.205 54.62 757.275 55.07 757.355 55.51C758.631 62.2401 762.217 68.3132 767.495 72.68C767.495 72.92 767.575 73.16 767.605 73.41C768.244 77.3969 768.522 81.4332 768.435 85.47C768.435 85.47 765.285 80.86 760.965 89.76C760.965 89.76 749.695 96.26 745.805 97C741.915 97.74 728.105 102.55 728.105 102.55C726.022 104.056 723.516 104.865 720.945 104.86C716.635 104.86 713.055 114.29 713.575 119.42C714.095 124.55 713.265 128.33 709.255 128.54C705.245 128.75 707.435 136.88 707.465 137.02L707.095 138.77C706.315 142.35 704.615 150.03 704.015 151.23C701.472 157.322 700.027 163.815 699.745 170.41C699.435 179.69 696.745 216.63 696.435 217.26C696.225 217.67 713.195 233.18 725.125 244.02L726.855 245.58L721.365 296.86C721.525 298.836 722.112 300.753 723.086 302.48C724.06 304.206 725.397 305.701 727.005 306.86C727.005 307.46 727.005 308.07 726.945 308.7C726.705 314.7 726.225 321.96 725.265 323.86C723.585 327.22 724.005 345.24 724.005 345.24C724.005 345.24 722.315 381.92 720.215 385.91C718.115 389.9 717.685 398.27 718.315 399.91C718.945 401.55 716.205 445.6 716.205 445.6L714.105 465.31C714.105 465.31 714.735 484.17 712.835 484.59C710.935 485.01 709.885 498.01 709.885 498.01C709.885 498.01 703.155 507.23 706.095 510.58C709.035 513.93 705.665 515.41 705.355 516.24C705.045 517.07 698.935 520.24 703.355 531.96C703.396 532.076 703.442 532.189 703.495 532.3C699.355 538.05 686.235 556.6 687.035 559.42C687.626 561.214 688.877 562.716 690.535 563.62C693.625 565.47 698.925 566.33 707.355 563.62C721.355 559.11 720.355 555.86 720.355 555.86C720.427 554.341 721.079 552.906 722.176 551.853C723.274 550.8 724.734 550.209 726.255 550.2C732.045 549.78 736.365 544.44 736.365 544.44L735.685 541.91L734.755 538.41C734.865 537.41 735.575 535.66 738.755 534.69C743.605 533.22 742.335 524 742.335 524C742.335 524 741.915 514.36 744.015 513.1C746.115 511.84 745.285 495.91 745.285 495.91C745.285 495.91 747.605 484.38 750.965 476.62C754.325 468.86 758.345 422.76 758.345 422.76C758.345 422.76 761.075 400.12 763.605 393.62C766.135 387.12 768.455 368.89 768.455 368.89C768.455 368.89 784.045 338.7 784.245 331.99C784.245 331.99 786.245 325.7 788.245 332.62C790.245 339.54 795.865 356.1 795.865 356.1L801.335 376.43L807.865 406.82L812.085 432.4C812.085 432.4 811.445 442.04 813.085 445.4C814.725 448.76 817.085 456.5 815.825 457.97C814.565 459.44 818.345 466.36 819.405 467.82C820.465 469.28 819.405 500.31 819.405 500.31C819.405 500.31 824.245 526.72 831.195 531.31C831.68 531.629 832.196 531.897 832.735 532.11C832.635 534.97 832.535 538.8 832.665 540.8C832.65 541.247 832.724 541.693 832.885 542.11C833.515 542.95 840.675 548.61 842.155 548.61C843.635 548.61 848.885 552.28 849.105 554.06C849.325 555.84 864.495 563.38 866.645 563.6C868.795 563.82 879.215 565.69 880.645 562.76C880.999 561.903 881.099 560.963 880.935 560.05ZM843.665 182.33L844.745 183.26C844.745 183.26 845.855 191.91 846.645 194.5C847.435 197.09 846.485 202.13 846.485 202.13C846.558 204.011 846.932 205.868 847.595 207.63C848.535 209.52 845.695 213.63 845.695 213.63H843.165L842.375 181.25L843.665 182.33ZM768.435 85.65V85.46C768.415 85.52 768.405 85.59 768.405 85.65H768.435ZM729.585 210.3C729.196 209.462 729.139 208.508 729.425 207.63C729.65 207.155 729.827 206.66 729.955 206.15C730.266 204.836 730.46 203.498 730.535 202.15C730.537 202.133 730.537 202.117 730.535 202.1C730.445 201.62 729.635 196.98 730.385 194.52C731.135 192.06 732.275 183.28 732.275 183.28L732.995 182.67L734.665 181.22C734.665 181.22 734.665 180.68 734.785 179.79C735.135 187.39 735.415 195.79 734.965 196.21C734.125 197.04 731.065 205.21 731.805 205.53C732.045 205.64 731.715 208.91 731.155 213.31C730.526 212.365 730 211.356 729.585 210.3V210.3Z" fill="url(#paint0_linear)"/>
<path d="M810.185 93.64V106.08L784.665 118.91C784.665 118.91 759.325 103.58 765.575 97.48C769.575 93.62 768.805 83.02 767.725 75.73C767.095 71.49 766.365 68.38 766.365 68.38C766.365 68.38 811.885 55.38 805.005 65.25C802.705 68.55 802.525 72.82 803.295 77.05C804.855 85.44 810.185 93.64 810.185 93.64Z" fill="#C37098"/>
<path d="M740.275 215.29L736.985 255.81C736.985 255.81 732.055 251.34 725.675 245.52C713.845 234.73 697.045 219.3 697.245 218.89C697.555 218.26 700.245 181.5 700.535 172.26C700.808 165.701 702.237 159.242 704.755 153.18C705.355 151.98 707.045 144.34 707.755 140.77C707.995 139.66 708.145 138.94 708.145 138.94L713.665 136.72C713.665 136.72 736.665 162.38 736.665 162.85C736.665 163.32 735.095 183.03 735.095 183.03L733.465 184.45L732.755 185.06C732.755 185.06 731.655 193.67 730.875 196.25C730.095 198.83 730.935 203.31 731.025 203.79C730.951 205.137 730.761 206.476 730.455 207.79C730.324 208.295 730.147 208.788 729.925 209.26C729.643 210.135 729.7 211.085 730.085 211.92C730.529 213.079 731.106 214.183 731.805 215.21L740.275 215.29Z" fill="#3F3D56"/>
<path d="M879.665 218.89C879.905 219.38 855.375 241.77 844.745 251.44L839.925 255.81L836.665 215.29H845.115C845.115 215.29 847.935 211.22 846.995 209.34C846.34 207.587 845.972 205.74 845.905 203.87C845.905 203.87 846.835 198.87 846.055 196.28C845.275 193.69 844.175 185.09 844.175 185.09L843.105 184.17L841.835 183.06C841.835 183.06 840.265 163.35 840.265 162.88C840.265 162.41 863.265 136.75 863.265 136.75L868.745 138.94C868.745 138.94 868.865 139.53 869.065 140.47C869.805 143.88 871.575 151.95 872.185 153.18C874.703 159.242 876.132 165.701 876.405 172.26C876.665 181.5 879.345 218.26 879.665 218.89Z" fill="#3F3D56"/>
<path d="M879.765 562.83C878.295 565.75 867.975 563.83 865.845 563.67C863.715 563.51 848.675 555.94 848.465 554.17C848.255 552.4 843.045 548.75 841.585 548.75C840.125 548.75 833.035 543.11 832.405 542.28C832.245 541.866 832.174 541.423 832.195 540.98C831.975 537.55 832.405 528.72 832.405 528.72L862.655 530.39L877.355 552.5C878.594 554.885 879.489 557.434 880.015 560.07C880.193 560.995 880.107 561.952 879.765 562.83V562.83Z" fill="#3F3D56"/>
<path opacity="0.1" d="M879.765 562.83C878.295 565.75 867.975 563.83 865.845 563.67C863.715 563.51 848.675 555.94 848.465 554.17C848.255 552.4 843.045 548.75 841.585 548.75C840.125 548.75 833.035 543.11 832.405 542.28C832.245 541.866 832.174 541.423 832.195 540.98C831.975 537.55 832.405 528.72 832.405 528.72L862.655 530.39L877.355 552.5C878.594 554.885 879.489 557.434 880.015 560.07C880.193 560.995 880.107 561.952 879.765 562.83V562.83Z" fill="black"/>
<path opacity="0.1" d="M879.765 562.83C878.295 565.75 867.975 563.83 865.845 563.67C863.715 563.51 848.675 555.94 848.465 554.17C848.255 552.4 843.045 548.75 841.585 548.75C840.125 548.75 833.035 543.11 832.405 542.28C832.245 541.866 832.174 541.423 832.195 540.98L841.995 547.18C841.995 547.18 848.255 551.18 849.925 553.55C851.595 555.92 864.755 560.85 865.845 560.95C866.655 561.03 875.295 559.37 880.015 560.07C880.193 560.995 880.107 561.952 879.765 562.83V562.83Z" fill="black"/>
<path d="M736.765 544.58C736.765 544.58 732.485 549.9 726.765 550.31C725.255 550.321 723.808 550.912 722.721 551.959C721.635 553.007 720.992 554.432 720.925 555.94C720.925 555.94 721.925 559.18 708.095 563.67C699.745 566.36 694.495 565.51 691.435 563.67C689.793 562.764 688.553 561.271 687.965 559.49C687.025 556.16 705.485 530.81 705.485 530.81L722.285 529.81L734.285 535.23L736.125 542.1L736.765 544.58Z" fill="#3F3D56"/>
<path opacity="0.1" d="M736.765 544.58C736.765 544.58 732.485 549.9 726.765 550.31C725.255 550.321 723.808 550.912 722.721 551.959C721.635 553.007 720.992 554.432 720.925 555.94C720.925 555.94 721.925 559.18 708.095 563.67C699.745 566.36 694.495 565.51 691.435 563.67C689.793 562.764 688.553 561.271 687.965 559.49C687.025 556.16 705.485 530.81 705.485 530.81L722.285 529.81L734.285 535.23L736.125 542.1L736.765 544.58Z" fill="black"/>
<path opacity="0.1" d="M736.765 544.58C736.765 544.58 732.485 549.9 726.765 550.31C725.255 550.321 723.808 550.912 722.721 551.959C721.634 553.007 720.991 554.432 720.925 555.94C720.925 555.94 721.925 559.18 708.095 563.67C699.745 566.36 694.495 565.51 691.435 563.67C699.305 562.85 716.695 557.88 718.435 556.16C720.525 554.07 723.135 548.33 724.905 548.23C726.135 548.15 732.385 544.39 736.135 542.06L736.765 544.58Z" fill="black"/>
<path d="M865.575 521.32C863.695 525.7 865.575 534.67 865.575 534.67C865.575 534.67 837.575 536.13 830.735 531.54C823.895 526.95 819.055 500.66 819.055 500.66C819.055 500.66 820.055 469.79 819.055 468.33C818.055 466.87 814.255 459.99 815.505 458.53C816.755 457.07 814.505 449.35 812.795 446.01C811.085 442.67 811.795 433.08 811.795 433.08L807.615 407.62L801.155 377.38L795.665 357.14C795.665 357.14 790.035 340.66 788.125 333.78C786.215 326.9 784.195 333.15 784.195 333.15C783.995 339.83 768.555 369.87 768.555 369.87C768.555 369.87 766.255 388.02 763.755 394.48C761.255 400.94 758.535 423.48 758.535 423.48C758.535 423.48 754.535 469.37 751.235 477.09C747.935 484.81 745.665 496.28 745.665 496.28C745.665 496.28 746.505 512.14 744.415 513.39C742.325 514.64 742.665 524.24 742.665 524.24C742.665 524.24 743.915 533.41 739.115 534.88C734.315 536.35 735.115 539.47 735.115 539.47C735.115 539.47 708.415 543.85 704.035 532.16C699.655 520.47 705.705 517.36 706.035 516.52C706.365 515.68 709.695 514.23 706.775 510.88C703.855 507.53 710.525 498.37 710.525 498.37C710.525 498.37 711.575 485.44 713.445 485.02C715.315 484.6 714.705 465.83 714.705 465.83L716.785 446.22C716.785 446.22 719.505 402.41 718.875 400.74C718.245 399.07 718.665 390.74 720.755 386.74C722.845 382.74 724.505 346.26 724.505 346.26C724.505 346.26 724.085 328.33 725.755 324.99C726.755 323.1 727.175 315.83 727.415 309.9C727.595 305.37 727.635 301.62 727.635 301.62L750.995 292.86L780.995 283.27L806.235 295.37L843.165 302.46L843.625 308.83L850.675 406.14L854.675 442.85C854.675 442.85 856.345 460.16 856.555 463.29C856.765 466.42 858.845 486.87 858.845 486.87C858.845 486.87 863.225 496.67 860.515 500.01C857.805 503.35 858.845 506.01 858.845 506.01C858.845 506.01 867.455 516.94 865.575 521.32Z" fill="#3F3D56"/>
<path opacity="0.1" d="M805.025 65.25C802.725 68.55 802.545 72.82 803.315 77.05C798.06 80.7574 791.732 82.6354 785.305 82.3951C778.878 82.1548 772.708 79.8095 767.745 75.72V75.72C767.115 71.48 766.385 68.37 766.385 68.37C766.385 68.37 811.905 55.39 805.025 65.25Z" fill="black"/>
<path d="M815.665 52.49C815.665 58.285 813.947 63.9499 810.727 68.7683C807.507 73.5866 802.931 77.342 797.578 79.5597C792.224 81.7773 786.332 82.3576 780.649 81.2271C774.965 80.0965 769.744 77.3059 765.647 73.2083C761.549 69.1106 758.759 63.8898 757.628 58.2062C756.497 52.5225 757.078 46.6313 759.295 41.2774C761.513 35.9235 765.268 31.3475 770.087 28.128C774.905 24.9084 780.57 23.19 786.365 23.19C790.218 23.1715 794.036 23.9167 797.599 25.3826C801.163 26.8485 804.4 29.006 807.125 31.7305C809.849 34.4549 812.006 37.6923 813.472 41.2555C814.938 44.8187 815.683 48.6371 815.665 52.49Z" fill="#C37098"/>
<path opacity="0.1" d="M821.765 101.18L812.165 272.13L760.015 261.18L749.685 192.65L759.915 100.65L767.615 101.64L781.195 103.37L794.645 104.2L809.225 102.58L821.765 101.18Z" fill="black"/>
<path d="M821.765 102.43L812.165 273.38L760.015 262.43L749.685 193.9L759.915 101.91L767.615 102.89L781.195 104.62L794.645 105.45L809.225 103.83L821.765 102.43Z" fill="#428CFF"/>
<path d="M778.895 107.02L797.675 107.65L792.395 115.04C792.395 115.04 792.765 129.97 795.275 134.25C797.785 138.53 797.045 204.65 797.045 204.65L792.045 214.14L783.495 203.5L783.605 116.2L778.895 107.02Z" fill="#3F3D56"/>
<path opacity="0.1" d="M778.895 107.02L797.675 107.65L792.395 115.04C792.395 115.04 792.765 129.97 795.275 134.25C797.785 138.53 797.045 204.65 797.045 204.65L792.045 214.14L783.495 203.5L783.605 116.2L778.895 107.02Z" fill="black"/>
<path opacity="0.1" d="M808.305 87.62L790.785 107.02L800.795 117.45L817.385 101.28L808.305 87.62Z" fill="black"/>
<path d="M808.305 86.37L790.785 105.77L800.795 116.2L817.385 100.03L808.305 86.37Z" fill="#2073F5"/>
<path opacity="0.1" d="M783.385 106.08L765.645 88.35L763.975 97.63L772.115 117.97L783.385 106.08Z" fill="black"/>
<path d="M784.005 104.83L766.275 87.1L764.604 96.38L772.745 116.72L784.005 104.83Z" fill="#2C7DFB"/>
<path opacity="0.1" d="M843.715 308.86C835.2 312.917 826.08 315.555 816.715 316.67C799.505 318.86 788.245 296.96 788.245 296.96L781.675 305.51C779.585 314.59 747.775 316.88 734.845 313.44C732.162 312.777 729.639 311.584 727.425 309.93C727.605 305.4 727.645 301.65 727.645 301.65L751.005 292.89L781.005 283.3L806.245 295.4L843.175 302.49L843.715 308.86Z" fill="black"/>
<path opacity="0.1" d="M821.765 102.44L812.175 273.38L760.015 262.43L749.665 193.91L759.885 101.91L767.585 102.91C767.388 106.261 767.011 109.599 766.455 112.91C765.205 118.76 772.925 160.27 772.925 160.27C772.925 160.27 787.595 206.82 794.195 200.11C800.795 193.4 810.195 157.97 810.195 157.97C816.565 144.83 810.305 107.97 809.835 107.23C809.508 106.14 809.306 105.016 809.235 103.88L821.765 102.44Z" fill="black"/>
<path opacity="0.1" d="M844.295 234.72L844.735 251.47L839.915 255.84L836.665 215.29H843.865L844.295 234.72Z" fill="black"/>
<path opacity="0.1" d="M731.035 203.82C730.961 205.167 730.771 206.506 730.465 207.82C730.465 207.45 730.465 207.24 730.385 207.21C730.085 207.13 730.445 205.6 731.035 203.82Z" fill="black"/>
<path opacity="0.1" d="M740.275 215.29L736.985 255.81C736.985 255.81 732.055 251.34 725.675 245.52L726.435 238.34C726.435 238.34 729.125 220.7 730.105 212C730.549 213.159 731.126 214.263 731.825 215.29H740.275Z" fill="black"/>
<path d="M768.565 87.72C768.565 87.72 765.445 83.13 761.165 91.99C761.165 91.99 750.005 98.46 746.165 99.19C742.325 99.92 728.665 104.72 728.665 104.72C726.602 106.211 724.12 107.013 721.575 107.01C717.295 107.01 713.745 116.4 714.265 121.51C714.785 126.62 713.955 130.38 709.995 130.59C706.035 130.8 708.215 139.03 708.215 139.03L734.605 169.28C734.605 169.28 736.275 197.13 735.445 197.97C734.615 198.81 731.585 206.97 732.315 207.25C733.045 207.53 728.315 238.33 728.315 238.33L721.955 298.1C721.955 298.1 721.955 308.1 734.895 311.55C747.835 315 779.665 312.72 781.715 303.64L788.285 295.08C788.285 295.08 799.545 316.99 816.755 314.8C833.965 312.61 844.925 306.35 844.925 306.35L843.045 234.72L841.795 183.09L868.665 138.94C868.665 138.94 861.465 125.17 862.095 118.94C862.725 112.71 863.965 107.99 848.635 105.8C848.635 105.8 835.705 103.87 828.085 98.6001C823.556 95.4558 818.608 92.9647 813.385 91.2001C813.385 91.2001 809.085 83.2 806.095 85.94C806.095 85.94 809.095 97.25 808.845 98.94C808.595 100.63 809.315 108.27 809.785 109.06C810.255 109.85 816.515 146.66 810.145 159.8C810.145 159.8 800.795 195.23 794.145 201.94C787.495 208.65 772.875 162.1 772.875 162.1C772.875 162.1 765.155 120.58 766.405 114.74C767.655 108.9 768.565 87.72 768.565 87.72Z" fill="#3F3D56"/>
<path d="M790.885 224.47C793.42 224.47 795.475 222.415 795.475 219.88C795.475 217.345 793.42 215.29 790.885 215.29C788.35 215.29 786.295 217.345 786.295 219.88C786.295 222.415 788.35 224.47 790.885 224.47Z" fill="#3F3D56"/>
<path d="M790.885 246.11C793.42 246.11 795.475 244.055 795.475 241.52C795.475 238.985 793.42 236.93 790.885 236.93C788.35 236.93 786.295 238.985 786.295 241.52C786.295 244.055 788.35 246.11 790.885 246.11Z" fill="#3F3D56"/>
<path opacity="0.1" d="M790.885 224.47C793.42 224.47 795.475 222.415 795.475 219.88C795.475 217.345 793.42 215.29 790.885 215.29C788.35 215.29 786.295 217.345 786.295 219.88C786.295 222.415 788.35 224.47 790.885 224.47Z" fill="black"/>
<path opacity="0.1" d="M790.885 246.11C793.42 246.11 795.475 244.055 795.475 241.52C795.475 238.985 793.42 236.93 790.885 236.93C788.35 236.93 786.295 238.985 786.295 241.52C786.295 244.055 788.35 246.11 790.885 246.11Z" fill="black"/>
<path opacity="0.1" d="M832.135 515.06C832.135 515.06 850.975 516.52 852.845 517.98C854.715 519.44 832.135 515.06 832.135 515.06Z" fill="black" stroke="#6C63FF" stroke-miterlimit="10"/>
<path opacity="0.1" d="M719.965 500.25C719.965 500.25 723.965 505.25 722.265 507.55C720.565 509.85 719.965 500.25 719.965 500.25Z" fill="black" stroke="#6C63FF" stroke-miterlimit="10"/>
<path opacity="0.1" d="M724.765 518.28C724.765 518.28 732.065 513.48 734.985 516.67C737.905 519.86 724.765 518.28 724.765 518.28Z" fill="black" stroke="#6C63FF" stroke-miterlimit="10"/>
<path opacity="0.1" d="M815.665 52.4899C815.671 54.99 815.355 57.4804 814.725 59.8999C814.108 59.6186 813.592 59.1557 813.245 58.5732C812.899 57.9907 812.738 57.3162 812.785 56.6399C812.915 55.4499 813.705 54.3599 813.535 53.1799C813.285 51.3599 811.085 50.6199 809.925 49.1799C808.495 47.4399 808.805 44.9099 808.925 42.6599C809.045 40.4099 808.475 37.6599 806.365 36.8899C805.735 36.6599 805.045 36.6399 804.435 36.3799C802.775 35.6799 802.265 33.6199 801.155 32.1999C798.935 29.3399 794.525 29.3999 791.155 30.7599C789.688 31.4632 788.186 32.0907 786.655 32.6399C785.888 32.9104 785.074 33.0188 784.263 32.9586C783.453 32.8984 782.663 32.6707 781.945 32.2899C781.285 31.8699 780.755 31.2899 780.075 30.8699C777.815 29.5099 774.855 30.8699 772.895 32.6199C770.935 34.3699 769.365 36.7199 766.895 37.7899C765.785 38.2899 764.415 38.5899 763.895 39.6699C763.638 40.2579 763.528 40.8998 763.575 41.5399C763.575 45.4299 764.035 49.3799 763.225 53.1899C762.705 55.6399 760.985 58.4199 758.495 58.1199C758.185 58.074 757.88 57.997 757.585 57.8899C756.835 53.8848 756.93 49.7674 757.861 45.8007C758.793 41.834 760.542 38.1053 762.996 34.8526C765.45 31.6 768.556 28.895 772.114 26.9104C775.673 24.9259 779.606 23.7053 783.663 23.3269C787.721 22.9484 791.812 23.4203 795.676 24.7124C799.541 26.0045 803.093 28.0884 806.106 30.831C809.12 33.5735 811.528 36.9145 813.177 40.6404C814.827 44.3663 815.681 48.3953 815.685 52.4699L815.665 52.4899Z" fill="black"/>
<path d="M756.275 56.23C757.025 56.4 757.735 56.79 758.505 56.89C760.995 57.19 762.715 54.41 763.235 51.96C764.045 48.15 763.625 44.2 763.595 40.31C763.539 39.6705 763.646 39.0273 763.905 38.44C764.475 37.36 765.845 37.06 766.905 36.56C769.325 35.48 770.905 33.18 772.905 31.39C774.905 29.6 777.815 28.28 780.075 29.64C780.745 30.04 781.285 30.64 781.945 31.06C782.667 31.4353 783.457 31.6599 784.269 31.7201C785.08 31.7802 785.895 31.6747 786.665 31.41C788.215 30.95 789.665 30.14 791.155 29.53C794.495 28.17 798.915 28.12 801.155 30.96C802.265 32.39 802.775 34.44 804.435 35.14C805.045 35.4 805.735 35.43 806.365 35.66C808.475 36.45 809.015 39.18 808.925 41.43C808.835 43.68 808.535 46.21 809.925 47.95C811.085 49.37 813.285 50.11 813.535 51.95C813.695 53.13 812.915 54.23 812.785 55.41C812.755 55.8486 812.813 56.2887 812.954 56.7048C813.096 57.121 813.319 57.5048 813.61 57.8342C813.901 58.1635 814.255 58.4317 814.65 58.6232C815.046 58.8148 815.476 58.9259 815.915 58.95C818.515 58.95 820.125 56.04 822.555 55.11C823.555 54.72 824.765 54.66 825.555 53.87C825.849 53.4903 826.056 53.0512 826.163 52.5833C826.27 52.1153 826.274 51.6297 826.175 51.16C825.685 47.33 822.615 44 822.945 40.16C823.255 36.48 826.665 33.27 825.945 29.65C825.578 28.3152 824.892 27.0898 823.945 26.08C822.873 24.6272 821.476 23.4456 819.865 22.63C818.475 22.03 816.865 21.89 815.595 21.16C811.815 19.09 811.825 13.69 809.595 10.01C808.638 8.48917 807.281 7.26106 805.672 6.46027C804.063 5.65947 802.265 5.31688 800.475 5.47C797.665 5.75 795.115 7.23999 792.335 7.73999C788.525 8.41999 784.665 7.16999 781.055 5.73999C777.445 4.30999 773.795 2.73999 769.925 2.73999C766.055 2.73999 761.865 4.73999 760.685 8.39999C760.065 10.4 760.375 12.54 759.895 14.55C759.055 18.12 755.895 20.66 752.715 22.43C750.525 23.65 747.895 25.05 747.635 27.54C747.465 29.12 748.335 30.54 748.885 32.07C749.82 34.6584 749.799 37.496 748.825 40.07C748.095 41.96 746.875 43.62 746.135 45.5C745.61 46.7759 745.361 48.1488 745.406 49.5279C745.451 50.907 745.788 52.2609 746.395 53.5C746.861 54.4035 747.507 55.2022 748.292 55.847C749.078 56.4919 749.988 56.9693 750.965 57.25C752.935 57.72 754.175 55.77 756.275 56.23Z" fill="#3F3D56"/>
<g opacity="0.1">
<path opacity="0.1" d="M763.235 49.78C762.715 52.23 760.985 55.01 758.495 54.71C757.725 54.61 757.025 54.22 756.265 54.05C754.175 53.59 752.935 55.55 750.965 55.05C749.986 54.7694 749.076 54.2921 748.288 53.6473C747.5 53.0025 746.853 52.2037 746.385 51.3C745.862 50.2821 745.546 49.1707 745.455 48.03C745.256 49.8006 745.579 51.5908 746.385 53.18C746.853 54.0837 747.5 54.8825 748.288 55.5273C749.076 56.1721 749.986 56.6494 750.965 56.93C752.965 57.39 754.175 55.43 756.265 55.93C756.996 56.1847 757.741 56.4016 758.495 56.58C760.985 56.89 762.715 54.11 763.235 51.66C763.645 49.4954 763.806 47.2911 763.715 45.09C763.705 46.6651 763.544 48.2356 763.235 49.78V49.78Z" fill="black"/>
<path opacity="0.1" d="M749.535 34.72C749.662 33.0813 749.437 31.4344 748.875 29.89C748.423 28.8631 748.038 27.8074 747.725 26.73C747.682 26.898 747.649 27.0682 747.625 27.24C747.455 28.81 748.335 30.24 748.875 31.77C749.224 32.7199 749.446 33.7118 749.535 34.72V34.72Z" fill="black"/>
<path opacity="0.1" d="M825.935 29.45C825.465 32.29 823.165 34.96 822.935 37.95C822.879 38.4618 822.879 38.9781 822.935 39.4899C823.435 35.9999 826.525 32.91 825.935 29.45Z" fill="black"/>
<path opacity="0.1" d="M826.105 50.5499C826.02 50.9681 825.823 51.3553 825.535 51.67C824.795 52.46 823.535 52.5199 822.535 52.9099C820.105 53.8399 818.535 56.7799 815.895 56.7499C815.219 56.7117 814.571 56.4695 814.035 56.0553C813.5 55.6412 813.102 55.0745 812.895 54.4299C812.834 54.6467 812.787 54.8671 812.755 55.0899C812.727 55.5277 812.785 55.9668 812.928 56.3817C813.07 56.7967 813.293 57.1794 813.584 57.5076C813.875 57.8359 814.228 58.1031 814.623 58.2941C815.018 58.485 815.447 58.5957 815.885 58.6199C818.495 58.6199 820.095 55.7099 822.525 54.7899C823.525 54.3999 824.745 54.3399 825.525 53.5499C825.819 53.1702 826.026 52.7311 826.133 52.2632C826.24 51.7952 826.244 51.3096 826.145 50.8399C826.135 50.7199 826.115 50.6399 826.105 50.5499Z" fill="black"/>
<path opacity="0.1" d="M813.565 49.7199C813.315 47.8999 811.115 47.1599 809.955 45.7199C809.244 44.7741 808.858 43.6234 808.855 42.4399C808.775 44.2999 808.805 46.1999 809.955 47.5999C811.105 48.9999 812.855 49.5999 813.415 51.0399C813.556 50.6152 813.608 50.1656 813.565 49.7199V49.7199Z" fill="black"/>
<path opacity="0.1" d="M808.915 39.25C808.995 37 808.455 34.25 806.345 33.48C805.725 33.25 805.035 33.22 804.425 32.97C802.765 32.27 802.245 30.21 801.145 28.79C798.915 25.94 794.505 25.99 791.145 27.35C789.645 27.96 788.215 28.77 786.655 29.23C785.888 29.5004 785.074 29.6089 784.263 29.5486C783.452 29.4884 782.663 29.2607 781.945 28.88C781.285 28.46 780.745 27.88 780.075 27.46C777.805 26.1 774.845 27.46 772.895 29.21C770.945 30.96 769.365 33.3 766.895 34.38C765.775 34.88 764.415 35.18 763.835 36.26C763.58 36.8487 763.474 37.4907 763.525 38.13C763.525 38.52 763.525 38.91 763.525 39.3C763.538 38.8971 763.637 38.5017 763.815 38.14C764.395 37.06 765.755 36.76 766.875 36.26C769.295 35.18 770.875 32.88 772.875 31.09C774.875 29.3 777.785 27.98 780.055 29.34C780.725 29.74 781.265 30.34 781.925 30.75C782.642 31.1331 783.432 31.3621 784.243 31.4224C785.054 31.4826 785.868 31.3728 786.635 31.1C788.163 30.5559 789.662 29.9317 791.125 29.23C794.475 27.87 798.885 27.81 801.125 30.66C802.225 32.08 802.745 34.14 804.405 34.84C805.015 35.1 805.705 35.13 806.325 35.36C808.035 36 808.715 37.92 808.865 39.82L808.915 39.25Z" fill="black"/>
</g>
<g opacity="0.1">
<path opacity="0.1" d="M759.665 49.7199C759.722 48.0602 760.317 46.4638 761.359 45.1709C762.401 43.8779 763.835 42.9582 765.445 42.5499C769.904 41.4599 774.582 41.6716 778.925 43.1599C788.415 46.2999 777.725 57.5999 777.725 57.5999C777.725 57.5999 770.615 64.5999 763.985 59.7099C762.027 58.2299 760.656 56.1043 760.115 53.7099C759.79 52.4055 759.639 51.0639 759.665 49.7199V49.7199Z" fill="black"/>
<path opacity="0.1" d="M811.835 49.72C811.777 48.0589 811.181 46.4615 810.137 45.1684C809.093 43.8753 807.657 42.9564 806.045 42.55C801.589 41.4619 796.915 41.6736 792.575 43.16C783.085 46.3 793.775 57.6 793.775 57.6C793.775 57.6 800.875 64.6 807.515 59.71C809.473 58.2299 810.844 56.1043 811.385 53.71C811.71 52.4055 811.861 51.064 811.835 49.72Z" fill="black"/>
<path opacity="0.1" d="M777.135 42.2399V42.7099H794.465V42.1499L777.135 42.2399Z" fill="black"/>
<path opacity="0.1" d="M782.665 47.2499H783.215V45.6599C783.215 45.6599 784.975 44.2899 787.895 45.6599V47.0799H788.895V46.1499H788.405C788.405 46.1499 788.605 44.2199 785.345 44.5299C785.345 44.5299 782.725 44.2799 782.785 45.9399H782.185L782.665 47.2499Z" fill="black"/>
</g>
<path d="M759.665 49.07C759.722 47.4102 760.316 45.8139 761.359 44.5209C762.401 43.228 763.835 42.3082 765.445 41.9C769.905 40.8173 774.581 41.0289 778.925 42.51C788.415 45.66 777.725 56.95 777.725 56.95C777.725 56.95 770.615 63.95 763.985 59.06C762.023 57.5835 760.651 55.4564 760.115 53.06C759.789 51.7557 759.638 50.414 759.665 49.07V49.07Z" fill="#246FE4"/>
<path d="M811.835 49.0701C811.777 47.409 811.181 45.8116 810.137 44.5185C809.092 43.2254 807.656 42.3065 806.045 41.9001C801.588 40.817 796.915 41.0287 792.575 42.5101C783.085 45.6601 793.775 56.9501 793.775 56.9501C793.775 56.9501 800.875 63.9501 807.515 59.0601C809.477 57.5836 810.849 55.4565 811.385 53.0601C811.71 51.7558 811.862 50.4141 811.835 49.0701Z" fill="#246FE4"/>
<path d="M777.135 41.61V42.09H794.465V41.52L777.135 41.61Z" fill="#6C63FF"/>
<path d="M782.665 46.62H783.215V45.03C783.215 45.03 784.975 43.67 787.895 45.03V46.46H788.895V45.52H788.405C788.405 45.52 788.605 43.6 785.345 43.9C785.345 43.9 782.725 43.66 782.785 45.31H782.185L782.665 46.62Z" fill="#6C63FF"/>
<path d="M561.85 162.163H548.3V135.843C548.3 106.143 524.62 81.453 494.92 81.003C487.758 80.9278 480.653 82.2706 474.012 84.954C467.372 87.6375 461.328 91.6086 456.229 96.6385C451.131 101.668 447.078 107.657 444.305 114.261C441.531 120.864 440.092 127.951 440.07 135.113V162.163H426.55C420.575 162.181 414.85 164.563 410.625 168.788C406.4 173.013 404.018 178.738 404 184.713V292.933C404.018 298.908 406.4 304.633 410.625 308.858C414.85 313.083 420.575 315.465 426.55 315.483H561.85C567.824 315.465 573.548 313.082 577.771 308.857C581.995 304.632 584.374 298.907 584.39 292.933V184.713C584.374 178.739 581.995 173.014 577.771 168.789C573.548 164.564 567.824 162.181 561.85 162.163V162.163ZM502.1 232.513V271.273C502.113 273.325 501.346 275.306 499.953 276.814C498.56 278.321 496.647 279.243 494.6 279.393C493.531 279.443 492.464 279.276 491.462 278.901C490.459 278.527 489.544 277.953 488.77 277.215C487.996 276.476 487.379 275.588 486.958 274.605C486.537 273.621 486.32 272.563 486.32 271.493V232.493C482.662 230.709 479.716 227.738 477.964 224.064C476.211 220.39 475.756 216.231 476.671 212.266C477.587 208.3 479.819 204.761 483.005 202.228C486.19 199.694 490.14 198.314 494.21 198.314C498.28 198.314 502.23 199.694 505.415 202.228C508.601 204.761 510.833 208.3 511.749 212.266C512.664 216.231 512.209 220.39 510.456 224.064C508.704 227.738 505.758 230.709 502.1 232.493V232.513ZM532.54 162.163H455.85V135.113C455.85 124.947 459.888 115.198 467.077 108.01C474.265 100.821 484.014 96.783 494.18 96.783C504.346 96.783 514.095 100.821 521.283 108.01C528.472 115.198 532.51 124.947 532.51 135.113L532.54 162.163Z" fill="#428CFF"/>
<path d="M719.545 383C718.661 383 717.787 382.858 716.974 382.584C716.161 382.309 715.428 381.907 714.817 381.402C714.206 380.897 713.73 380.299 713.419 379.645C713.108 378.99 712.968 378.293 713.006 377.595L714.158 356.908C714.221 355.677 714.839 354.503 715.902 353.602C716.964 352.7 718.4 352.129 719.949 351.994L786 346L783.786 380.471L719.868 382.993C719.76 382.998 719.652 383 719.545 383Z" fill="#428CFF"/>
<path d="M820 702.238L801.723 707L770 653.027L796.975 646L820 702.238Z" fill="#FFB8B8"/>
<path d="M825.442 670C823.861 669.998 822.334 669.537 821.151 668.702C819.968 667.867 819.211 666.716 819.022 665.468L794.075 499.675L757.558 546.275L800.404 633.317C800.987 634.52 800.984 635.853 800.396 637.055C799.807 638.256 798.676 639.24 797.223 639.813L760.876 653.952C760.047 654.275 759.14 654.453 758.217 654.473C757.294 654.494 756.375 654.358 755.524 654.073C754.673 653.789 753.908 653.363 753.281 652.823C752.654 652.284 752.179 651.645 751.889 650.948L711.609 554.206C708.575 546.925 708.178 539.113 710.465 531.662L736.51 446.697L736.815 446.564L795.524 421L795.86 421.098L865 441.159L857.764 550.082L863.021 663.134C863.093 664.477 862.497 665.789 861.362 666.785C860.227 667.782 858.644 668.383 856.955 668.459L825.848 669.99C825.712 669.996 825.577 670 825.442 670Z" fill="#2F2E41"/>
<path d="M786.958 479C776.61 479 767.893 476.658 762.438 470.705L762.262 470.514L765.791 441.088L734.401 454.933C733.75 455.219 733.004 455.341 732.264 455.28C731.523 455.22 730.824 454.98 730.26 454.593C729.697 454.207 729.296 453.693 729.113 453.119C728.929 452.546 728.971 451.942 729.233 451.389L768.381 368.788L794.23 301.5C795.511 296.115 798.822 291.166 803.722 287.309C808.623 283.451 814.883 280.868 821.672 279.9V279.9C844.699 276.539 858.414 282.712 874.25 296.411C878.08 299.745 880.901 303.729 882.498 308.06C884.094 312.392 884.423 316.956 883.461 321.404L868.479 389.436L872.881 450.434C873.218 451.486 873.128 452.595 872.623 453.603C872.118 454.611 871.225 455.467 870.072 456.047C857.827 462.24 820.282 478.998 786.958 479Z" fill="#428CFF"/>
<path d="M839.5 270C860.763 270 878 256.121 878 239C878 221.879 860.763 208 839.5 208C818.237 208 801 221.879 801 239C801 256.121 818.237 270 839.5 270Z" fill="#FFB8B8"/>
<path d="M849.565 458.815C851.662 458.049 853.522 456.925 855.015 455.523C856.508 454.122 857.597 452.476 858.206 450.702C858.815 448.928 858.929 447.07 858.54 445.257C858.151 443.445 857.268 441.722 855.953 440.211L889 404.101L859.9 403L832.979 437.46C829.942 439.389 827.898 442.139 827.234 445.19C826.57 448.24 827.332 451.379 829.376 454.011C831.421 456.644 834.605 458.587 838.326 459.472C842.047 460.357 846.046 460.124 849.565 458.815V458.815Z" fill="#FFB8B8"/>
<path d="M867.326 438.948C865.697 439.133 864.04 438.819 862.69 438.071L840.584 425.819C839.255 425.088 838.318 423.988 837.957 422.736C837.597 421.484 837.839 420.17 838.636 419.052L877.99 363.398L838.409 325.529C836.33 323.54 834.795 321.229 833.902 318.743C833.008 316.257 832.775 313.651 833.218 311.09C833.661 308.528 834.77 306.068 836.475 303.866C838.179 301.664 840.442 299.768 843.118 298.299C845.795 296.83 848.827 295.82 852.022 295.333C855.216 294.846 858.503 294.893 861.674 295.471C864.844 296.049 867.829 297.146 870.437 298.69C873.045 300.235 875.22 302.195 876.824 304.444L920.529 365.756C920.838 366.192 921 366.685 921 367.186C921 367.687 920.836 368.179 920.526 368.616L872.058 436.387C871.61 437.011 871.004 437.555 870.278 437.983C869.552 438.411 868.721 438.714 867.84 438.873C867.67 438.905 867.498 438.929 867.326 438.948Z" fill="#347DEF"/>
<path d="M823.769 235.052C819.945 232.79 814.652 233.143 810.122 231.957C807.424 231.251 805.008 229.995 803.116 228.316C801.224 226.637 799.923 224.592 799.342 222.389C798.761 220.185 798.922 217.899 799.808 215.759C800.694 213.62 802.274 211.703 804.389 210.201C809.282 206.726 816.244 205.937 822.765 205.301C831.698 204.43 840.719 203.558 849.677 204.251C858.636 204.943 867.653 207.341 874.201 212.236C881.421 217.633 884.977 225.667 885 233.532C884.749 241.434 882.012 249.162 877.038 256.013C875.5 258.617 873.182 260.883 870.286 262.613C867.273 264.19 863.026 264.602 860.124 262.9C857.616 261.428 856.698 258.851 855.564 256.546C854.431 254.242 852.498 251.787 849.409 251.431C845.432 250.974 842.398 254.179 838.603 255.227C833.295 256.694 827.399 253.45 825.234 249.339C823.069 245.227 823.639 240.576 824.247 236.147" fill="#2F2E41"/>
<path d="M613.472 329.067L563.617 348.575C559.71 350.107 557.098 352.411 556.355 354.981C555.611 357.551 556.797 360.178 559.653 362.284L562.948 364.708C562.825 364.733 562.714 364.773 562.625 364.825C562.536 364.877 562.471 364.939 562.434 365.007C562.397 365.074 562.391 365.146 562.414 365.215C562.438 365.285 562.491 365.35 562.57 365.407L565.104 367.272C565.18 367.329 565.281 367.377 565.397 367.41C565.513 367.443 565.642 367.462 565.773 367.464C565.904 367.466 566.035 367.451 566.154 367.422C566.273 367.392 566.378 367.348 566.459 367.292L570.296 370.116C570.173 370.141 570.063 370.181 569.974 370.232C569.885 370.284 569.819 370.346 569.782 370.414C569.746 370.482 569.739 370.553 569.763 370.623C569.786 370.692 569.84 370.758 569.919 370.814L576.254 375.476C576.33 375.534 576.43 375.581 576.546 375.614C576.662 375.648 576.791 375.666 576.922 375.668C577.054 375.67 577.184 375.656 577.303 375.626C577.423 375.596 577.527 375.552 577.609 375.497L579.925 377.201C579.802 377.226 579.692 377.266 579.603 377.318C579.514 377.37 579.448 377.432 579.411 377.5C579.375 377.567 579.368 377.639 579.392 377.708C579.415 377.778 579.469 377.843 579.548 377.9L585.883 382.562C585.959 382.619 586.059 382.667 586.175 382.7C586.291 382.733 586.42 382.752 586.551 382.754C586.683 382.756 586.813 382.741 586.932 382.712C587.052 382.682 587.156 382.638 587.238 382.582L654.135 431.809C656.999 433.912 661.296 435.321 666.084 435.727C670.871 436.133 675.758 435.502 679.672 433.975L729.527 414.467C733.435 412.934 736.047 410.63 736.79 408.06C737.533 405.49 736.347 402.864 733.492 400.758L639.01 331.233C636.145 329.13 631.848 327.721 627.061 327.315C622.273 326.909 617.386 327.539 613.472 329.067V329.067ZM730.373 401.979C732.625 403.639 733.56 405.71 732.974 407.737C732.388 409.763 730.328 411.58 727.247 412.789L677.392 432.296C674.305 433.501 670.451 433.998 666.676 433.678C662.901 433.358 659.512 432.247 657.254 430.589L562.771 361.063C560.52 359.402 559.585 357.332 560.171 355.305C560.757 353.278 562.817 351.461 565.898 350.253L615.753 330.745C618.839 329.541 622.693 329.044 626.468 329.364C630.244 329.684 633.632 330.795 635.891 332.453L730.373 401.979Z" fill="#3F3D56"/>
<path d="M728.606 413.764L678.488 433.375C674.923 434.766 670.476 435.343 666.123 434.979C661.77 434.615 657.866 433.339 655.268 431.432L560.669 361.82C558.079 359.91 557.009 357.525 557.693 355.19C558.378 352.855 560.761 350.759 564.32 349.363L614.438 329.753C618.003 328.361 622.45 327.784 626.803 328.149C631.156 328.513 635.06 329.789 637.658 331.696L732.256 401.307C734.846 403.218 735.917 405.602 735.232 407.938C734.548 410.273 732.165 412.368 728.606 413.764V413.764Z" fill="#E6E6E6"/>
<path d="M728.355 412.267L675.908 432.789C673.51 433.725 670.519 434.112 667.591 433.867C664.662 433.622 662.036 432.763 660.288 431.479L562.59 359.588C560.848 358.303 560.127 356.698 560.587 355.127C561.046 353.556 562.649 352.146 565.042 351.208L571.882 348.531C572.278 348.377 572.773 348.312 573.257 348.353C573.741 348.394 574.175 348.536 574.464 348.748C575.317 349.374 576.6 349.794 578.03 349.913C579.459 350.033 580.92 349.844 582.091 349.387L608.352 339.111C609.521 338.653 610.304 337.964 610.528 337.197C610.752 336.43 610.401 335.647 609.55 335.019C609.261 334.807 609.142 334.542 609.218 334.282C609.294 334.022 609.559 333.789 609.955 333.634L617.489 330.686C619.887 329.75 622.878 329.362 625.806 329.608C628.735 329.853 631.361 330.712 633.109 331.995L730.807 403.887C732.549 405.172 733.27 406.776 732.81 408.348C732.351 409.919 730.748 411.328 728.355 412.267V412.267Z" fill="white"/>
<path d="M595.359 341.472L589.007 343.958C588.82 344.031 588.59 344.065 588.369 344.051C588.149 344.038 587.954 343.979 587.829 343.887C587.704 343.795 587.658 343.677 587.702 343.56C587.746 343.444 587.876 343.337 588.063 343.263L594.415 340.778C594.602 340.705 594.832 340.671 595.052 340.684C595.273 340.698 595.468 340.757 595.593 340.849C595.718 340.941 595.763 341.058 595.72 341.175C595.676 341.292 595.546 341.399 595.359 341.472V341.472Z" fill="white"/>
<path d="M852.322 721.289L840.062 721.288L834.23 674L852.324 674.001L852.322 721.289Z" fill="#FFB8B8"/>
<path d="M820.28 722.411L782.703 734.684L782.548 734.208C781.92 732.288 781.677 730.262 781.833 728.248C781.988 726.233 782.539 724.269 783.453 722.467C784.368 720.665 785.628 719.061 787.163 717.747C788.697 716.432 790.475 715.433 792.396 714.805L792.397 714.805L815.348 707.309L820.28 722.411Z" fill="#2F2E41"/>
<path d="M851.071 742.01L811.54 742.009V741.509C811.54 739.488 811.938 737.487 812.711 735.621C813.484 733.754 814.618 732.058 816.047 730.629C817.475 729.2 819.172 728.067 821.038 727.294C822.905 726.52 824.906 726.123 826.927 726.123H826.928L851.071 726.124L851.071 742.01Z" fill="#2F2E41"/>
<path d="M674.381 382.666C675.676 383.362 677.107 383.766 678.575 383.849C680.043 383.932 681.511 383.692 682.876 383.146C684.241 382.6 685.47 381.762 686.476 380.69C687.481 379.618 688.24 378.338 688.698 376.941L724.427 376.323L713.938 361L681.617 363.936C679.219 363.322 676.679 363.609 674.479 364.743C672.279 365.877 670.571 367.778 669.679 370.087C668.787 372.396 668.773 374.952 669.64 377.27C670.506 379.589 672.193 381.509 674.381 382.666H674.381Z" fill="#FFB8B8"/>
<defs>
<linearGradient id="paint0_linear" x1="183900" y1="483183" x2="183900" y2="163549" gradientUnits="userSpaceOnUse">
<stop stop-color="#808080" stop-opacity="0.25"/>
<stop offset="0.54" stop-color="#808080" stop-opacity="0.12"/>
<stop offset="1" stop-color="#808080" stop-opacity="0.1"/>
</linearGradient>
</defs>
</svg>
