<svg width="297" height="395" viewBox="0 0 297 395" fill="none" xmlns="http://www.w3.org/2000/svg">
<path d="M297 140.5C297 218.096 163 395 148.5 395C130.5 384.5 0 218.096 0 140.5C0 62.904 66.4857 0 148.5 0C230.514 0 297 62.904 297 140.5Z" fill="url(#paint0_linear)"/>
<circle cx="149" cy="145.5" r="113.5" fill="white"/>
<path d="M229.545 114.121V230H68.6542V114.121H59.5L82 50H211.375L239.5 114.121H229.545ZM153.225 173.518H164.111V156.793C164.111 151.706 159.491 147.428 153.225 146.186V173.518ZM134.835 173.518H147.037V145.975C140.113 146.845 134.835 151.356 134.835 156.793V173.518ZM222.764 114.121H75.4354V223.639H128.561V153.492C128.561 144.835 137.923 137.816 149.472 137.816C161.021 137.816 170.384 144.835 170.384 153.492V223.639H222.764V114.121ZM179.761 135.184C179.761 129.124 187.625 124.211 197.326 124.211C207.028 124.211 214.892 129.124 214.892 135.184V179.78H217.935V184.701H177.086V179.78H179.761V135.184ZM199.624 179.666H209.623V166.207H199.624V179.666ZM199.624 162.741H209.623V145.427H199.624V162.741ZM199.624 141.96H209.623V136.028C209.623 132.276 205.316 129.155 199.624 128.483V141.96ZM185.031 179.666H195.245V166.207H185.031V179.666ZM185.031 162.741H195.245V145.427H185.031V162.741ZM185.031 141.96H195.245V128.459C189.446 129.077 185.031 132.23 185.031 136.028V141.96ZM80.2107 179.78H82.8857V135.184C82.8857 129.124 90.7501 124.211 100.451 124.211C110.153 124.211 118.017 129.124 118.017 135.184V179.78H121.06V184.701H80.2107V179.78ZM102.748 179.666H112.748V166.207H102.748V179.666ZM102.748 162.741H112.748V145.427H102.748V162.741ZM102.748 141.96H112.748V136.028C112.748 132.276 108.441 129.155 102.748 128.483V141.96ZM88.1562 179.666H98.3699V166.207H88.1562V179.666ZM88.1562 162.741H98.3699V145.427H88.1562V162.741ZM88.1562 141.96H98.3699V128.459C92.5713 129.077 88.1562 132.23 88.1562 136.028V141.96Z" fill="url(#paint1_linear)"/>
<defs>
<linearGradient id="paint0_linear" x1="-22.5" y1="91.5" x2="248" y2="236.5" gradientUnits="userSpaceOnUse">
<stop stop-color="#D20B0B"/>
<stop offset="1" stop-color="#870202"/>
</linearGradient>
<linearGradient id="paint1_linear" x1="79.5" y1="64.5" x2="215.5" y2="230" gradientUnits="userSpaceOnUse">
<stop offset="0.119462" stop-color="#DC1818"/>
<stop offset="1" stop-color="#9E0303"/>
</linearGradient>
</defs>
</svg>
