<svg width="297" height="395" viewBox="0 0 297 395" fill="none" xmlns="http://www.w3.org/2000/svg">
<path d="M297 140.5C297 218.096 163 395 148.5 395C130.5 384.5 0 218.096 0 140.5C0 62.904 66.4857 0 148.5 0C230.514 0 297 62.904 297 140.5Z" fill="url(#paint0_linear)"/>
<circle cx="148.5" cy="135.5" r="113.5" fill="white"/>
<path d="M147.455 74.0007C146.574 74.0098 145.709 74.1798 144.929 74.4971L38.1072 118.319C37.1959 118.689 36.4323 119.247 35.8995 119.932C35.3666 120.618 35.0849 121.403 35.0849 122.204C35.0849 123.006 35.3666 123.791 35.8995 124.477C36.4323 125.162 37.1959 125.72 38.1072 126.09L144.929 169.912C145.735 170.242 146.632 170.414 147.542 170.414C148.453 170.414 149.35 170.242 150.156 169.912L256.978 126.09C257.889 125.72 258.653 125.162 259.185 124.477C259.718 123.791 260 123.006 260 122.204C260 121.403 259.718 120.618 259.185 119.932C258.653 119.247 257.889 118.689 256.978 118.319L150.156 74.4971C149.323 74.1583 148.394 73.9876 147.455 74.0007ZM147.542 83.347L242.285 122.204L147.542 161.079L52.7996 122.204L147.542 83.347ZM40.6328 144.081C39.3654 144.079 38.1344 144.411 37.1395 145.023C36.1446 145.635 35.4441 146.491 35.1517 147.453C34.8593 148.414 34.9921 149.424 35.5286 150.319C36.0651 151.214 36.9737 151.941 38.1072 152.383L144.929 196.205C145.735 196.535 146.632 196.707 147.542 196.707C148.453 196.707 149.35 196.535 150.156 196.205L256.978 152.383C257.632 152.116 258.213 151.75 258.687 151.308C259.16 150.865 259.517 150.355 259.737 149.805C259.958 149.255 260.037 148.676 259.97 148.103C259.904 147.529 259.693 146.971 259.35 146.46C259.006 145.95 258.538 145.498 257.97 145.128C257.402 144.759 256.747 144.481 256.041 144.309C255.336 144.138 254.594 144.076 253.858 144.128C253.121 144.18 252.405 144.344 251.751 144.612L147.542 187.372L43.3341 144.612C42.5051 144.261 41.5761 144.079 40.6328 144.081ZM40.6328 170.374C39.3654 170.372 38.1344 170.704 37.1395 171.316C36.1446 171.928 35.4441 172.784 35.1517 173.746C34.8593 174.707 34.9921 175.717 35.5286 176.612C36.0651 177.507 36.9737 178.234 38.1072 178.676L144.929 222.498C145.735 222.828 146.632 223 147.542 223C148.453 223 149.35 222.828 150.156 222.498L256.978 178.676C257.632 178.409 258.213 178.043 258.687 177.601C259.16 177.158 259.517 176.648 259.737 176.098C259.958 175.548 260.037 174.969 259.97 174.395C259.904 173.822 259.693 173.264 259.35 172.753C259.006 172.243 258.538 171.791 257.97 171.421C257.402 171.052 256.747 170.774 256.041 170.602C255.336 170.431 254.594 170.369 253.858 170.421C253.121 170.473 252.405 170.637 251.751 170.905L147.542 213.665L43.3341 170.905C42.5051 170.554 41.5761 170.372 40.6328 170.374Z" fill="url(#paint1_linear)"/>
<defs>
<linearGradient id="paint0_linear" x1="1.01564e-06" y1="31.5" x2="273.5" y2="242.5" gradientUnits="userSpaceOnUse">
<stop stop-color="#21970E"/>
<stop offset="1" stop-color="#216616"/>
</linearGradient>
<linearGradient id="paint1_linear" x1="227" y1="193" x2="147" y2="61.5" gradientUnits="userSpaceOnUse">
<stop stop-color="#1C5612"/>
<stop offset="0.989583" stop-color="#3DAD2B"/>
</linearGradient>
</defs>
</svg>
