<svg width="297" height="395" viewBox="0 0 297 395" fill="none" xmlns="http://www.w3.org/2000/svg">
<path d="M297 140.5C297 218.096 163 395 148.5 395C130.5 384.5 0 218.096 0 140.5C0 62.904 66.4857 0 148.5 0C230.514 0 297 62.904 297 140.5Z" fill="url(#paint0_linear)"/>
<circle cx="149.5" cy="140.5" r="113.5" fill="white"/>
<path d="M215.251 229.275V73.5961L206.501 64.8713V44H89.4989V64.8713L80.7494 73.5961V229.275H72V238H224V229.275H215.251ZM182.826 49.6455C186.257 49.6455 189.002 52.3827 189.002 55.8042C189.002 59.2257 186.257 61.963 182.826 61.963C179.395 61.963 176.65 59.2257 176.65 55.8042C176.65 52.3827 179.567 49.6455 182.826 49.6455ZM165.499 49.6455C168.93 49.6455 171.675 52.3827 171.675 55.8042C171.675 59.2257 168.93 61.963 165.499 61.963C162.068 61.963 159.323 59.2257 159.323 55.8042C159.323 52.3827 162.068 49.6455 165.499 49.6455ZM148 49.6455C151.431 49.6455 154.176 52.3827 154.176 55.8042C154.176 59.2257 151.431 61.7919 148 61.7919C144.569 61.7919 141.824 59.0547 141.824 55.6332C141.824 52.2116 144.74 49.6455 148 49.6455ZM130.501 49.6455C133.932 49.6455 136.677 52.3827 136.677 55.8042C136.677 59.2257 133.932 61.963 130.501 61.963C127.07 61.963 124.325 59.2257 124.325 55.8042C124.325 52.3827 127.242 49.6455 130.501 49.6455ZM113.174 49.6455C116.605 49.6455 119.35 52.3827 119.35 55.8042C119.35 59.2257 116.605 61.963 113.174 61.963C109.743 61.963 106.998 59.2257 106.998 55.8042C106.998 52.3827 109.743 49.6455 113.174 49.6455ZM174.248 124.063V141.513H156.749V124.063H174.248ZM156.749 110.377V92.9277H174.248V110.377C174.248 110.377 156.749 110.377 156.749 110.377ZM157.093 155.028H174.591V172.478H157.093V155.028ZM206.501 109.009V126.459H189.174V109.009H206.501ZM189.174 99.5996V82.321H206.673V99.7707H189.174V99.5996ZM206.501 135.012V152.462H189.174V135.012H206.501ZM206.501 160.332V177.781H189.174V160.332H206.501ZM206.501 186.506V203.956H189.174V186.506H206.501ZM121.923 141.342V124.063H139.422V141.513L121.923 141.342ZM138.564 155.028V172.478H121.237V155.028H138.564ZM121.923 110.377V92.9277H139.422V110.377C139.422 110.377 121.923 110.377 121.923 110.377ZM89.4989 82.321H106.826V99.7707H89.4989V82.321ZM89.4989 109.009H106.826V126.459H89.4989V109.009ZM89.4989 135.012H106.826V152.462H89.4989V135.012ZM89.4989 159.818H106.826V177.268H89.4989V159.818ZM89.4989 185.993H106.826V203.443H89.4989V185.993ZM130.673 193.349H165.499V229.275H130.673V193.349Z" fill="url(#paint1_linear)"/>
<defs>
<linearGradient id="paint0_linear" x1="2.90486e-06" y1="79.5" x2="297" y2="311" gradientUnits="userSpaceOnUse">
<stop stop-color="#622FCE"/>
<stop offset="1" stop-color="#29096D"/>
</linearGradient>
<linearGradient id="paint1_linear" x1="47.5" y1="44" x2="250.5" y2="238" gradientUnits="userSpaceOnUse">
<stop stop-color="#9467F2"/>
<stop offset="1" stop-color="#29096D"/>
</linearGradient>
</defs>
</svg>
