<svg width="297" height="395" viewBox="0 0 297 395" fill="none" xmlns="http://www.w3.org/2000/svg">
<path d="M297 140.5C297 218.096 163 395 148.5 395C130.5 384.5 0 218.096 0 140.5C0 62.904 66.4857 0 148.5 0C230.514 0 297 62.904 297 140.5Z" fill="url(#paint0_linear)"/>
<circle cx="148.5" cy="135.5" r="113.5" fill="white"/>
<path d="M216.251 224.275V68.5961L207.501 59.8713V39H90.4989V59.8713L81.7494 68.5961V224.275H73V233H225V224.275H216.251ZM183.826 44.6455C187.257 44.6455 190.002 47.3827 190.002 50.8042C190.002 54.2257 187.257 56.963 183.826 56.963C180.395 56.963 177.65 54.2257 177.65 50.8042C177.65 47.3827 180.567 44.6455 183.826 44.6455ZM166.499 44.6455C169.93 44.6455 172.675 47.3827 172.675 50.8042C172.675 54.2257 169.93 56.963 166.499 56.963C163.068 56.963 160.323 54.2257 160.323 50.8042C160.323 47.3827 163.068 44.6455 166.499 44.6455ZM149 44.6455C152.431 44.6455 155.176 47.3827 155.176 50.8042C155.176 54.2257 152.431 56.7919 149 56.7919C145.569 56.7919 142.824 54.0547 142.824 50.6332C142.824 47.2116 145.74 44.6455 149 44.6455ZM131.501 44.6455C134.932 44.6455 137.677 47.3827 137.677 50.8042C137.677 54.2257 134.932 56.963 131.501 56.963C128.07 56.963 125.325 54.2257 125.325 50.8042C125.325 47.3827 128.242 44.6455 131.501 44.6455ZM114.174 44.6455C117.605 44.6455 120.35 47.3827 120.35 50.8042C120.35 54.2257 117.605 56.963 114.174 56.963C110.743 56.963 107.998 54.2257 107.998 50.8042C107.998 47.3827 110.743 44.6455 114.174 44.6455ZM175.248 119.063V136.513H157.749V119.063H175.248ZM157.749 105.377V87.9277H175.248V105.377C175.248 105.377 157.749 105.377 157.749 105.377ZM158.093 150.028H175.591V167.478H158.093V150.028ZM207.501 104.009V121.459H190.174V104.009H207.501ZM190.174 94.5996V77.321H207.673V94.7707H190.174V94.5996ZM207.501 130.012V147.462H190.174V130.012H207.501ZM207.501 155.332V172.781H190.174V155.332H207.501ZM207.501 181.506V198.956H190.174V181.506H207.501ZM122.923 136.342V119.063H140.422V136.513L122.923 136.342ZM139.564 150.028V167.478H122.237V150.028H139.564ZM122.923 105.377V87.9277H140.422V105.377C140.422 105.377 122.923 105.377 122.923 105.377ZM90.4989 77.321H107.826V94.7707H90.4989V77.321ZM90.4989 104.009H107.826V121.459H90.4989V104.009ZM90.4989 130.012H107.826V147.462H90.4989V130.012ZM90.4989 154.818H107.826V172.268H90.4989V154.818ZM90.4989 180.993H107.826V198.443H90.4989V180.993ZM131.673 188.349H166.499V224.275H131.673V188.349Z" fill="url(#paint1_linear)"/>
<defs>
<linearGradient id="paint0_linear" x1="1.01564e-06" y1="31.5" x2="273.5" y2="242.5" gradientUnits="userSpaceOnUse">
<stop stop-color="#21970E"/>
<stop offset="1" stop-color="#216616"/>
</linearGradient>
<linearGradient id="paint1_linear" x1="52.5" y1="50.5" x2="251.5" y2="233" gradientUnits="userSpaceOnUse">
<stop stop-color="#26A212"/>
<stop offset="1" stop-color="#216616"/>
</linearGradient>
</defs>
</svg>
