<svg width="297" height="395" viewBox="0 0 297 395" fill="none" xmlns="http://www.w3.org/2000/svg">
<path d="M297 140.5C297 218.096 163 395 148.5 395C130.5 384.5 0 218.096 0 140.5C0 62.904 66.4857 0 148.5 0C230.514 0 297 62.904 297 140.5Z" fill="url(#paint0_linear)"/>
<circle cx="149.5" cy="140.5" r="113.5" fill="white"/>
<path d="M239.562 109.908V219H57.2337V109.908H48L69.946 63H223.568L251 109.908H239.562ZM161.008 181.372V169.138C161.008 165.416 156.502 162.287 150.39 161.378V181.372H161.008ZM144.354 181.372V161.224C137.601 161.86 132.453 165.16 132.453 169.138V181.372H144.354ZM232.948 110.979H63.8477V214.347H126.333V166.723C126.333 160.39 135.465 155.255 146.73 155.255C157.994 155.255 167.126 160.39 167.126 166.723V214.347H232.948V110.979ZM220.736 116.816V143.334V155.078H184.521V143.334V140.27V116.816H220.736ZM205.081 151.896H216.91V143.468H205.081V151.896ZM205.081 140.27H216.91V131.983H205.081V140.27ZM205.081 128.442H216.91V120.015H205.081V128.442ZM188.283 151.896H200.112V143.468H188.283V151.896ZM188.283 140.27H200.112V131.983H188.283V140.27ZM188.283 128.442H200.112V120.015H188.283V128.442ZM220.736 193.282V205.026H184.521V193.282V190.218V166.764H220.736V193.282ZM200.112 169.962H188.283V178.39H200.112V169.962ZM200.112 181.93H188.283V190.218H200.112V181.93ZM200.112 193.416H188.283V201.844H200.112V193.416ZM216.91 169.962H205.081V178.39H216.91V169.962ZM216.91 181.93H205.081V190.218H216.91V181.93ZM216.91 193.416H205.081V201.844H216.91V193.416ZM128.642 143.334V140.27V116.816H164.856V143.334V143.351H128.642V143.334ZM149.202 140.27H161.031V131.983H149.202V140.27ZM149.202 128.442H161.031V120.015H149.202V128.442ZM132.404 140.27H144.232V131.983H132.404V140.27ZM132.404 128.442H144.232V120.015H132.404V128.442ZM74.7916 193.282V190.218V166.764H111.006V193.282V205.026H74.7916V193.282ZM95.3517 201.844H107.181V193.416H95.3517V201.844ZM95.3517 190.218H107.181V181.93H95.3517V190.218ZM95.3517 178.39H107.181V169.962H95.3517V178.39ZM78.5537 201.844H90.3825V193.416H78.5537V201.844ZM78.5537 190.218H90.3825V181.93H78.5537V190.218ZM78.5537 178.39H90.3825V169.962H78.5537V178.39ZM74.7916 143.334V140.27V116.816H111.006V143.334V155.078H74.7916V143.334ZM95.3517 151.896H107.181V143.468H95.3517V151.896ZM95.3517 140.27H107.181V131.983H95.3517V140.27ZM95.3517 128.442H107.181V120.015H95.3517V128.442ZM78.5537 151.896H90.3825V143.468H78.5537V151.896ZM78.5537 140.27H90.3825V131.983H78.5537V140.27ZM78.5537 128.442H90.3825V120.015H78.5537V128.442Z" fill="url(#paint1_linear)"/>
<defs>
<linearGradient id="paint0_linear" x1="2.90486e-06" y1="79.5" x2="297" y2="311" gradientUnits="userSpaceOnUse">
<stop stop-color="#622FCE"/>
<stop offset="1" stop-color="#29096D"/>
</linearGradient>
<linearGradient id="paint1_linear" x1="74.5" y1="54" x2="251" y2="219" gradientUnits="userSpaceOnUse">
<stop offset="0.151435" stop-color="#480CC8"/>
<stop offset="1" stop-color="#29096D"/>
</linearGradient>
</defs>
</svg>
