<svg width="251" height="190" viewBox="0 0 251 190" fill="none" xmlns="http://www.w3.org/2000/svg">
<path d="M52.6597 159.132C52.5765 159.132 52.4967 159.099 52.4378 159.04C52.379 158.981 52.3459 158.901 52.3459 158.817V61.2953C52.3459 61.2118 52.379 61.1316 52.4378 61.0725C52.4967 61.0134 52.5765 60.9802 52.6597 60.9802C52.7429 60.9802 52.8227 61.0134 52.8816 61.0725C52.9404 61.1316 52.9734 61.2118 52.9734 61.2953V158.817C52.9734 158.901 52.9404 158.981 52.8816 159.04C52.8227 159.099 52.7429 159.132 52.6597 159.132Z" fill="#D1D3D4"/>
<path d="M90.3599 159.132C90.2767 159.132 90.1969 159.099 90.138 159.04C90.0792 158.981 90.0461 158.901 90.0461 158.817V61.2953C90.0461 61.2118 90.0792 61.1316 90.138 61.0725C90.1969 61.0134 90.2767 60.9802 90.3599 60.9802C90.4431 60.9802 90.5229 61.0134 90.5817 61.0725C90.6406 61.1316 90.6736 61.2118 90.6736 61.2953V158.817C90.6736 158.901 90.6406 158.981 90.5817 159.04C90.5229 159.099 90.4431 159.132 90.3599 159.132Z" fill="#D1D3D4"/>
<path d="M128.01 159.132C127.927 159.132 127.847 159.099 127.788 159.04C127.729 158.981 127.696 158.901 127.696 158.817V61.2953C127.696 61.2118 127.729 61.1316 127.788 61.0725C127.847 61.0134 127.927 60.9802 128.01 60.9802C128.093 60.9802 128.173 61.0134 128.232 61.0725C128.291 61.1316 128.324 61.2118 128.324 61.2953V158.817C128.324 158.901 128.291 158.981 128.232 159.04C128.173 159.099 128.093 159.132 128.01 159.132Z" fill="#D1D3D4"/>
<path d="M165.723 159.132C165.639 159.132 165.56 159.099 165.501 159.04C165.442 158.981 165.409 158.901 165.409 158.817V61.2953C165.409 61.2118 165.442 61.1316 165.501 61.0725C165.56 61.0134 165.639 60.9802 165.723 60.9802C165.806 60.9802 165.886 61.0134 165.945 61.0725C166.003 61.1316 166.036 61.2118 166.036 61.2953V158.817C166.036 158.901 166.003 158.981 165.945 159.04C165.886 159.099 165.806 159.132 165.723 159.132Z" fill="#D1D3D4"/>
<path d="M203.41 159.132C203.327 159.132 203.247 159.099 203.189 159.04C203.13 158.981 203.097 158.901 203.097 158.817V61.2953C203.097 61.2118 203.13 61.1316 203.189 61.0725C203.247 61.0134 203.327 60.9802 203.41 60.9802C203.494 60.9802 203.573 61.0134 203.632 61.0725C203.691 61.1316 203.724 61.2118 203.724 61.2953V158.817C203.724 158.901 203.691 158.981 203.632 159.04C203.573 159.099 203.494 159.132 203.41 159.132Z" fill="#D1D3D4"/>
<path d="M203.41 61.5979H52.6597C52.5765 61.5979 52.4967 61.5647 52.4378 61.5056C52.379 61.4465 52.3459 61.3663 52.3459 61.2828C52.3459 61.1992 52.379 61.119 52.4378 61.0599C52.4967 61.0009 52.5765 60.9677 52.6597 60.9677H203.41C203.493 60.9677 203.573 61.0009 203.632 61.0599C203.691 61.119 203.724 61.1992 203.724 61.2828C203.724 61.3663 203.691 61.4465 203.632 61.5056C203.573 61.5647 203.493 61.5979 203.41 61.5979Z" fill="#D1D3D4"/>
<path d="M203.41 93.853H52.6597C52.5765 93.853 52.4967 93.8198 52.4378 93.7607C52.379 93.7016 52.3459 93.6215 52.3459 93.5379C52.3459 93.4543 52.379 93.3742 52.4378 93.3151C52.4967 93.256 52.5765 93.2228 52.6597 93.2228H203.41C203.493 93.2228 203.573 93.256 203.632 93.3151C203.691 93.3742 203.724 93.4543 203.724 93.5379C203.724 93.6215 203.691 93.7016 203.632 93.7607C203.573 93.8198 203.493 93.853 203.41 93.853Z" fill="#D1D3D4"/>
<path d="M203.41 126.095H52.6597C52.5765 126.095 52.4967 126.062 52.4378 126.003C52.379 125.944 52.3459 125.864 52.3459 125.78C52.3459 125.697 52.379 125.617 52.4378 125.558C52.4967 125.498 52.5765 125.465 52.6597 125.465H203.41C203.493 125.465 203.573 125.498 203.632 125.558C203.691 125.617 203.724 125.697 203.724 125.78C203.724 125.864 203.691 125.944 203.632 126.003C203.573 126.062 203.493 126.095 203.41 126.095Z" fill="#D1D3D4"/>
<path d="M212.013 159.409H38.9866C38.9034 159.409 38.8236 159.376 38.7647 159.317C38.7059 159.258 38.6729 159.178 38.6729 159.094C38.6745 159.011 38.708 158.932 38.7665 158.873C38.825 158.815 38.9039 158.781 38.9866 158.779H212.013C212.096 158.781 212.175 158.815 212.234 158.873C212.292 158.932 212.326 159.011 212.327 159.094C212.327 159.178 212.294 159.258 212.235 159.317C212.176 159.376 212.097 159.409 212.013 159.409Z" fill="#D1D3D4"/>
<path d="M66.2578 156.031V162.926C66.2578 165.542 73.6874 167.659 82.8552 167.659C92.0229 167.659 99.4588 165.542 99.4588 162.926V156.031H66.2578Z" fill="#428CFF"/>
<path d="M82.8301 167.974C74.5157 167.974 65.9189 166.083 65.9189 162.932V156.031C65.9189 155.948 65.952 155.868 66.0108 155.808C66.0697 155.749 66.1495 155.716 66.2327 155.716H99.4588C99.542 155.716 99.6218 155.749 99.6807 155.808C99.7395 155.868 99.7726 155.948 99.7726 156.031V162.926C99.7726 166.083 91.1695 167.974 82.8301 167.974ZM66.5464 156.346V162.926C66.5464 165.062 73.0913 167.338 82.8301 167.338C92.5689 167.338 99.1451 165.056 99.1451 162.926V156.346H66.5464Z" fill="#231F20"/>
<path d="M82.8552 160.758C92.0217 160.758 99.4526 158.642 99.4526 156.031C99.4526 153.421 92.0217 151.305 82.8552 151.305C73.6887 151.305 66.2578 153.421 66.2578 156.031C66.2578 158.642 73.6887 160.758 82.8552 160.758Z" fill="#231F20"/>
<path d="M82.83 161.035C73.3673 161.035 65.9565 158.836 65.9565 156.031C65.9565 153.227 73.3673 150.99 82.83 150.99C92.2927 150.99 99.7098 153.189 99.7098 156.031C99.7098 158.874 92.3178 161.035 82.83 161.035ZM82.83 151.582C73.0661 151.582 66.515 153.889 66.515 156.038C66.515 158.187 73.0724 160.487 82.83 160.487C92.5876 160.487 99.145 158.187 99.145 156.038C99.145 153.889 92.619 151.576 82.83 151.576V151.582Z" fill="#231F20"/>
<path d="M62.863 145.488V152.389C62.863 154.998 70.2926 157.115 79.4604 157.115C88.6282 157.115 96.0641 154.998 96.0641 152.389V145.488H62.863Z" fill="white"/>
<path d="M79.4602 157.43C71.1458 157.43 62.5491 155.54 62.5491 152.389V145.488C62.5491 145.404 62.5821 145.324 62.641 145.265C62.6998 145.206 62.7796 145.172 62.8628 145.172H96.0639C96.1471 145.172 96.2269 145.206 96.2857 145.265C96.3446 145.324 96.3776 145.404 96.3776 145.488V152.389C96.3776 155.546 87.7746 157.43 79.4602 157.43ZM63.1766 145.803V152.389C63.1766 154.519 69.7214 156.8 79.4602 156.8C89.199 156.8 95.7752 154.519 95.7752 152.389V145.803H63.1766Z" fill="#231F20"/>
<path d="M79.4604 150.214C88.6269 150.214 96.0578 148.098 96.0578 145.488C96.0578 142.877 88.6269 140.761 79.4604 140.761C70.2939 140.761 62.863 142.877 62.863 145.488C62.863 148.098 70.2939 150.214 79.4604 150.214Z" fill="white"/>
<path d="M79.4602 150.529C71.1458 150.529 62.5491 148.639 62.5491 145.488C62.5491 142.336 71.1458 140.446 79.4602 140.446C87.7746 140.446 96.4027 142.336 96.4027 145.488C96.4027 148.639 87.7746 150.529 79.4602 150.529ZM79.4602 141.076C69.7214 141.076 63.1766 143.357 63.1766 145.488C63.1766 147.618 69.7214 149.899 79.4602 149.899C89.199 149.899 95.7752 147.618 95.7752 145.488C95.7752 143.357 89.2053 141.076 79.4602 141.076Z" fill="#231F20"/>
<path d="M79.4604 148.67C72.3885 148.67 65.2224 147.58 65.2224 145.519C65.2224 143.458 72.3885 142.336 79.4604 142.336C86.5323 142.336 93.6984 143.427 93.6984 145.519C93.6984 147.611 86.5386 148.67 79.4604 148.67ZM79.4604 142.935C71.0268 142.935 65.8499 144.422 65.8499 145.488C65.8499 146.553 71.0268 148.008 79.4604 148.008C87.894 148.008 93.0709 146.521 93.0709 145.488C93.0709 144.454 87.894 142.935 79.4604 142.935Z" fill="#D1D3D4"/>
<path d="M105.238 157.273V164.168C105.238 166.783 112.674 168.901 121.842 168.901C131.009 168.901 138.439 166.783 138.439 164.168V157.273H105.238Z" fill="white"/>
<path d="M121.842 169.216C113.527 169.216 104.899 167.325 104.899 164.174V157.273C104.899 157.189 104.932 157.109 104.991 157.05C105.05 156.991 105.13 156.958 105.213 156.958H138.414C138.497 156.958 138.577 156.991 138.636 157.05C138.695 157.109 138.728 157.189 138.728 157.273V164.168C138.753 167.325 130.156 169.216 121.842 169.216ZM105.527 157.588V164.168C105.527 166.298 112.071 168.579 121.842 168.579C131.612 168.579 138.157 166.291 138.157 164.168V157.588H105.527Z" fill="#231F20"/>
<path d="M121.842 162C131.008 162 138.439 159.883 138.439 157.273C138.439 154.662 131.008 152.546 121.842 152.546C112.675 152.546 105.244 154.662 105.244 157.273C105.244 159.883 112.675 162 121.842 162Z" fill="#231F20"/>
<path d="M121.842 162.277C112.379 162.277 104.962 160.077 104.962 157.273C104.962 154.468 112.379 152.263 121.842 152.263C131.304 152.263 138.715 154.462 138.715 157.273C138.715 160.084 131.304 162.277 121.842 162.277ZM121.842 152.823C112.078 152.823 105.527 155.124 105.527 157.279C105.527 159.435 112.084 161.729 121.842 161.729C131.599 161.729 138.157 159.428 138.157 157.279C138.157 155.13 131.606 152.817 121.842 152.817V152.823Z" fill="#231F20"/>
<path d="M107.93 147.309V154.241C107.93 156.851 115.36 158.968 124.527 158.968C133.695 158.968 141.131 156.851 141.131 154.241V147.309H107.93Z" fill="white"/>
<path d="M124.515 159.283C116.2 159.283 107.572 157.393 107.572 154.242V147.309C107.572 147.225 107.605 147.145 107.664 147.086C107.723 147.027 107.803 146.994 107.886 146.994H141.087C141.17 146.994 141.25 147.027 141.309 147.086C141.368 147.145 141.401 147.225 141.401 147.309V154.242C141.432 157.393 132.829 159.283 124.515 159.283ZM108.2 147.656V154.242C108.2 156.372 114.745 158.653 124.515 158.653C134.285 158.653 140.83 156.372 140.83 154.242V147.624L108.2 147.656Z" fill="#231F20"/>
<path d="M124.515 152.036C133.681 152.036 141.112 149.919 141.112 147.309C141.112 144.698 133.681 142.582 124.515 142.582C115.348 142.582 107.917 144.698 107.917 147.309C107.917 149.919 115.348 152.036 124.515 152.036Z" fill="#231F20"/>
<path d="M124.515 152.313C115.052 152.313 107.641 150.113 107.641 147.309C107.641 144.504 115.052 142.305 124.515 142.305C133.978 142.305 141.395 144.498 141.395 147.309C141.395 150.12 133.978 152.313 124.515 152.313ZM124.515 142.86C114.751 142.86 108.2 145.16 108.2 147.309C108.2 149.458 114.757 151.758 124.515 151.758C134.272 151.758 140.83 149.458 140.83 147.309C140.83 145.16 134.285 142.86 124.515 142.86Z" fill="#231F20"/>
<path d="M105.238 137.307V144.24C105.238 146.849 112.674 148.966 121.842 148.966C131.009 148.966 138.439 146.849 138.439 144.24V137.307H105.238Z" fill="white"/>
<path d="M121.842 149.25C113.527 149.25 104.899 147.359 104.899 144.208V137.276C104.901 137.193 104.934 137.114 104.993 137.055C105.051 136.996 105.13 136.962 105.213 136.961H138.414C138.497 136.961 138.577 136.994 138.636 137.053C138.695 137.112 138.728 137.192 138.728 137.276V144.208C138.753 147.366 130.156 149.25 121.842 149.25ZM105.527 137.622V144.208C105.527 146.338 112.071 148.62 121.842 148.62C131.612 148.62 138.157 146.338 138.157 144.208V137.622H105.527Z" fill="#231F20"/>
<path d="M121.842 142.034C131.008 142.034 138.439 139.918 138.439 137.307C138.439 134.697 131.008 132.581 121.842 132.581C112.675 132.581 105.244 134.697 105.244 137.307C105.244 139.918 112.675 142.034 121.842 142.034Z" fill="#231F20"/>
<path d="M121.842 142.318C112.379 142.318 104.962 140.118 104.962 137.276C104.962 134.433 112.379 132.272 121.842 132.272C131.304 132.272 138.715 134.471 138.715 137.276C138.715 140.08 131.304 142.318 121.842 142.318ZM121.842 132.864C112.078 132.864 105.527 135.164 105.527 137.314C105.527 139.463 112.084 141.763 121.842 141.763C131.599 141.763 138.157 139.463 138.157 137.314C138.157 135.164 131.606 132.858 121.842 132.858V132.864Z" fill="#231F20"/>
<path d="M110.591 129.133V136.028C110.591 138.643 118.026 140.761 127.194 140.761C136.362 140.761 143.792 138.643 143.792 136.028V129.133H110.591Z" fill="white"/>
<path d="M127.194 141.076C118.88 141.076 110.252 139.185 110.252 136.034V129.133C110.252 129.05 110.285 128.97 110.344 128.91C110.402 128.851 110.482 128.818 110.565 128.818H143.767C143.85 128.818 143.93 128.851 143.988 128.91C144.047 128.97 144.08 129.05 144.08 129.133V136.028C144.105 139.185 135.54 141.076 127.194 141.076ZM110.879 129.448V136.028C110.879 138.158 117.424 140.44 127.194 140.44C136.964 140.44 143.509 138.152 143.509 136.028V129.448H110.879Z" fill="#231F20"/>
<path d="M127.194 133.86C136.361 133.86 143.792 131.744 143.792 129.133C143.792 126.523 136.361 124.406 127.194 124.406C118.028 124.406 110.597 126.523 110.597 129.133C110.597 131.744 118.028 133.86 127.194 133.86Z" fill="#231F20"/>
<path d="M127.194 134.137C117.725 134.137 110.314 131.938 110.314 129.133C110.314 126.329 117.725 124.123 127.194 124.123C136.663 124.123 144.068 126.322 144.068 129.133C144.068 131.944 136.657 134.137 127.194 134.137ZM127.194 124.684C117.424 124.684 110.879 126.99 110.879 129.139C110.879 131.288 117.437 133.589 127.194 133.589C136.952 133.589 143.509 131.288 143.509 129.139C143.509 126.99 136.958 124.677 127.194 124.677V124.684Z" fill="#231F20"/>
<path d="M106.951 120.953V127.854C106.951 130.463 114.381 132.58 123.549 132.58C132.716 132.58 140.152 130.463 140.152 127.854V120.953H106.951Z" fill="white"/>
<path d="M123.549 132.896C115.234 132.896 106.637 131.005 106.637 127.854V120.953C106.637 120.869 106.671 120.789 106.729 120.73C106.788 120.671 106.868 120.638 106.951 120.638H140.152C140.235 120.638 140.315 120.671 140.374 120.73C140.433 120.789 140.466 120.869 140.466 120.953V127.854C140.466 131.011 131.863 132.896 123.549 132.896ZM107.265 121.268V127.854C107.265 129.984 113.81 132.265 123.549 132.265C133.287 132.265 139.864 129.984 139.864 127.854V121.268H107.265Z" fill="#231F20"/>
<path d="M123.549 125.68C132.715 125.68 140.146 123.563 140.146 120.953C140.146 118.342 132.715 116.226 123.549 116.226C114.382 116.226 106.951 118.342 106.951 120.953C106.951 123.563 114.382 125.68 123.549 125.68Z" fill="white"/>
<path d="M123.549 125.995C115.234 125.995 106.637 124.104 106.637 120.953C106.637 117.802 115.234 115.911 123.549 115.911C131.863 115.911 140.491 117.802 140.491 120.953C140.491 124.104 131.863 125.995 123.549 125.995ZM123.549 116.541C113.81 116.541 107.265 118.823 107.265 120.953C107.265 123.083 113.81 125.364 123.549 125.364C133.287 125.364 139.864 123.083 139.864 120.953C139.864 118.823 133.294 116.541 123.549 116.541Z" fill="#231F20"/>
<path d="M123.549 124.135C116.477 124.135 109.311 123.045 109.311 120.984C109.311 118.923 116.477 117.802 123.549 117.802C130.62 117.802 137.787 118.892 137.787 120.984C137.787 123.077 130.627 124.135 123.549 124.135ZM123.549 118.4C115.115 118.4 109.938 119.888 109.938 120.953C109.938 122.018 115.115 123.474 123.549 123.474C131.982 123.474 137.159 121.986 137.159 120.953C137.159 119.919 131.982 118.4 123.549 118.4Z" fill="#D1D3D4"/>
<path d="M188.651 153.473V160.374C188.651 162.983 181.222 165.1 172.054 165.1C162.886 165.1 155.45 162.983 155.45 160.374V153.473H188.651Z" fill="white"/>
<path d="M172.054 165.415C163.74 165.415 155.112 163.525 155.112 160.374V153.473C155.112 153.389 155.145 153.309 155.203 153.25C155.262 153.191 155.342 153.157 155.425 153.157H188.626C188.71 153.157 188.789 153.191 188.848 153.25C188.907 153.309 188.94 153.389 188.94 153.473V160.374C188.965 163.525 180.368 165.415 172.054 165.415ZM155.739 153.788V160.374C155.739 162.504 162.284 164.785 172.054 164.785C181.824 164.785 188.338 162.504 188.338 160.374V153.788H155.739Z" fill="#428CFF"/>
<path d="M172.054 158.199C181.221 158.199 188.652 156.083 188.652 153.473C188.652 150.862 181.221 148.746 172.054 148.746C162.888 148.746 155.457 150.862 155.457 153.473C155.457 156.083 162.888 158.199 172.054 158.199Z" fill="#231F20"/>
<path d="M172.054 158.477C162.592 158.477 155.175 156.277 155.175 153.473C155.175 150.668 162.592 148.462 172.054 148.462C181.517 148.462 188.928 150.662 188.928 153.473C188.928 156.283 181.517 158.477 172.054 158.477ZM172.054 149.023C162.29 149.023 155.739 151.324 155.739 153.473C155.739 155.622 162.303 157.922 172.054 157.922C181.806 157.922 188.369 155.622 188.369 153.473C188.369 151.324 181.818 149.023 172.054 149.023Z" fill="#231F20"/>
<path d="M183.305 145.292V152.193C183.305 154.802 175.869 156.92 166.702 156.92C157.534 156.92 150.104 154.802 150.104 152.193V145.292H183.305Z" fill="white"/>
<path d="M166.702 157.235C158.387 157.235 149.759 155.344 149.759 152.193V145.292C149.759 145.209 149.792 145.129 149.851 145.069C149.91 145.01 149.99 144.977 150.073 144.977H183.274C183.357 144.977 183.437 145.01 183.496 145.069C183.555 145.129 183.588 145.209 183.588 145.292V152.193C183.619 155.351 175.016 157.235 166.702 157.235ZM150.387 145.607V152.193C150.387 154.323 156.931 156.605 166.702 156.605C176.472 156.605 183.017 154.323 183.017 152.193V145.607H150.387Z" fill="#231F20"/>
<path d="M166.702 150.019C175.868 150.019 183.299 147.903 183.299 145.292C183.299 142.682 175.868 140.566 166.702 140.566C157.535 140.566 150.104 142.682 150.104 145.292C150.104 147.903 157.535 150.019 166.702 150.019Z" fill="#231F20"/>
<path d="M166.702 150.303C157.239 150.303 149.828 148.103 149.828 145.292C149.828 142.481 157.239 140.288 166.702 140.288C176.164 140.288 183.581 142.488 183.581 145.292C183.581 148.097 176.164 150.303 166.702 150.303ZM166.702 140.849C156.938 140.849 150.387 143.149 150.387 145.299C150.387 147.448 156.944 149.748 166.702 149.748C176.459 149.748 183.017 147.448 183.017 145.299C183.017 143.149 176.466 140.843 166.702 140.843V140.849Z" fill="#231F20"/>
<path d="M186.945 137.112V144.044C186.945 146.66 179.515 148.777 170.347 148.777C161.18 148.777 153.738 146.628 153.738 144.013V137.08L186.945 137.112Z" fill="#428CFF"/>
<path d="M170.341 149.055C162.033 149.055 153.43 147.164 153.43 144.013V137.08C153.43 136.997 153.463 136.917 153.522 136.858C153.581 136.798 153.66 136.765 153.744 136.765H186.945C187.028 136.765 187.108 136.798 187.167 136.858C187.225 136.917 187.258 136.997 187.258 137.08V144.013C187.258 147.17 178.655 149.055 170.341 149.055ZM154.057 137.427V144.013C154.057 146.143 160.602 148.424 170.341 148.424C180.08 148.424 186.656 146.143 186.656 144.013V137.427H154.057Z" fill="#231F20"/>
<path d="M170.347 141.839C179.514 141.839 186.945 139.722 186.945 137.112C186.945 134.501 179.514 132.385 170.347 132.385C161.181 132.385 153.75 134.501 153.75 137.112C153.75 139.722 161.181 141.839 170.347 141.839Z" fill="#231F20"/>
<path d="M170.341 142.122C160.879 142.122 153.468 139.923 153.468 137.08C153.468 134.238 160.879 132.076 170.341 132.076C179.804 132.076 187.221 134.276 187.221 137.08C187.221 139.885 179.81 142.122 170.341 142.122ZM170.341 132.669C160.577 132.669 154.026 134.969 154.026 137.118C154.026 139.267 160.584 141.574 170.341 141.574C180.099 141.574 186.656 139.274 186.656 137.118C186.656 134.963 180.093 132.663 170.341 132.663V132.669Z" fill="#231F20"/>
<path d="M187.528 127.854V134.748C187.528 137.364 180.099 139.481 170.931 139.481C161.763 139.481 154.327 137.364 154.327 134.748V127.854H187.528Z" fill="white"/>
<path d="M170.931 139.797C162.617 139.797 153.989 137.906 153.989 134.755V127.854C153.989 127.77 154.022 127.69 154.08 127.631C154.139 127.572 154.219 127.539 154.302 127.539H187.503C187.587 127.539 187.666 127.572 187.725 127.631C187.784 127.69 187.817 127.77 187.817 127.854V134.749C187.842 137.906 179.239 139.797 170.931 139.797ZM154.616 128.169V134.749C154.616 136.885 161.161 139.16 170.931 139.16C180.701 139.16 187.246 136.879 187.246 134.749V128.169H154.616Z" fill="#231F20"/>
<path d="M170.931 132.58C180.098 132.58 187.529 130.464 187.529 127.854C187.529 125.243 180.098 123.127 170.931 123.127C161.765 123.127 154.334 125.243 154.334 127.854C154.334 130.464 161.765 132.58 170.931 132.58Z" fill="#231F20"/>
<path d="M170.931 132.858C161.462 132.858 154.051 130.658 154.051 127.854C154.051 125.049 161.462 122.844 170.931 122.844C180.4 122.844 187.805 125.043 187.805 127.854C187.805 130.665 180.394 132.858 170.931 132.858ZM170.931 123.404C161.161 123.404 154.616 125.711 154.616 127.86C154.616 130.009 161.173 132.31 170.931 132.31C180.689 132.31 187.246 130.009 187.246 127.86C187.246 125.711 180.72 123.398 170.931 123.398V123.404Z" fill="#231F20"/>
<path d="M184.272 118.823V125.717C184.272 128.333 176.836 130.45 167.668 130.45C158.5 130.45 151.071 128.333 151.071 125.717V118.823H184.272Z" fill="white"/>
<path d="M167.668 130.766C159.354 130.766 150.757 128.875 150.757 125.724V118.823C150.757 118.739 150.79 118.659 150.849 118.6C150.908 118.541 150.987 118.508 151.071 118.508H184.272C184.355 118.508 184.435 118.541 184.493 118.6C184.552 118.659 184.585 118.739 184.585 118.823V125.717C184.585 128.875 175.982 130.766 167.668 130.766ZM151.384 119.138V125.717C151.384 127.854 157.929 130.129 167.668 130.129C177.407 130.129 183.983 127.848 183.983 125.717V119.138H151.384Z" fill="#231F20"/>
<path d="M167.668 123.549C176.834 123.549 184.265 121.433 184.265 118.823C184.265 116.212 176.834 114.096 167.668 114.096C158.501 114.096 151.071 116.212 151.071 118.823C151.071 121.433 158.501 123.549 167.668 123.549Z" fill="#231F20"/>
<path d="M167.668 123.827C158.205 123.827 150.795 121.627 150.795 118.823C150.795 116.018 158.205 113.781 167.668 113.781C177.131 113.781 184.548 115.98 184.548 118.823C184.548 121.665 177.131 123.827 167.668 123.827ZM167.668 114.373C157.904 114.373 151.353 116.68 151.353 118.829C151.353 120.978 157.911 123.278 167.668 123.278C177.426 123.278 183.983 120.978 183.983 118.829C183.983 116.68 177.432 114.367 167.668 114.367V114.373Z" fill="#231F20"/>
<path d="M188.651 109.558V116.428C188.651 119.043 181.222 121.161 172.054 121.161C162.886 121.161 155.45 119.043 155.45 116.428V109.558H188.651Z" fill="#428CFF"/>
<path d="M172.054 121.501C163.74 121.501 155.112 119.61 155.112 116.459V109.558C155.112 109.475 155.145 109.395 155.203 109.335C155.262 109.276 155.342 109.243 155.425 109.243H188.626C188.71 109.243 188.789 109.276 188.848 109.335C188.907 109.395 188.94 109.475 188.94 109.558V116.428C188.965 119.61 180.368 121.501 172.054 121.501ZM155.739 109.873V116.428C155.739 118.564 162.284 120.839 172.054 120.839C181.824 120.839 188.338 118.558 188.338 116.428V109.873H155.739Z" fill="#231F20"/>
<path d="M172.054 114.285C181.221 114.285 188.652 112.169 188.652 109.558C188.652 106.948 181.221 104.832 172.054 104.832C162.888 104.832 155.457 106.948 155.457 109.558C155.457 112.169 162.888 114.285 172.054 114.285Z" fill="white"/>
<path d="M172.054 114.6C163.74 114.6 155.112 112.709 155.112 109.558C155.112 106.407 163.715 104.516 172.054 104.516C180.394 104.516 188.965 106.407 188.965 109.558C188.965 112.709 180.368 114.6 172.054 114.6ZM172.054 105.147C162.309 105.147 155.739 107.434 155.739 109.558C155.739 111.682 162.284 113.97 172.054 113.97C181.824 113.97 188.338 111.688 188.338 109.558C188.338 107.428 181.793 105.14 172.054 105.14V105.147Z" fill="#231F20"/>
<path d="M172.054 112.741C164.976 112.741 157.816 111.644 157.816 109.558C157.816 107.472 164.976 106.407 172.054 106.407C179.133 106.407 186.292 107.497 186.292 109.558C186.292 111.619 179.126 112.741 172.054 112.741ZM172.054 107.006C163.621 107.006 158.444 108.493 158.444 109.527C158.444 110.56 163.621 112.079 172.054 112.079C180.488 112.079 185.665 110.592 185.665 109.527C185.665 108.462 180.488 107.006 172.054 107.006Z" fill="#D1D3D4"/>
<path d="M94.2441 87.0023C94.2441 87.0023 92.2612 84.8533 92.1357 84.0781C92.0102 83.3029 91.8596 80.6181 91.207 81.0908C90.5544 81.5635 90.7113 83.4857 90.7113 83.4857C90.7113 83.4857 88.0068 80.2337 87.2098 80.9647C86.4129 81.6958 86.0866 82.3449 86.0364 83.763C85.9862 85.181 92.7883 91.124 92.7883 91.124" fill="white"/>
<path d="M92.7884 91.4077C92.7126 91.4085 92.639 91.3816 92.5814 91.3321C91.4268 90.3237 85.6789 85.2126 85.7228 83.7189C85.6856 83.1517 85.7795 82.5834 85.9972 82.0586C86.2149 81.5339 86.5505 81.0668 86.9778 80.6938C87.056 80.6294 87.1462 80.5812 87.2432 80.552C87.3401 80.5228 87.4419 80.5131 87.5425 80.5237C88.3583 80.5867 89.607 81.8156 90.36 82.6349C90.3914 82.0047 90.5294 81.1728 90.9875 80.8325C91.062 80.7739 91.1509 80.7366 91.2447 80.7244C91.3386 80.7122 91.434 80.7256 91.5209 80.7632C91.979 80.9648 92.1484 81.7967 92.3492 83.4731C92.3492 83.7 92.3931 83.8954 92.4182 84.0277C92.4935 84.5004 93.6732 85.9184 94.445 86.7882C94.5029 86.8481 94.5353 86.9284 94.5353 87.0119C94.5353 87.0954 94.5029 87.1756 94.445 87.2356C94.4159 87.2651 94.3812 87.2886 94.3429 87.3046C94.3047 87.3206 94.2637 87.3288 94.2223 87.3288C94.1809 87.3288 94.1398 87.3206 94.1016 87.3046C94.0634 87.2886 94.0287 87.2651 93.9995 87.2356C93.6607 86.8638 91.9476 84.9731 91.8158 84.1475C91.8158 84.0088 91.7719 83.8009 91.7405 83.5677C91.6909 82.8349 91.5518 82.111 91.3264 81.4123C91.0189 81.7463 90.9561 82.7925 91.0063 83.4794C91.0137 83.5454 90.9993 83.6121 90.9653 83.669C90.9313 83.7259 90.8795 83.7701 90.8181 83.7946C90.7562 83.8221 90.687 83.8285 90.6212 83.8125C90.5554 83.7965 90.4967 83.7592 90.4541 83.7063C89.6635 82.7547 88.1575 81.2232 87.5049 81.1854C87.4296 81.1854 87.417 81.1854 87.4045 81.1854C86.6452 81.8535 86.3817 82.4774 86.3377 83.7568C86.3064 84.5508 89.6886 87.9919 92.983 90.872C93.0122 90.9008 93.0354 90.9351 93.0512 90.973C93.0671 91.0109 93.0752 91.0515 93.0752 91.0926C93.0752 91.1337 93.0671 91.1744 93.0512 91.2122C93.0354 91.2501 93.0122 91.2844 92.983 91.3132C92.9332 91.3694 92.8632 91.4034 92.7884 91.4077Z" fill="#231F20"/>
<path d="M90.523 86.5423C90.4616 86.5433 90.4013 86.5259 90.3499 86.4922C90.2984 86.4585 90.2582 86.4101 90.2344 86.3532C90.0142 85.8669 89.9189 85.3328 89.9573 84.8C89.9956 84.2671 90.1664 83.7524 90.454 83.3029C90.504 83.2367 90.5772 83.1921 90.6588 83.1781C90.7403 83.164 90.8242 83.1816 90.8933 83.2273C90.9595 83.2775 91.0037 83.3516 91.0165 83.4339C91.0294 83.5162 91.01 83.6003 90.9623 83.6684C90.7394 84.0287 90.6085 84.4386 90.5811 84.8619C90.5537 85.2851 90.6308 85.7086 90.8054 86.0948C90.8231 86.1324 90.8331 86.1731 90.8347 86.2146C90.8364 86.2561 90.8297 86.2975 90.815 86.3363C90.8004 86.3751 90.7781 86.4106 90.7495 86.4406C90.7209 86.4706 90.6866 86.4944 90.6486 86.5108C90.6092 86.5294 90.5665 86.5401 90.523 86.5423Z" fill="#231F20"/>
<path d="M126.128 149.735C126.077 150.541 126.077 151.35 126.128 152.155C126.228 152.464 126.843 154.002 126.755 154.468C126.667 154.935 121.547 163.096 120.267 161.804C118.987 160.512 122.262 154.557 122.262 153.939C122.262 153.321 121.854 149.723 121.854 149.723L126.128 149.735Z" fill="white"/>
<path d="M120.605 162.264C120.502 162.266 120.399 162.247 120.303 162.208C120.207 162.169 120.12 162.111 120.047 162.037C119.049 161.035 120.116 158.3 121.39 155.344C121.607 154.891 121.794 154.424 121.948 153.945C121.948 153.479 121.685 151.015 121.54 149.773C121.536 149.729 121.541 149.684 121.555 149.642C121.568 149.6 121.591 149.561 121.62 149.528C121.65 149.494 121.686 149.468 121.726 149.449C121.766 149.431 121.81 149.421 121.854 149.42H126.127C126.17 149.42 126.212 149.429 126.251 149.446C126.29 149.464 126.325 149.489 126.353 149.521C126.384 149.551 126.408 149.588 126.423 149.628C126.438 149.668 126.444 149.711 126.441 149.754C126.386 150.52 126.386 151.289 126.441 152.055C126.441 152.099 126.485 152.181 126.516 152.282C126.906 153.347 127.144 154.134 127.062 154.531C126.931 155.111 122.839 161.653 120.894 162.22C120.8 162.247 120.703 162.262 120.605 162.264ZM122.206 150.051C122.312 150.983 122.576 153.435 122.576 153.952C122.443 154.526 122.231 155.08 121.948 155.597C121.22 157.292 119.696 160.815 120.474 161.59C120.474 161.59 120.536 161.653 120.674 161.622C122.262 161.256 126.259 154.922 126.447 154.38C126.37 153.727 126.195 153.09 125.927 152.489C125.891 152.41 125.862 152.328 125.839 152.244C125.771 151.512 125.771 150.776 125.839 150.044L122.206 150.051Z" fill="#231F20"/>
<path d="M114.832 150.29C114.832 150.29 114.625 153.731 114.832 154.5C115.04 155.269 115.397 156.145 115.291 156.611C115.184 157.077 108.896 162.624 108.589 161.653C108.281 160.682 110.842 156.731 110.892 156.031C110.942 155.332 110.076 149.937 110.076 149.937L114.832 150.29Z" fill="white"/>
<path d="M108.79 162.075C108.684 162.082 108.578 162.052 108.491 161.992C108.403 161.931 108.338 161.843 108.306 161.741C108.093 161.067 108.777 159.661 109.769 157.758C110.092 157.197 110.367 156.608 110.591 156C110.628 155.515 110.126 152.137 109.775 149.981C109.769 149.934 109.773 149.886 109.787 149.84C109.801 149.794 109.825 149.752 109.856 149.716C109.888 149.682 109.927 149.656 109.971 149.638C110.014 149.621 110.061 149.613 110.107 149.616L114.87 149.975C114.952 149.981 115.029 150.02 115.083 150.082C115.137 150.145 115.164 150.226 115.159 150.309C115.052 151.679 115.052 153.055 115.159 154.424C115.215 154.626 115.278 154.834 115.341 155.054C115.558 155.572 115.655 156.132 115.623 156.693C115.504 157.235 110.082 162.031 108.834 162.088L108.79 162.075ZM110.44 150.271C110.653 151.595 111.243 155.42 111.199 156.05C110.995 156.756 110.695 157.43 110.308 158.054C109.756 159.107 108.865 160.821 108.865 161.432C109.919 161.193 114.688 157.059 114.996 156.498C114.966 156.066 114.87 155.641 114.713 155.237C114.642 155.023 114.579 154.813 114.525 154.607C114.411 153.275 114.411 151.937 114.525 150.605L110.44 150.271Z" fill="#231F20"/>
<path d="M155.858 89.3279C155.858 89.3279 157.917 87.2545 158.073 86.4856C158.23 85.7167 158.488 83.0382 159.121 83.5361C159.755 84.034 159.523 85.9499 159.523 85.9499C159.523 85.9499 162.353 82.7988 163.112 83.5361C163.872 84.2735 164.185 84.9604 164.185 86.3722C164.185 87.7839 157.157 93.4685 157.157 93.4685" fill="white"/>
<path d="M157.157 93.7395C157.111 93.7401 157.065 93.7302 157.022 93.7106C156.98 93.6909 156.943 93.6621 156.913 93.6261C156.86 93.5606 156.836 93.477 156.844 93.3934C156.852 93.3097 156.893 93.2326 156.957 93.1786C160.358 90.4371 163.859 87.1221 163.859 86.3281C163.859 85.0676 163.621 84.4374 162.886 83.7189C162.886 83.7189 162.886 83.7189 162.792 83.7189C162.133 83.7189 160.577 85.2189 159.743 86.139C159.699 86.1898 159.639 86.2246 159.573 86.2383C159.508 86.2519 159.439 86.2436 159.379 86.2146C159.319 86.1864 159.27 86.1403 159.237 86.0828C159.205 86.0253 159.19 85.9591 159.197 85.8932C159.278 85.2063 159.26 84.1475 158.965 83.8134C158.713 84.5028 158.544 85.2201 158.463 85.9499C158.425 86.1894 158.394 86.3911 158.369 86.5297C158.205 87.349 156.423 89.1704 156.066 89.5296C156.036 89.5592 156.002 89.5826 155.963 89.5986C155.925 89.6146 155.884 89.6228 155.843 89.6228C155.801 89.6228 155.76 89.6146 155.722 89.5986C155.684 89.5826 155.649 89.5592 155.62 89.5296C155.562 89.4697 155.53 89.3894 155.53 89.3059C155.53 89.2224 155.562 89.1421 155.62 89.0822C156.448 88.2503 157.659 86.8701 157.754 86.4037C157.754 86.2713 157.81 86.0823 157.841 85.8554C158.105 84.1853 158.306 83.3345 158.77 83.1769C158.858 83.1405 158.955 83.1294 159.049 83.145C159.143 83.1606 159.231 83.2022 159.303 83.2651C159.755 83.6244 159.862 84.4437 159.868 85.0928C160.653 84.305 161.952 83.1202 162.767 83.0887C162.868 83.0807 162.969 83.0939 163.064 83.1276C163.159 83.1612 163.246 83.2145 163.319 83.2841C163.737 83.6702 164.06 84.1483 164.262 84.6809C164.465 85.2134 164.542 85.7859 164.487 86.3533C164.487 87.8469 158.532 92.7312 157.339 93.6954C157.286 93.7305 157.221 93.746 157.157 93.7395Z" fill="#231F20"/>
<path d="M117.882 111.31L137.962 112.363C137.962 112.363 139.217 117.884 135.779 120.625C132.34 123.367 125.412 126.203 124.998 128.188C124.584 130.173 127.075 147.548 126.805 151.658L120.637 153.126C120.637 153.126 115.316 132.385 115.448 128.963C115.579 125.541 117.361 123.921 117.361 123.921C117.361 123.921 112.448 128.15 112.31 129.108C112.172 130.066 115.837 152.074 115.837 152.074C115.837 152.074 109.323 152.332 109.191 151.916C109.06 151.5 103.036 131.169 104.535 126.782C106.035 122.396 117.882 111.31 117.882 111.31Z" fill="#231F20"/>
<path d="M120.612 153.429C120.55 153.429 120.49 153.409 120.441 153.371C120.392 153.334 120.357 153.281 120.342 153.221C120.128 152.376 115.014 132.423 115.146 128.976C115.184 127.795 115.45 126.632 115.931 125.554C114.142 127.186 112.617 128.749 112.561 129.165C112.479 129.908 114.625 143.25 116.087 152.036C116.093 152.076 116.09 152.117 116.079 152.156C116.069 152.195 116.05 152.231 116.025 152.263C115.973 152.32 115.901 152.356 115.824 152.363C109.103 152.628 108.972 152.231 108.921 152.017C108.871 151.803 102.709 131.219 104.265 126.701C105.771 122.289 117.223 111.575 117.713 111.102C117.739 111.077 117.771 111.058 117.806 111.046C117.84 111.035 117.877 111.03 117.913 111.033L137.993 112.086C138.054 112.09 138.111 112.114 138.158 112.154C138.204 112.194 138.236 112.247 138.251 112.306C138.301 112.539 139.474 118.029 135.973 120.846C134.331 122.061 132.605 123.159 130.809 124.129C128.204 125.629 125.512 127.179 125.293 128.263C125.098 129.196 125.607 133.999 126.096 138.637C126.654 144.007 127.238 149.559 127.1 151.702C127.096 151.761 127.073 151.818 127.035 151.863C126.996 151.909 126.944 151.94 126.887 151.954L120.718 153.422L120.612 153.429ZM117.342 123.657C117.382 123.657 117.42 123.665 117.456 123.681C117.492 123.698 117.524 123.721 117.549 123.751C117.599 123.804 117.627 123.874 117.627 123.946C117.627 124.019 117.599 124.089 117.549 124.142C117.549 124.142 115.855 125.743 115.723 128.995C115.604 132.146 120.223 150.422 120.838 152.817L126.535 151.462C126.629 149.212 126.046 143.635 125.525 138.694C124.985 133.583 124.521 129.171 124.728 128.156C125.004 126.82 127.558 125.352 130.52 123.644C132.289 122.687 133.99 121.607 135.609 120.411C138.483 118.098 137.906 113.642 137.73 112.634L117.97 111.594C116.897 112.602 106.154 122.806 104.761 126.883C103.33 131.055 108.946 150.29 109.386 151.758C109.925 151.916 112.787 151.916 115.472 151.821C114.92 148.469 111.864 130.022 112.002 129.083C112.14 128.144 116.307 124.444 117.142 123.726C117.197 123.678 117.269 123.653 117.342 123.657Z" fill="#231F20"/>
<path d="M138.853 112.867C138.853 112.867 137.661 104.145 136.532 99.6322C136.532 99.6322 139.87 105.481 143.861 105.808C147.852 106.136 159.605 92.5358 159.605 92.5358L156.317 87.8469C156.317 87.8469 148.09 94.3698 143.346 96.4307C142.091 93.5505 134.831 83.1958 130.639 81.1224C126.448 79.0489 121.089 80.6812 118.221 83.0131C116.834 84.1601 113.201 86.2588 106.926 92.0506C102.406 90.4462 98.1294 88.2191 94.2192 85.4332L90.9875 90.0275C90.9875 90.0275 104.165 102.254 107.786 100.433L116.169 96.2038L115.724 112.678L138.853 112.867Z" fill="#428CFF"/>
<path d="M121.81 67.812C121.81 67.812 118.409 77.5868 116.891 79.6287L125.72 82.9501L127.376 67.1943L121.81 67.812Z" fill="white"/>
<path d="M125.719 83.2651C125.682 83.2712 125.644 83.2712 125.607 83.2651L116.778 79.9438C116.733 79.9254 116.693 79.8971 116.66 79.8612C116.628 79.8252 116.603 79.7824 116.589 79.7359C116.574 79.6892 116.57 79.6392 116.579 79.5907C116.587 79.5421 116.608 79.4967 116.64 79.4586C118.108 77.4796 121.478 67.8245 121.515 67.7237C121.534 67.668 121.568 67.6189 121.614 67.5821C121.659 67.5452 121.714 67.5222 121.772 67.5157L127.345 66.8855C127.391 66.8794 127.439 66.8842 127.484 66.8995C127.528 66.9148 127.569 66.9402 127.602 66.9737C127.635 67.0074 127.66 67.0481 127.675 67.0929C127.69 67.1376 127.695 67.1852 127.69 67.2321L126.027 82.9878C126.023 83.0355 126.008 83.0816 125.983 83.1222C125.958 83.1629 125.924 83.1967 125.883 83.221C125.833 83.2504 125.777 83.2657 125.719 83.2651ZM117.374 79.4838L125.45 82.5215L127.025 67.5472L122.042 68.1144C121.572 69.4379 118.867 77.0574 117.374 79.4712V79.4838Z" fill="#231F20"/>
<path d="M123.53 79.7799L122.532 84.1474C122.532 84.1474 122.005 86.8889 124.91 86.6368C125.768 86.5536 126.596 86.2798 127.336 85.835C128.075 85.3902 128.706 84.7858 129.184 84.0655L130.351 76.1246C130.401 75.7906 130.878 72.5071 131.474 69.6269C128.136 68.9337 125.199 68.0829 125.199 68.0829C125.469 68.4736 124.264 68.2972 124.264 68.3035C123.729 68.1939 123.18 68.1726 122.639 68.2404C122.08 70.1311 121.17 72.1605 120.85 74.089C120.641 75.243 120.538 76.4138 120.543 77.5867C120.581 79.8114 123.53 79.7799 123.53 79.7799Z" fill="white"/>
<path d="M124.546 86.9394C124.216 86.9622 123.885 86.9132 123.575 86.7957C123.265 86.6782 122.984 86.4951 122.752 86.2588C122.523 85.9533 122.36 85.6033 122.274 85.2311C122.187 84.8589 122.179 84.4726 122.25 84.0971L123.172 80.0573C122.011 79.9691 120.285 79.383 120.254 77.5868C120.246 76.3991 120.349 75.2133 120.562 74.0449C120.82 72.7377 121.192 71.4556 121.672 70.2131C121.911 69.5325 122.155 68.8329 122.356 68.1586C122.371 68.1061 122.401 68.0591 122.443 68.0233C122.484 67.9875 122.534 67.9645 122.588 67.9569C123.161 67.885 123.741 67.9041 124.308 68.0136C124.516 68.0347 124.727 68.0347 124.935 68.0136C124.943 67.9684 124.96 67.9254 124.985 67.8876C125.019 67.8408 125.065 67.805 125.119 67.7848C125.173 67.7646 125.231 67.7609 125.287 67.7741C125.318 67.7741 128.255 68.6312 131.562 69.3119C131.6 69.3176 131.636 69.3319 131.667 69.3537C131.699 69.3756 131.725 69.4044 131.744 69.4379C131.765 69.469 131.779 69.5039 131.787 69.5407C131.795 69.5774 131.795 69.6154 131.788 69.6522C131.267 72.1731 130.84 74.984 130.677 76.0869C130.677 76.0869 130.677 76.0869 129.497 84.0782C129.494 84.1146 129.481 84.1496 129.46 84.179C128.963 84.9417 128.3 85.5817 127.522 86.051C126.744 86.5203 125.871 86.8068 124.967 86.889L124.546 86.9394ZM122.808 84.2168C122.759 84.5044 122.766 84.7989 122.831 85.0835C122.896 85.368 123.016 85.6368 123.185 85.8743C123.411 86.0821 123.683 86.2333 123.978 86.3154C124.274 86.3976 124.585 86.4084 124.885 86.347C125.688 86.2674 126.463 86.0131 127.158 85.6016C127.853 85.1902 128.45 84.6316 128.907 83.9647C129.02 83.2337 130.056 76.1625 130.068 76.0869C130.231 74.965 130.639 72.3055 131.135 69.8476C128.55 69.3056 126.228 68.6754 125.418 68.4485C125.318 68.5556 125.067 68.7006 124.22 68.5871C123.77 68.4956 123.31 68.468 122.852 68.5052C122.657 69.1354 122.432 69.7657 122.224 70.3959C121.748 71.6099 121.374 72.8622 121.108 74.1395C120.9 75.2745 120.799 76.4265 120.806 77.5805C120.844 79.4712 123.398 79.4712 123.511 79.4712C123.554 79.4694 123.598 79.4783 123.637 79.4969C123.676 79.5156 123.71 79.5435 123.737 79.5783C123.763 79.6127 123.782 79.6527 123.79 79.6953C123.799 79.738 123.798 79.782 123.787 79.8241L122.789 84.1916L122.808 84.2168Z" fill="#231F20"/>
<path d="M125.174 73.005C125.174 73.005 123.291 74.8957 123.58 75.3621C123.869 75.8284 124.873 75.7402 124.873 75.7402" fill="white"/>
<path d="M124.703 76.0931C124.333 76.0931 123.605 76.0301 123.316 75.5574C123.028 75.0848 123.599 74.2024 124.948 72.8159C124.977 72.7862 125.011 72.7624 125.049 72.7459C125.087 72.7295 125.128 72.7207 125.169 72.7201C125.211 72.7195 125.252 72.7271 125.29 72.7425C125.329 72.7579 125.364 72.7807 125.393 72.8096C125.423 72.8386 125.447 72.8732 125.463 72.9113C125.479 72.9495 125.488 72.9905 125.489 73.0321C125.489 73.0736 125.482 73.1149 125.466 73.1535C125.451 73.1921 125.428 73.2273 125.4 73.2571C124.767 73.8287 124.248 74.5151 123.868 75.2801C123.963 75.4125 124.496 75.4755 124.854 75.4566C124.935 75.453 125.016 75.481 125.077 75.535C125.139 75.5889 125.178 75.6646 125.186 75.7465C125.19 75.7884 125.185 75.8306 125.172 75.8705C125.159 75.9105 125.138 75.9474 125.11 75.9791C125.083 76.0108 125.049 76.0367 125.012 76.0552C124.974 76.0737 124.933 76.0844 124.891 76.0868L124.703 76.0931Z" fill="#231F20"/>
<path d="M123.785 72.2406C123.844 71.9828 123.78 71.7479 123.641 71.7159C123.503 71.6839 123.343 71.867 123.284 72.1249C123.225 72.3827 123.289 72.6176 123.427 72.6495C123.566 72.6815 123.726 72.4984 123.785 72.2406Z" fill="#231F20"/>
<path d="M127.341 73.2502C127.4 72.9924 127.335 72.7575 127.197 72.7256C127.059 72.6936 126.898 72.8767 126.839 73.1345C126.78 73.3923 126.845 73.6272 126.983 73.6592C127.122 73.6911 127.282 73.508 127.341 73.2502Z" fill="#231F20"/>
<path d="M124.346 71.0514L124.816 70.1438L125.149 71.2152L127.954 72.0534L128.732 70.8875L128.65 72.4631L130.125 72.6143C130.125 72.6143 127.345 79.5469 127.452 83.8954C127.452 83.8954 135.785 86.2084 137.943 84.7147C137.943 84.7147 135.578 76.1499 135.684 72.7404C135.791 69.3308 135.59 66.4003 131.537 64.8247C127.483 63.2491 124.559 63.747 122.432 65.6062C121.8 66.1847 121.293 66.8867 120.941 67.6692C120.589 68.4517 120.4 69.298 120.386 70.1564C120.386 70.1564 123.498 70.9946 124.346 71.0514Z" fill="white"/>
<path d="M135.446 85.5466C132.189 85.5466 127.621 84.2861 127.37 84.2231C127.303 84.2085 127.243 84.1709 127.201 84.1169C127.159 84.0628 127.136 83.9956 127.138 83.9269C127.044 80.1455 129.096 74.4734 129.648 72.9105L128.581 72.8033C128.502 72.7953 128.429 72.7567 128.377 72.6955C128.326 72.6344 128.3 72.5555 128.305 72.4756V72.0345L128.161 72.255C128.124 72.3105 128.071 72.3528 128.009 72.3755C127.947 72.3982 127.879 72.4002 127.816 72.3811L125.011 71.5429C124.961 71.5281 124.916 71.5015 124.878 71.4653C124.841 71.4291 124.813 71.3843 124.797 71.3349L124.691 70.9946L124.571 71.2215C124.544 71.2779 124.499 71.3245 124.444 71.3549C124.389 71.3854 124.326 71.3982 124.264 71.3916C123.404 71.3097 120.38 70.503 120.254 70.4652C120.188 70.4485 120.13 70.4104 120.088 70.3568C120.046 70.3032 120.023 70.2372 120.022 70.169C120.032 69.2631 120.229 68.3691 120.6 67.5435C120.972 66.718 121.51 65.9789 122.181 65.3729C124.54 63.3058 127.709 63.0222 131.593 64.5347C135.804 66.1733 136.055 69.2299 135.942 72.7277C135.835 76.0742 138.169 84.5445 138.194 84.6264C138.21 84.6902 138.206 84.7571 138.184 84.8187C138.161 84.8804 138.121 84.934 138.069 84.9731C137.263 85.3998 136.356 85.5981 135.446 85.5466ZM127.759 83.6559C130.118 84.2861 135.735 85.4835 137.579 84.5634C137.19 83.1391 135.27 75.8725 135.371 72.7088C135.477 69.3119 135.251 66.5893 131.424 65.1019C127.715 63.6587 124.841 63.8919 122.639 65.8267C121.492 66.8801 120.799 68.3402 120.706 69.898C121.384 70.0744 123.323 70.5786 124.17 70.711L124.54 69.9988C124.567 69.9434 124.611 69.8976 124.665 69.8672C124.718 69.8369 124.78 69.8234 124.841 69.8286C124.904 69.8342 124.963 69.8581 125.012 69.8973C125.061 69.9365 125.098 69.9893 125.117 70.0492L125.4 70.9631L127.822 71.6815L128.449 70.711C128.487 70.6537 128.542 70.6103 128.607 70.5876C128.672 70.5648 128.742 70.5639 128.807 70.5849C128.873 70.6057 128.93 70.6479 128.97 70.7049C129.01 70.7619 129.03 70.8305 129.027 70.9L128.958 72.1605L130.137 72.2802C130.185 72.2868 130.23 72.3038 130.27 72.3299C130.31 72.3561 130.344 72.3907 130.369 72.4315C130.393 72.4752 130.405 72.5239 130.405 72.5733C130.405 72.6227 130.393 72.6714 130.369 72.7151C130.388 72.8222 127.759 79.4586 127.759 83.6559Z" fill="#231F20"/>
<path d="M122.049 76.1876C122.049 76.1876 124.176 78.7526 126.278 76.0679L122.049 76.1876Z" fill="white"/>
<path d="M124.189 77.612C123.731 77.5772 123.285 77.4511 122.877 77.2412C122.469 77.0312 122.106 76.7417 121.81 76.3893C121.778 76.3588 121.753 76.3219 121.736 76.2808C121.719 76.2398 121.711 76.1957 121.712 76.1513C121.714 76.1069 121.724 76.0633 121.743 76.0234C121.763 75.9834 121.79 75.948 121.824 75.9194C121.858 75.8908 121.897 75.8697 121.94 75.8575C121.982 75.8452 122.027 75.8422 122.07 75.8485C122.114 75.8548 122.156 75.8703 122.193 75.894C122.231 75.9177 122.263 75.949 122.287 75.986C122.767 76.545 123.439 76.9008 124.17 76.9818H124.245C124.61 76.946 124.962 76.8276 125.275 76.6355C125.588 76.4433 125.854 76.1825 126.052 75.8725C126.104 75.8065 126.179 75.7638 126.262 75.7537C126.345 75.7437 126.429 75.7672 126.495 75.819C126.56 75.8708 126.603 75.9467 126.613 76.03C126.623 76.1134 126.6 76.1973 126.548 76.2633C126.292 76.6487 125.953 76.9705 125.555 77.2043C125.157 77.438 124.711 77.5774 124.251 77.612H124.189Z" fill="#231F20"/>
<path d="M123.53 79.78C123.53 79.78 125.858 79.7233 126.849 79.1119C126.849 79.1119 125.418 82.1686 122.764 83.1265L123.53 79.78Z" fill="#231F20"/>
<path d="M122.764 83.4416C122.688 83.4424 122.615 83.4155 122.557 83.366C122.514 83.3285 122.482 83.28 122.464 83.2256C122.446 83.1712 122.444 83.113 122.456 83.0572L123.222 79.7107C123.238 79.6423 123.276 79.5814 123.331 79.5379C123.386 79.4943 123.453 79.4708 123.523 79.4712C123.523 79.4712 125.776 79.4019 126.661 78.8409C126.718 78.8063 126.785 78.7912 126.852 78.7978C126.919 78.8043 126.982 78.8322 127.032 78.8773C127.082 78.9225 127.116 78.9824 127.129 79.0485C127.143 79.1146 127.135 79.1832 127.106 79.2443C127.05 79.3703 125.594 82.3954 122.846 83.4164C122.82 83.4284 122.792 83.4369 122.764 83.4416ZM123.78 80.0888L123.203 82.6097C124.412 81.9297 125.424 80.9459 126.14 79.7548C125.366 79.9432 124.576 80.0551 123.78 80.0888Z" fill="#231F20"/>
<path d="M159.605 88.9814C159.559 88.9931 159.512 88.9931 159.467 88.9814C159.43 88.9632 159.396 88.9379 159.369 88.9068C159.342 88.8758 159.321 88.8396 159.307 88.8003C159.294 88.7611 159.288 88.7196 159.291 88.6782C159.293 88.6368 159.304 88.5964 159.322 88.5591C159.514 88.1803 159.608 87.7595 159.597 87.3348C159.586 86.9101 159.47 86.4948 159.26 86.1264C159.215 86.0562 159.199 85.971 159.217 85.8895C159.235 85.8079 159.284 85.7368 159.354 85.6916C159.388 85.6684 159.427 85.6525 159.467 85.6447C159.508 85.637 159.55 85.6375 159.59 85.6463C159.631 85.6552 159.669 85.6721 159.703 85.6961C159.736 85.7201 159.765 85.7507 159.787 85.7861C160.059 86.2444 160.212 86.7647 160.229 87.2982C160.247 87.8318 160.129 88.3611 159.887 88.8364C159.858 88.8841 159.816 88.9227 159.766 88.9483C159.716 88.9738 159.66 88.9853 159.605 88.9814Z" fill="#231F20"/>
<path d="M137.755 101.258C137.755 101.258 133.99 96.4369 131.593 93.4434L137.755 101.258Z" fill="white"/>
<path d="M137.755 101.573C137.707 101.574 137.659 101.564 137.616 101.543C137.572 101.522 137.534 101.492 137.504 101.454C137.467 101.41 133.739 96.6009 131.348 93.6451C131.296 93.5799 131.272 93.4965 131.28 93.4131C131.289 93.3298 131.331 93.2534 131.395 93.2008C131.46 93.1481 131.543 93.1235 131.626 93.1324C131.709 93.1413 131.785 93.1829 131.838 93.248C134.216 96.2101 137.962 101.019 138 101.069C138.051 101.135 138.073 101.219 138.062 101.301C138.052 101.384 138.009 101.459 137.943 101.51C137.889 101.552 137.823 101.574 137.755 101.573Z" fill="#231F20"/>
<path d="M115.786 110.957C115.745 110.956 115.705 110.946 115.667 110.929C115.63 110.911 115.596 110.887 115.568 110.856C115.54 110.826 115.518 110.79 115.504 110.751C115.49 110.712 115.483 110.671 115.485 110.63L115.987 90.5568C115.987 90.4732 116.02 90.3931 116.079 90.334C116.138 90.2749 116.218 90.2417 116.301 90.2417C116.384 90.2417 116.464 90.2749 116.523 90.334C116.582 90.3931 116.615 90.4732 116.615 90.5568L116.113 110.63C116.113 110.673 116.106 110.716 116.09 110.756C116.073 110.796 116.049 110.833 116.019 110.863C115.988 110.894 115.952 110.918 115.912 110.934C115.872 110.95 115.829 110.958 115.786 110.957Z" fill="#231F20"/>
<path d="M153.58 65.2091C165.707 65.2091 175.537 55.3362 175.537 43.1574C175.537 30.9786 165.707 21.1057 153.58 21.1057C141.454 21.1057 131.624 30.9786 131.624 43.1574C131.624 55.3362 141.454 65.2091 153.58 65.2091Z" fill="#428CFF"/>
<path d="M161.111 36.5715L163.74 33.3825C162.763 32.2954 161.561 31.4352 160.22 30.8616C158.76 30.2279 157.176 29.936 155.588 30.008C154 30.0801 152.448 30.5142 151.052 31.2775C148.065 32.7649 146.333 35.3236 145.354 38.4495C145.034 39.4642 145.04 39.4642 143.961 39.4705H140.98V42.4389H144.676V43.9514H140.987V46.9324H145.009C146.264 51.8986 148.969 55.3397 154.189 56.1905C156.038 56.5585 157.952 56.4099 159.722 55.7609C161.492 55.1119 163.051 53.9874 164.229 52.5099L161.613 49.4092C160.427 50.6319 159.172 51.6717 157.477 51.9301C156.667 52.1011 155.83 52.1048 155.018 51.9412C154.205 51.7777 153.435 51.4501 152.752 50.9785C151.418 49.9657 150.477 48.5169 150.092 46.882H159.567V43.9073H149.69V42.3885H159.567V39.4264H150.155C150.857 37.1765 152.081 35.4244 154.309 34.6493C156.944 33.7228 159.184 34.5358 161.111 36.5715Z" fill="white"/>
<path d="M153.581 62.1273C149.845 62.1273 146.193 61.0147 143.087 58.9303C139.981 56.8458 137.56 53.8831 136.131 50.4169C134.701 46.9506 134.327 43.1363 135.056 39.4565C135.785 35.7768 137.583 32.3966 140.225 29.7437C142.866 27.0907 146.232 25.284 149.896 24.552C153.56 23.8201 157.357 24.1957 160.809 25.6315C164.26 27.0673 167.21 29.4987 169.285 32.6183C171.361 35.7379 172.468 39.4055 172.468 43.1574C172.46 48.186 170.467 53.0062 166.927 56.5619C163.387 60.1177 158.587 62.1189 153.581 62.1273ZM153.581 24.8177C149.969 24.8177 146.439 25.8933 143.436 27.9085C140.433 29.9237 138.092 32.788 136.71 36.1391C135.328 39.4902 134.967 43.1777 135.671 46.7353C136.376 50.2928 138.115 53.5606 140.669 56.1255C143.222 58.6903 146.476 60.437 150.018 61.1447C153.56 61.8523 157.232 61.4891 160.569 60.101C163.905 58.7129 166.757 56.3623 168.763 53.3464C170.77 50.3304 171.841 46.7846 171.841 43.1574C171.834 38.2955 169.908 33.6346 166.485 30.1967C163.062 26.7588 158.422 24.8244 153.581 24.8177Z" fill="white"/>
<path d="M97.4194 65.2091C109.545 65.2091 119.376 55.3362 119.376 43.1574C119.376 30.9786 109.545 21.1057 97.4194 21.1057C85.2933 21.1057 75.4631 30.9786 75.4631 43.1574C75.4631 55.3362 85.2933 65.2091 97.4194 65.2091Z" fill="#428CFF"/>
<path d="M95.2609 50.1907C95.6978 49.3583 95.963 48.4459 96.0406 47.5081C96.1183 46.5703 96.0067 45.6264 95.7127 44.7329H99.2016V41.8213C97.8273 41.8213 96.4907 41.7709 95.1604 41.8213C94.8927 41.864 94.6186 41.8085 94.3882 41.665C94.1578 41.5216 93.9864 41.2996 93.9054 41.0398C92.8136 38.7521 93.1023 36.4454 94.8028 34.7375C96.5033 33.0296 99.1953 32.683 100.984 34.9014C101.577 35.7083 102.122 36.5501 102.615 37.4223C102.778 37.687 102.898 37.9706 103.048 38.2605L106.813 36.6093C106.324 35.727 105.884 34.8636 105.389 34.0443C104.51 32.4686 103.204 31.1751 101.624 30.3133C98.5301 28.7566 95.5432 29.1348 92.8387 31.1704C91.5115 32.1006 90.4736 33.3891 89.8451 34.887C89.2166 36.3848 89.0231 38.0307 89.287 39.6344C89.3749 40.3402 89.582 41.0335 89.7514 41.7898H87.0469V44.7077C88.3584 44.7077 89.6322 44.7077 90.906 44.7077C91.0503 44.7077 91.2825 44.7456 91.3264 44.8401C91.7155 45.6342 92.1484 46.4472 91.9163 47.361C91.6711 48.4278 91.1735 49.4195 90.4657 50.2522C89.7579 51.0849 88.8607 51.7339 87.8501 52.1444L87.5865 52.2831L88.9231 55.9258C89.1427 55.8439 89.3184 55.7935 89.4753 55.7241C90.1844 55.3964 90.8746 55.0246 91.5963 54.7347C93.347 54.0351 95.1291 53.7893 96.9237 54.596C97.3755 54.7977 97.8336 54.9805 98.2917 55.1758C101.015 56.3418 103.431 55.5036 105.822 54.0603C105.2 52.7747 104.636 51.5142 104.065 50.2537C103.751 50.4428 103.5 50.613 103.236 50.7516C102.076 51.3819 100.852 51.8419 99.5404 51.3819C98.2289 50.9218 96.8233 50.2537 95.2609 50.1907Z" fill="white"/>
<path d="M97.4193 62.1273C93.6839 62.126 90.0328 61.0124 86.9276 58.9272C83.8223 56.842 81.4024 53.8789 79.9738 50.4125C78.5452 46.9461 78.172 43.1321 78.9015 39.4527C79.631 35.7733 81.4304 32.3938 84.0722 29.7414C86.7139 27.0891 90.0794 25.283 93.7431 24.5515C97.4068 23.8201 101.204 24.1961 104.655 25.6321C108.106 27.0681 111.055 29.4995 113.131 32.6189C115.206 35.7384 116.313 39.4058 116.313 43.1574C116.307 48.1876 114.314 53.0097 110.772 56.566C107.23 60.1223 102.428 62.1223 97.4193 62.1273ZM97.4193 24.8177C93.8081 24.819 90.2782 25.8956 87.2762 27.9116C84.2741 29.9275 81.9346 32.7922 80.5535 36.1435C79.1724 39.4947 78.8117 43.182 79.517 46.7391C80.2223 50.2963 81.9619 53.5635 84.5159 56.1277C87.0699 58.6919 90.3235 60.438 93.8655 61.1451C97.4075 61.8522 101.079 61.4887 104.415 60.1004C107.751 58.7121 110.603 56.3615 112.609 53.3457C114.615 50.3299 115.686 46.7844 115.686 43.1574C115.681 38.2939 113.755 33.631 110.33 30.1926C106.905 26.7542 102.262 24.8211 97.4193 24.8177Z" fill="white"/>
<path d="M57.4289 100.432C69.555 100.432 79.3851 90.5596 79.3851 78.3808C79.3851 66.202 69.555 56.3291 57.4289 56.3291C45.3028 56.3291 35.4727 66.202 35.4727 78.3808C35.4727 90.5596 45.3028 100.432 57.4289 100.432Z" fill="#428CFF"/>
<path d="M62.9006 78.1918C61.903 77.6509 60.8789 77.1608 59.8321 76.7234C59.7284 76.6931 59.6385 76.6274 59.5778 76.5377C59.5171 76.448 59.4894 76.3398 59.4996 76.2318C59.4996 74.4231 59.4996 72.6143 59.4996 70.8056C59.5079 70.7272 59.5205 70.6494 59.5372 70.5724C60.8485 70.9898 62.0263 71.7488 62.9508 72.7719C63.8356 71.7446 64.6639 70.7677 65.511 69.7783C64.0269 68.1062 62.0471 66.9573 59.8635 66.5011C59.5498 66.4318 59.4494 66.3183 59.4619 65.9969C59.4619 65.3667 59.4619 64.7365 59.4619 64.0243H56.1989V66.2616C55.3463 66.5077 54.5083 66.8023 53.6889 67.1439C51.3797 68.2909 49.9239 70.0871 49.8047 72.7719C49.6855 75.4566 50.953 77.2654 53.1493 78.5385C54.0441 79.0235 54.9636 79.461 55.904 79.8493C56.009 79.8774 56.1005 79.9425 56.1615 80.0328C56.2226 80.1231 56.2493 80.2325 56.2366 80.3409C56.2366 81.8409 56.2366 83.3282 56.2366 84.8218V86.744C54.5082 86.4038 52.9225 85.5471 51.6872 84.2861L48.876 87.3743C50.8441 89.3495 53.4354 90.575 56.2052 90.8405V92.7312H59.4996V90.7208L59.9702 90.601C60.9628 90.3675 61.9119 89.976 62.7814 89.4414C66.9166 86.8953 67.1425 80.7317 62.9006 78.1918ZM56.1801 75.0407C55.6429 74.913 55.1615 74.6135 54.8084 74.1873C54.4553 73.761 54.2496 73.2311 54.2223 72.6773C54.2368 72.1426 54.4427 71.6309 54.8023 71.2362C55.1619 70.8415 55.651 70.5902 56.1801 70.5283V75.0407ZM59.5309 86.4604C59.5309 86.3722 59.4996 86.284 59.4996 86.1957V81.4879C60.0653 81.6189 60.5693 81.9404 60.9278 82.3991C61.2863 82.8577 61.4776 83.4258 61.4699 84.0088C61.4734 84.5804 61.2835 85.1362 60.9312 85.5851C60.5789 86.034 60.0851 86.3493 59.5309 86.4793V86.4604Z" fill="white"/>
<path d="M57.4288 97.3507C53.6931 97.3507 50.0414 96.2381 46.9353 94.1537C43.8292 92.0692 41.4083 89.1065 39.9788 85.6403C38.5492 82.174 38.1752 78.3597 38.9039 74.6799C39.6327 71.0001 41.4316 67.62 44.0731 64.967C46.7146 62.3141 50.0801 60.5074 53.744 59.7754C57.4078 59.0434 61.2055 59.4191 64.6568 60.8549C68.1081 62.2907 71.0579 64.7221 73.1334 67.8417C75.2088 70.9613 76.3165 74.6289 76.3165 78.3808C76.3099 83.4099 74.3178 88.2311 70.7771 91.7872C67.2364 95.3433 62.4361 97.344 57.4288 97.3507ZM57.4288 60.0411C53.8172 60.0411 50.2868 61.1167 47.2839 63.1319C44.281 65.1471 41.9406 68.0114 40.5585 71.3625C39.1764 74.7136 38.8148 78.4011 39.5194 81.9587C40.224 85.5162 41.9631 88.784 44.5168 91.3489C47.0706 93.9137 50.3242 95.6604 53.8664 96.3681C57.4085 97.0757 61.08 96.7125 64.4167 95.3244C67.7533 93.9363 70.6052 91.5857 72.6116 88.5698C74.6181 85.5538 75.689 82.008 75.689 78.3808C75.684 73.5183 73.7586 68.8565 70.3352 65.4182C66.9118 61.9799 62.2702 60.0461 57.4288 60.0411Z" fill="white"/>
<path d="M193.571 100.432C205.697 100.432 215.527 90.5596 215.527 78.3808C215.527 66.202 205.697 56.3291 193.571 56.3291C181.445 56.3291 171.615 66.202 171.615 78.3808C171.615 90.5596 181.445 100.432 193.571 100.432Z" fill="#428CFF"/>
<path d="M203.517 67.0116L197.117 78.9481H202.388V81.7652H196.313V83.1769H202.381V85.9941H196.301V92.6682H190.879V86.0445H184.78V83.2211H190.848V81.7652H184.786V78.9607H190.051C187.892 74.9462 185.778 71.0009 183.632 66.9864H186.217C187.177 66.9864 188.137 66.9864 189.097 66.9864C189.205 66.9705 189.314 66.9953 189.405 67.0558C189.495 67.1163 189.56 67.2083 189.587 67.3141C190.842 70.2551 192.107 73.1794 193.383 76.0869C193.433 76.2066 193.496 76.3137 193.596 76.5154C193.709 76.2822 193.785 76.1436 193.847 75.9986C195.127 73.1122 196.41 70.2278 197.694 67.3456C197.763 67.2006 197.945 67.0053 198.077 66.999C199.865 67.0053 201.647 67.0116 203.517 67.0116Z" fill="white"/>
<path d="M193.571 97.3507C189.835 97.3507 186.184 96.2381 183.078 94.1537C179.972 92.0692 177.551 89.1065 176.121 85.6403C174.692 82.174 174.317 78.3597 175.046 74.6799C175.775 71.0001 177.574 67.62 180.215 64.967C182.857 62.3141 186.222 60.5074 189.886 59.7754C193.55 59.0434 197.348 59.4191 200.799 60.8549C204.25 62.2907 207.2 64.7221 209.276 67.8417C211.351 70.9613 212.459 74.6289 212.459 78.3808C212.452 83.4099 210.46 88.2311 206.919 91.7872C203.379 95.3433 198.578 97.344 193.571 97.3507ZM193.571 60.0411C189.96 60.0411 186.429 61.1167 183.426 63.1319C180.423 65.1471 178.083 68.0114 176.701 71.3625C175.319 74.7136 174.957 78.4011 175.662 81.9587C176.366 85.5162 178.105 88.784 180.659 91.3489C183.213 93.9137 186.467 95.6604 190.009 96.3681C193.551 97.0757 197.222 96.7125 200.559 95.3244C203.896 93.9363 206.747 91.5857 208.754 88.5698C210.76 85.5538 211.831 82.008 211.831 78.3808C211.826 73.5183 209.901 68.8565 206.478 65.4182C203.054 61.9799 198.413 60.0461 193.571 60.0411Z" fill="white"/>
</svg>
