<svg width="1439" height="208" viewBox="0 0 1439 208" fill="none" xmlns="http://www.w3.org/2000/svg">
<g clip-path="url(#clip0)">
<rect width="1444" height="208" fill="url(#paint0_linear)"/>
<g clip-path="url(#clip1)">
<path d="M64.4421 29.5171C63.9408 30.3147 63.0232 30.7086 62.1032 30.5202L61.3548 30.3669L59.1478 41.1433C59.0371 41.6841 58.5083 42.0331 57.9675 41.9223L52.0895 40.7185L53.4939 33.8609C54.0471 31.1599 52.2997 28.5125 49.5988 27.9594C46.8978 27.4062 44.2504 29.1536 43.6973 31.8545L42.2929 38.7122L36.4149 37.5084C35.8741 37.3976 35.5251 36.8689 35.6358 36.3281L37.8428 25.5518L37.0933 25.3983C36.1734 25.2099 35.4843 24.4879 35.337 23.5575C35.1896 22.627 35.6223 21.7255 36.4399 21.2621L50.1004 12.7702C51.7775 11.7285 53.9769 12.1789 55.1085 13.7958L64.3532 27.0052C64.8989 27.7202 64.9433 28.7194 64.4421 29.5171Z" fill="white" fill-opacity="0.27"/>
</g>
<g clip-path="url(#clip2)">
<path d="M488.327 83.4018C487.826 84.1995 486.908 84.5934 485.988 84.405L485.24 84.2517L483.033 95.028C482.922 95.5688 482.393 95.9178 481.852 95.8071L475.974 94.6033L477.379 87.7456C477.932 85.0447 476.184 82.3973 473.484 81.8441C470.783 81.291 468.135 83.0383 467.582 85.7393L466.178 92.597L460.3 91.3932C459.759 91.2824 459.41 90.7536 459.521 90.2129L461.728 79.4365L460.978 79.283C460.058 79.0946 459.369 78.3727 459.222 77.4422C459.074 76.5117 459.507 75.6102 460.325 75.1468L473.985 66.6549C475.662 65.6132 477.862 66.0636 478.993 67.6806L488.238 80.8899C488.784 81.605 488.828 82.6042 488.327 83.4018Z" fill="white" fill-opacity="0.27"/>
</g>
<g clip-path="url(#clip3)">
<path d="M52.9714 186.434C53.0517 187.372 52.5564 188.239 51.7085 188.643L51.0187 188.971L55.7476 198.903C55.9849 199.402 55.773 199.999 55.2746 200.236L49.8573 202.815L46.848 196.495C45.6628 194.006 42.6734 192.945 40.1842 194.13C37.6949 195.315 36.634 198.305 37.8192 200.794L40.8285 207.114L35.4112 209.693C34.9128 209.931 34.3157 209.719 34.0784 209.221L29.3496 199.289L28.6589 199.618C27.8111 200.021 26.8261 199.86 26.1481 199.206C25.4701 198.552 25.2725 197.572 25.6461 196.709L31.4362 181.703C32.1476 179.861 34.1746 178.896 36.0517 179.505L51.3875 184.482C52.2538 184.724 52.8911 185.495 52.9714 186.434Z" fill="white" fill-opacity="0.27"/>
</g>
<g clip-path="url(#clip4)">
<path d="M103.885 61.7108C103.143 62.2908 102.146 62.3495 101.345 61.8598L100.693 61.4614L94.9566 70.8472C94.6687 71.3182 94.0528 71.4668 93.5818 71.179L88.4623 68.05L92.1127 62.0772C93.5505 59.7248 92.8064 56.6412 90.4539 55.2035C88.1015 53.7657 85.0179 54.5099 83.5802 56.8623L79.9297 62.8351L74.8102 59.7061C74.3392 59.4183 74.1906 58.8024 74.4784 58.3314L80.2149 48.9456L79.5621 48.5466C78.7609 48.057 78.358 47.1438 78.5355 46.2186C78.713 45.2935 79.4262 44.5925 80.3526 44.4344L96.0855 41.0879C98.0167 40.6779 99.9323 41.8486 100.447 43.7538L104.655 59.3181C104.925 60.1759 104.628 61.1308 103.885 61.7108Z" fill="white" fill-opacity="0.27"/>
</g>
<g clip-path="url(#clip5)">
<path d="M525.384 46.2098C524.642 46.7898 523.645 46.8485 522.844 46.3588L522.192 45.9604L516.456 55.3462C516.168 55.8172 515.552 55.9659 515.081 55.678L509.961 52.549L513.612 46.5763C515.05 44.2238 514.305 41.1403 511.953 39.7025C509.601 38.2648 506.517 39.0089 505.079 41.3613L501.429 47.3341L496.309 44.2052C495.838 43.9173 495.69 43.3014 495.977 42.8304L501.714 33.4446L501.061 33.0457C500.26 32.556 499.857 31.6429 500.035 30.7177C500.212 29.7925 500.925 29.0915 501.852 28.9335L517.585 25.5869C519.516 25.1769 521.431 26.3477 521.946 28.2528L526.154 43.8171C526.424 44.675 526.127 45.6299 525.384 46.2098Z" fill="white" fill-opacity="0.27"/>
</g>
<g clip-path="url(#clip6)">
<path d="M50.988 65.0495C51.4819 65.8516 51.4296 66.8489 50.854 67.5908L50.3856 68.1944L59.0764 74.9375C59.5126 75.2759 59.5919 75.9045 59.2535 76.3406L55.5755 81.0811L50.0449 76.79C47.8667 75.0999 44.7196 75.4971 43.0295 77.6753C41.3394 79.8536 41.7366 83.0007 43.9148 84.6908L49.4454 88.9818L45.7673 93.7223C45.4289 94.1584 44.8004 94.2377 44.3642 93.8993L35.6734 87.1562L35.2044 87.7607C34.6288 88.5025 33.6766 88.8016 32.7769 88.5224C31.8771 88.2433 31.2597 87.4567 31.2054 86.5185L29.6265 70.5113C29.4335 68.5465 30.8097 66.7727 32.7602 66.4724L48.6955 64.0188C49.5781 63.8454 50.494 64.2473 50.988 65.0495Z" fill="white" fill-opacity="0.27"/>
</g>
<g clip-path="url(#clip7)">
<path d="M447.988 17.0495C448.482 17.8516 448.43 18.8489 447.854 19.5908L447.386 20.1944L456.076 26.9375C456.513 27.2759 456.592 27.9045 456.254 28.3406L452.575 33.0811L447.045 28.79C444.867 27.0999 441.72 27.4971 440.03 29.6753C438.339 31.8536 438.737 35.0007 440.915 36.6908L446.445 40.9818L442.767 45.7223C442.429 46.1584 441.8 46.2377 441.364 45.8993L432.673 39.1562L432.204 39.7607C431.629 40.5025 430.677 40.8016 429.777 40.5224C428.877 40.2433 428.26 39.4567 428.205 38.5185L426.627 22.5113C426.433 20.5465 427.81 18.7727 429.76 18.4724L445.696 16.0188C446.578 15.8454 447.494 16.2473 447.988 17.0495Z" fill="white" fill-opacity="0.27"/>
</g>
<path d="M202.541 130.944C207.17 141.959 198.702 175.065 196.643 175.93C193.462 175.513 165.01 159.676 160.381 148.662C155.752 137.647 161.438 124.751 173.08 119.859C184.722 114.966 197.912 119.929 202.541 130.944Z" fill="#F7FBFF" fill-opacity="0.24"/>
<ellipse cx="181.193" cy="139.164" rx="9.46959" ry="9.54658" transform="rotate(-22.7942 181.193 139.164)" fill="#428CFF"/>
<path d="M597.851 203.193C589.117 211.345 555.125 214.848 553.602 213.215C552.893 210.086 557.913 177.914 566.648 169.761C575.382 161.609 589.448 162.484 598.065 171.716C606.681 180.948 606.586 195.041 597.851 203.193Z" fill="#F7FBFF" fill-opacity="0.24"/>
<ellipse cx="582.756" cy="186.004" rx="9.46959" ry="9.54658" transform="rotate(46.9745 582.756 186.004)" fill="#428CFF"/>
<path d="M1404.47 151.06C1407.34 157.9 1402.08 178.456 1400.8 178.993C1398.83 178.734 1381.16 168.901 1378.29 162.061C1375.41 155.222 1378.94 147.215 1386.17 144.177C1393.4 141.139 1401.59 144.221 1404.47 151.06Z" fill="#F7FBFF" fill-opacity="0.24"/>
<ellipse cx="1391.21" cy="156.164" rx="5.87986" ry="5.92766" transform="rotate(-22.7942 1391.21 156.164)" fill="#428CFF"/>
<path d="M1483.13 75.72C1459.85 102.942 1352.73 118.789 1346.88 113.789C1342.78 103.897 1340.08 0.512313 1363.36 -26.7099C1386.64 -53.9321 1432.32 -53.0703 1465.4 -24.785C1498.47 3.50019 1506.41 48.4978 1483.13 75.72Z" fill="#F7FBFF" fill-opacity="0.24"/>
<ellipse cx="1424.59" cy="22.9264" rx="32.6335" ry="28.6204" transform="rotate(40.538 1424.59 22.9264)" fill="#428CFF"/>
<g clip-path="url(#clip8)">
<path d="M1257.33 83.4018C1256.83 84.1995 1255.91 84.5934 1254.99 84.405L1254.24 84.2517L1252.03 95.028C1251.92 95.5688 1251.39 95.9178 1250.85 95.8071L1244.97 94.6033L1246.38 87.7456C1246.93 85.0447 1245.18 82.3973 1242.48 81.8441C1239.78 81.291 1237.14 83.0383 1236.58 85.7393L1235.18 92.597L1229.3 91.3932C1228.76 91.2824 1228.41 90.7536 1228.52 90.2129L1230.73 79.4365L1229.98 79.283C1229.06 79.0946 1228.37 78.3727 1228.22 77.4422C1228.07 76.5117 1228.51 75.6102 1229.32 75.1468L1242.99 66.6549C1244.66 65.6132 1246.86 66.0636 1247.99 67.6806L1257.24 80.8899C1257.78 81.605 1257.83 82.6042 1257.33 83.4018Z" fill="white" fill-opacity="0.27"/>
</g>
<g clip-path="url(#clip9)">
<path d="M1324.61 91.255C1324.63 91.8111 1324.32 92.3115 1323.81 92.53L1323.4 92.7077L1325.96 98.6826C1326.08 98.9824 1325.95 99.33 1325.65 99.4584L1322.39 100.854L1320.76 97.0522C1320.12 95.5547 1318.38 94.8582 1316.88 95.4997C1315.38 96.1412 1314.68 97.8814 1315.33 99.3789L1316.95 103.181L1313.7 104.577C1313.4 104.705 1313.05 104.566 1312.92 104.267L1310.36 98.2917L1309.95 98.4697C1309.44 98.6881 1308.86 98.5699 1308.47 98.1678C1308.09 97.7657 1307.99 97.1823 1308.23 96.6819L1312 87.9572C1312.47 86.8865 1313.69 86.3641 1314.78 86.7678L1323.72 90.0656C1324.23 90.2288 1324.58 90.6989 1324.61 91.255Z" fill="white" fill-opacity="0.27"/>
</g>
<g clip-path="url(#clip10)">
<path d="M1126.63 188.913C1124.64 192.143 1121.01 193.752 1117.39 193.01L1114.44 192.406L1105.52 235.959C1105.07 238.145 1102.98 239.565 1100.85 239.128L1077.69 234.385L1083.36 206.669C1085.6 195.753 1078.76 185.098 1068.12 182.919C1057.47 180.739 1047 187.847 1044.76 198.763L1039.08 226.479L1015.92 221.736C1013.79 221.299 1012.43 219.171 1012.87 216.986L1021.79 173.432L1018.84 172.827C1015.22 172.085 1012.51 169.184 1011.95 165.43C1011.39 161.676 1013.11 158.027 1016.35 156.14L1070.4 121.582C1077.03 117.343 1085.7 119.117 1090.13 125.623L1126.33 178.773C1128.47 181.649 1128.63 185.682 1126.63 188.913Z" fill="white" fill-opacity="0.27"/>
</g>
<g clip-path="url(#clip11)">
<path d="M1330.37 40.5696C1330.28 41.5072 1329.64 42.27 1328.73 42.5131L1327.99 42.7108L1330.84 53.336C1330.98 53.8692 1330.67 54.4179 1330.13 54.5607L1324.34 56.1137L1322.53 49.3522C1321.81 46.6891 1319.07 45.1031 1316.4 45.8166C1313.74 46.5302 1312.15 49.2773 1312.87 51.9404L1314.68 58.7018L1308.88 60.2548C1308.35 60.3976 1307.8 60.0808 1307.66 59.5476L1304.81 48.9225L1304.07 49.1205C1303.17 49.3635 1302.23 49.0261 1301.68 48.2598C1301.13 47.4936 1301.11 46.4937 1301.64 45.7135L1310.06 32.0076C1311.09 30.3257 1313.26 29.7447 1314.99 30.6846L1329.17 38.3628C1329.98 38.7582 1330.47 39.632 1330.37 40.5696Z" fill="white" fill-opacity="0.27"/>
</g>
<g clip-path="url(#clip12)">
<path d="M948.36 44.6217C948.003 45.2116 947.432 45.5017 946.905 45.3606L946.476 45.2457L944.339 53.223C944.231 53.6233 943.893 53.8809 943.583 53.7979L940.217 52.8959L941.577 47.8194C942.113 45.82 941.291 43.8562 939.744 43.4417C938.197 43.0273 936.503 44.3167 935.967 46.3161L934.607 51.3926L931.24 50.4906C930.931 50.4076 930.766 50.0154 930.874 49.6151L933.011 41.6378L932.582 41.5228C932.055 41.3816 931.706 40.8457 931.691 40.1563C931.677 39.4669 932.002 38.8 932.519 38.4582L941.221 32.1931C942.289 31.4246 943.549 31.7621 944.089 32.9616L948.503 42.7612C948.768 43.2917 948.717 44.0319 948.36 44.6217Z" fill="white" fill-opacity="0.27"/>
</g>
<g clip-path="url(#clip13)">
<path d="M998.802 155.453C999.035 156.102 998.9 156.728 998.458 157.048L998.099 157.308L1002.94 163.997C1003.19 164.333 1003.17 164.758 1002.91 164.946L1000.09 166.99L997.007 162.734C995.793 161.057 993.75 160.457 992.453 161.396C991.156 162.336 991.089 164.464 992.303 166.14L995.385 170.397L992.563 172.441C992.303 172.629 991.895 172.509 991.652 172.173L986.808 165.484L986.448 165.745C986.007 166.065 985.37 165.998 984.826 165.575C984.282 165.151 983.969 164.478 984.03 163.861L984.654 153.157C984.731 151.844 985.787 151.079 987.059 151.416L997.448 154.169C998.027 154.297 998.569 154.804 998.802 155.453Z" fill="white" fill-opacity="0.27"/>
</g>
<g clip-path="url(#clip14)">
<path d="M638.839 186.85C638.341 187.328 637.715 187.46 637.243 187.187L636.858 186.966L632.729 194.118C632.522 194.477 632.128 194.638 631.85 194.478L628.832 192.735L631.46 188.184C632.495 186.391 632.209 184.281 630.822 183.481C629.435 182.68 627.465 183.487 626.43 185.28L623.802 189.831L620.784 188.089C620.506 187.928 620.449 187.507 620.656 187.148L624.786 179.996L624.401 179.773C623.929 179.501 623.73 178.893 623.894 178.223C624.059 177.553 624.545 176.993 625.134 176.797L635.16 172.998C636.391 172.532 637.52 173.184 637.732 174.482L639.459 185.09C639.578 185.671 639.337 186.373 638.839 186.85Z" fill="white" fill-opacity="0.27"/>
</g>
</g>
<defs>
<linearGradient id="paint0_linear" x1="722" y1="0" x2="722" y2="208" gradientUnits="userSpaceOnUse">
<stop stop-color="#377BE6"/>
<stop offset="0.625" stop-color="#3E86F5"/>
<stop offset="1" stop-color="#428CFF"/>
</linearGradient>
<clipPath id="clip0">
<rect width="1444" height="208" fill="white"/>
</clipPath>
<clipPath id="clip1">
<rect width="32" height="32" fill="white" transform="translate(37.5354 7.11523) rotate(11.574)"/>
</clipPath>
<clipPath id="clip2">
<rect width="32" height="32" fill="white" transform="translate(461.42 61) rotate(11.574)"/>
</clipPath>
<clipPath id="clip3">
<rect width="32" height="32" fill="white" transform="translate(18 184.757) rotate(-25.4607)"/>
</clipPath>
<clipPath id="clip4">
<rect width="32" height="32" fill="white" transform="translate(86.1887 31.501) rotate(31.4324)"/>
</clipPath>
<clipPath id="clip5">
<rect width="32" height="32" fill="white" transform="translate(507.688 16) rotate(31.4324)"/>
</clipPath>
<clipPath id="clip6">
<rect width="32" height="32" fill="white" transform="translate(19 79.2824) rotate(-52.1926)"/>
</clipPath>
<clipPath id="clip7">
<rect width="32" height="32" fill="white" transform="translate(416 31.2824) rotate(-52.1926)"/>
</clipPath>
<clipPath id="clip8">
<rect width="32" height="32" fill="white" transform="translate(1230.42 61) rotate(11.574)"/>
</clipPath>
<clipPath id="clip9">
<rect width="18.9089" height="18.9089" fill="white" transform="translate(1304 89.4453) rotate(-23.1878)"/>
</clipPath>
<clipPath id="clip10">
<rect width="126.092" height="129.332" fill="white" transform="translate(1020.95 99) rotate(11.574)"/>
</clipPath>
<clipPath id="clip11">
<rect width="32" height="32" fill="white" transform="translate(1296.29 32.5711) rotate(-15)"/>
</clipPath>
<clipPath id="clip12">
<rect width="18.5867" height="24.0254" fill="white" transform="translate(934.265 27.9827) rotate(15)"/>
</clipPath>
<clipPath id="clip13">
<rect width="18.5867" height="24.0254" fill="white" transform="translate(977 155.901) rotate(-35.9103)"/>
</clipPath>
<clipPath id="clip14">
<rect width="18.5867" height="24.0254" fill="white" transform="translate(629.531 167.13) rotate(30)"/>
</clipPath>
</defs>
</svg>
