<svg width="251" height="189" viewBox="0 0 251 189" fill="none" xmlns="http://www.w3.org/2000/svg">
<path opacity="0.45" d="M125.807 174.513C161.787 174.513 190.954 171.406 190.954 167.573C190.954 163.74 161.787 160.633 125.807 160.633C89.8277 160.633 60.6604 163.74 60.6604 167.573C60.6604 171.406 89.8277 174.513 125.807 174.513Z" fill="#E6E6E6"/>
<path d="M208.098 68.9157C214.01 68.9157 218.803 64.1274 218.803 58.2206C218.803 52.3139 214.01 47.5255 208.098 47.5255C202.185 47.5255 197.393 52.3139 197.393 58.2206C197.393 64.1274 202.185 68.9157 208.098 68.9157Z" fill="#FFD200"/>
<path opacity="0.15" d="M208.098 78.6078C219.368 78.6078 228.504 69.4802 228.504 58.2207C228.504 46.9611 219.368 37.8335 208.098 37.8335C196.828 37.8335 187.691 46.9611 187.691 58.2207C187.691 69.4802 196.828 78.6078 208.098 78.6078Z" fill="#FFD200"/>
<path opacity="0.37" d="M83.9343 78.8272C83.9343 77.143 83.2646 75.5276 82.0725 74.3367C80.8804 73.1457 79.2636 72.4766 77.5777 72.4766C77.2352 72.4781 76.8933 72.5053 76.5549 72.5581C75.8241 71.1976 74.7381 70.0601 73.4124 69.2665C72.0866 68.4729 70.5705 68.0527 69.0249 68.0506H68.7174C68.9188 67.2447 69.0221 66.4175 69.0249 65.5869C69.0586 64.2315 68.8205 62.8831 68.3247 61.6211C67.8288 60.3591 67.0852 59.209 66.1376 58.2385C65.19 57.268 64.0576 56.4967 62.8071 55.9701C61.5566 55.4435 60.2133 55.1722 58.8563 55.1722C57.4992 55.1722 56.1559 55.4435 54.9054 55.9701C53.6549 56.4967 52.5226 57.268 51.575 58.2385C50.6274 59.209 49.8838 60.3591 49.3879 61.6211C48.892 62.8831 48.6539 64.2315 48.6876 65.5869C48.6897 66.4179 48.7951 67.2455 49.0014 68.0506C48.8947 68.0506 48.7943 68.0506 48.6876 68.0506C46.4553 68.111 44.3346 69.0394 42.777 70.6382C41.2194 72.237 40.3479 74.38 40.3479 76.6111C40.3479 78.8422 41.2194 80.9852 42.777 82.584C44.3346 84.1828 46.4553 85.1112 48.6876 85.1716H78.4374V85.0964C79.9568 84.8905 81.3504 84.1423 82.3608 82.99C83.3711 81.8377 83.93 80.3591 83.9343 78.8272Z" fill="#E6E6E6"/>
<path d="M123.486 151.486C154.201 151.486 179.101 126.61 179.101 95.9231C179.101 65.2364 154.201 40.3599 123.486 40.3599C92.7702 40.3599 67.8704 65.2364 67.8704 95.9231C67.8704 126.61 92.7702 151.486 123.486 151.486Z" fill="#EFEFEF"/>
<path d="M82.3845 59.5497C82.3845 59.5497 82.8677 67.5679 88.3771 65.1919C93.8866 62.8159 101.304 60.1766 100.5 68.9973C99.6973 77.8179 104.109 79.0279 110.327 76.8149C116.546 74.6019 113.534 74.0063 113.935 65.9944C114.337 57.9824 103.895 57.5812 105.514 51.9703C107.133 46.3595 119.645 53.0486 115.291 40.9868C115.291 40.9555 93.3469 42.7673 82.3845 59.5497Z" fill="#CECECE"/>
<path d="M128.675 80.4322C127.51 80.4339 126.358 80.6862 125.299 81.1719C123.103 82.2189 120.455 84.7453 121.955 90.7762C124.364 100.424 128.374 93.2525 133.589 94.4311C138.803 95.6097 150.638 96.8197 144.821 107.433C139.004 118.047 145.624 120.26 151.234 117.652C156.844 115.044 153.041 104.631 158.858 109.239C164.675 113.847 157.992 128.372 172.161 122.811C172.161 122.811 188.476 98.1424 172.161 69.0286C172.161 69.0286 164.769 54.8981 158.952 59.9071C153.135 64.9161 161.142 65.1982 161.945 70.947C162.748 76.6958 159.385 83.7172 154.71 77.26C150.035 70.8028 151.635 71.3733 144.218 70.5709C138.288 69.9439 134.178 70.6398 134.059 75.6676C134.033 76.9258 133.52 78.1249 132.627 79.0124C131.734 79.9 130.531 80.4067 129.271 80.4259L128.675 80.4322Z" fill="#CECECE"/>
<path d="M127.213 49.1304C127.213 49.1304 121.44 47.5318 121.515 54.5406C121.591 61.5495 125.406 61.1483 129.616 59.3491C133.827 57.5498 130.244 63.355 138.238 61.7564C146.233 60.1578 146.866 58.2708 145.059 55.4873C143.252 52.7038 140.246 42.1215 127.213 49.1304Z" fill="#CECECE"/>
<path d="M67.8641 95.9231C67.8641 95.9231 74.6537 84.8393 82.0644 92.3309C89.4752 99.8225 74.8921 98.6 82.3845 105.835C89.8768 113.069 95.0788 96.2867 99.327 102.662C103.575 109.038 111.795 113.37 102.119 118.962C92.4433 124.554 98.2288 132.359 102.69 130.71C107.152 129.062 115.071 140.34 102.69 147.317C102.659 147.336 66.3142 134.089 67.8641 95.9231Z" fill="#CECECE"/>
<path d="M126.015 108.637C126.015 108.637 118.397 108.637 118.372 115.853C118.347 123.068 132.603 116.241 129.284 124.059C125.964 131.876 133.764 133.983 138.069 130.729C142.374 127.476 134.931 117.671 135.653 110.75C136.375 103.828 126.862 105.433 126.015 108.637Z" fill="#CECECE"/>
<path d="M123.486 151.486C123.486 151.486 118.598 146.302 129.265 145.104C139.933 143.907 140.221 138.29 143.698 135.883C147.174 133.475 154.578 141.97 154.578 141.97C154.578 141.97 140.893 154.264 123.486 151.486Z" fill="#CECECE"/>
<path opacity="0.08" d="M164.857 109.909C164.857 109.909 154.817 112.003 157.653 121.821C157.653 121.821 148.153 127.425 151.378 134.698C151.378 134.698 152.727 139.036 159.423 138.315C159.423 138.315 162.246 135.807 162.73 135.281C163.213 134.754 164.857 109.909 164.857 109.909Z" fill="black"/>
<path d="M192.68 129.532C192.681 128.777 192.533 128.029 192.244 127.331C191.955 126.633 191.531 125.999 190.997 125.465C190.462 124.931 189.827 124.508 189.129 124.219C188.43 123.93 187.682 123.782 186.926 123.783C186.617 123.785 186.308 123.812 186.004 123.865C185.341 122.63 184.355 121.599 183.152 120.88C181.948 120.161 180.572 119.782 179.17 119.783H178.881C179.07 119.054 179.167 118.305 179.17 117.552C179.107 115.153 178.11 112.874 176.39 111.2C174.67 109.526 172.363 108.589 169.962 108.589C167.56 108.589 165.254 109.526 163.533 111.2C161.813 112.874 160.816 115.153 160.753 117.552C160.754 118.304 160.849 119.054 161.035 119.783H160.753C158.696 119.783 156.723 120.6 155.269 122.053C153.814 123.506 152.997 125.477 152.997 127.532C152.997 129.587 153.814 131.558 155.269 133.011C156.723 134.464 158.696 135.281 160.753 135.281H187.673V135.249C189.06 135.066 190.333 134.385 191.255 133.333C192.176 132.281 192.683 130.93 192.68 129.532Z" fill="#F7F7F7"/>
<path d="M88.3707 117.081H37.8005V146.001H88.3707V117.081Z" fill="#24285B"/>
<path d="M57.8367 127.777C57.8352 126.841 57.6173 125.918 57.2001 125.081C56.783 124.243 56.1778 123.513 55.4317 122.947C54.6856 122.382 53.8189 121.996 52.8991 121.82C51.9793 121.644 51.0312 121.683 50.1289 121.933C49.2265 122.184 48.3942 122.639 47.697 123.264C46.9997 123.888 46.4563 124.665 46.1091 125.534C45.7619 126.403 45.6203 127.341 45.6953 128.273C45.7704 129.206 46.06 130.109 46.5417 130.911L51.7311 139.406L56.8955 130.949C57.4985 129.999 57.8244 128.901 57.8367 127.777ZM51.7562 130.999C51.168 130.999 50.5929 130.825 50.1038 130.498C49.6147 130.172 49.2334 129.707 49.0083 129.164C48.7832 128.621 48.7243 128.024 48.839 127.448C48.9538 126.871 49.2371 126.342 49.6531 125.926C50.069 125.51 50.599 125.227 51.176 125.113C51.7529 124.998 52.351 125.057 52.8945 125.282C53.438 125.507 53.9025 125.888 54.2293 126.376C54.5562 126.865 54.7306 127.44 54.7306 128.027C54.7306 128.815 54.4172 129.571 53.8594 130.128C53.3016 130.686 52.5451 130.999 51.7562 130.999Z" fill="#428CFF"/>
<path d="M81.6378 125.062H63.2583V129.225H81.6378V125.062Z" fill="white"/>
<path d="M103.745 42.9679L123.486 108.367L164.681 69.9251L103.745 42.9679Z" stroke="#24285B" stroke-width="2.03" stroke-linecap="round" stroke-linejoin="round" stroke-dasharray="2.03 10.15"/>
<path opacity="0.19" d="M81.6378 132.616H63.2583V136.779H81.6378V132.616Z" fill="white"/>
<path d="M103.92 56.296C111.919 56.296 118.403 49.818 118.403 41.8269C118.403 33.8358 111.919 27.3578 103.92 27.3578C95.9216 27.3578 89.4375 33.8358 89.4375 41.8269C89.4375 49.818 95.9216 56.296 103.92 56.296Z" fill="#24285B"/>
<path d="M105.847 35.1879C106.079 36.313 106.159 37.4643 106.085 38.6108C106.048 38.8831 105.904 39.1295 105.685 39.2963C105.467 39.4631 105.191 39.5367 104.918 39.501C104.473 39.4748 104.046 39.3189 103.689 39.0526C103.332 38.7862 103.061 38.4212 102.91 38.0027L102.082 36.2787C101.956 35.917 101.945 35.5258 102.048 35.1573C102.151 34.7888 102.364 34.4604 102.659 34.2161C103.745 33.2507 105.658 33.9403 105.847 35.1879Z" fill="#F4A28C"/>
<path d="M102.257 36.5922L101.988 43.3565L105.727 43.2374L104.422 38.3663L102.257 36.5922Z" fill="#F4A28C"/>
<path d="M105.351 35.3321C104.729 35.4312 104.097 35.4585 103.469 35.4136C103.686 35.6707 103.823 35.9863 103.862 36.3208C103.901 36.6554 103.841 36.994 103.688 37.2943C103.547 37.5876 103.309 37.823 103.014 37.9602C102.718 38.0975 102.385 38.128 102.069 38.0466L101.793 35.4136C101.74 35.037 101.789 34.653 101.936 34.3021C102.083 33.9512 102.322 33.6465 102.628 33.42C102.894 33.2251 103.173 33.0471 103.462 32.8871C104.184 32.4921 105.345 32.8871 105.972 32.2602C106.035 32.2009 106.113 32.1588 106.197 32.1382C106.281 32.1175 106.369 32.1189 106.452 32.1423C106.535 32.1656 106.611 32.2101 106.672 32.2714C106.733 32.3327 106.778 32.4088 106.801 32.4921C107.014 33.2821 107.02 34.561 105.985 35.1252C105.788 35.2313 105.573 35.3013 105.351 35.3321Z" fill="#FFD200"/>
<path d="M103.876 37.2003C103.876 37.2003 103.77 36.4166 103.18 36.542C102.59 36.6674 102.747 37.7959 103.563 37.8272L103.876 37.2003Z" fill="#F4A28C"/>
<path d="M106.047 36.473L106.713 37.2002C106.75 37.2414 106.776 37.2912 106.789 37.3451C106.802 37.3991 106.802 37.4554 106.787 37.5091C106.773 37.5627 106.745 37.6118 106.707 37.6521C106.669 37.6923 106.621 37.7223 106.568 37.7394L105.803 37.9776L106.047 36.473Z" fill="#F4A28C"/>
<path opacity="0.31" d="M104.755 39.4195C104.278 39.359 103.831 39.1582 103.469 38.8428C103.721 39.7914 104.327 40.6078 105.163 41.1247L104.755 39.4195Z" fill="#CE8172"/>
<path d="M94.1628 52.4969C94.1628 52.4969 93.9369 43.413 103.745 42.9428C113.553 42.4726 113.289 52.8982 113.289 52.8982C113.289 52.8982 104.04 61.3427 94.1628 52.4969Z" fill="#428CFF"/>
<path d="M124.326 120.235C132.325 120.235 138.809 113.757 138.809 105.766C138.809 97.7746 132.325 91.2965 124.326 91.2965C116.328 91.2965 109.844 97.7746 109.844 105.766C109.844 113.757 116.328 120.235 124.326 120.235Z" fill="#24285B"/>
<path d="M126.253 99.1266C126.485 100.252 126.566 101.403 126.491 102.55C126.454 102.822 126.31 103.068 126.092 103.235C125.873 103.402 125.597 103.475 125.324 103.44C124.884 103.409 124.462 103.251 124.11 102.985C123.758 102.719 123.491 102.356 123.341 101.941L122.513 100.217C122.388 99.8558 122.376 99.4645 122.479 99.096C122.582 98.7275 122.796 98.3992 123.09 98.1549C124.151 97.1894 126.065 97.879 126.253 99.1266Z" fill="#F4A28C"/>
<path d="M122.664 100.531L122.394 107.295L126.134 107.176L124.828 102.305L122.664 100.531Z" fill="#F4A28C"/>
<path d="M126.454 100.412L127.119 101.139C127.158 101.179 127.186 101.229 127.2 101.284C127.214 101.338 127.213 101.395 127.199 101.449C127.184 101.503 127.156 101.553 127.117 101.593C127.078 101.633 127.029 101.663 126.975 101.678L126.209 101.916L126.454 100.412Z" fill="#F4A28C"/>
<path opacity="0.31" d="M125.161 103.358C124.685 103.298 124.237 103.097 123.875 102.781C124.128 103.73 124.734 104.546 125.569 105.063L125.161 103.358Z" fill="#CE8172"/>
<path d="M114.569 116.442C114.569 116.442 114.343 107.358 124.151 106.888C133.959 106.418 133.695 116.843 133.695 116.843C133.695 116.843 124.446 125.281 114.569 116.442Z" fill="#428CFF"/>
<path d="M122.576 102.681L121.446 100.575C121.446 100.575 119.564 100.782 119.489 99.3962C119.413 98.0107 120.9 98.3492 120.9 97.4339C120.9 96.5186 120.712 95.1394 122.155 95.1645C123.599 95.1896 124.038 96.387 124.665 95.6159C124.806 95.458 124.991 95.3467 125.197 95.2967C125.403 95.2467 125.618 95.2603 125.816 95.3359C126.013 95.4114 126.183 95.5452 126.303 95.7196C126.422 95.8939 126.486 96.1005 126.485 96.3118C126.567 97.2521 127.552 96.9387 127.15 98.2991C126.749 99.6595 124.64 98.926 124.64 98.926C124.64 98.926 122.758 98.926 122.984 99.7598C123.21 100.594 124.778 102.343 122.576 102.681Z" fill="#FFD200"/>
<path d="M123.931 100.932C123.931 100.932 123.599 100.211 123.072 100.506C122.544 100.8 123.034 101.854 123.818 101.622L123.931 100.932Z" fill="#F4A28C"/>
<path d="M164.857 83.2532C172.855 83.2532 179.339 76.7751 179.339 68.7841C179.339 60.793 172.855 54.3149 164.857 54.3149C156.858 54.3149 150.374 60.793 150.374 68.7841C150.374 76.7751 156.858 83.2532 164.857 83.2532Z" fill="#24285B"/>
<path d="M166.79 62.1451C167.022 63.2703 167.1 64.4218 167.022 65.5681C167.004 65.7032 166.96 65.8336 166.891 65.9516C166.823 66.0696 166.732 66.1729 166.623 66.2556C166.515 66.3384 166.391 66.3989 166.259 66.4336C166.127 66.4684 165.99 66.4768 165.855 66.4583C165.415 66.4258 164.994 66.2671 164.642 66.0013C164.29 65.7355 164.023 65.3739 163.872 64.96L163.043 63.236C162.918 62.8743 162.906 62.4831 163.009 62.1146C163.113 61.746 163.326 61.4177 163.621 61.1734C164.681 60.208 166.595 60.8976 166.79 62.1451Z" fill="#F4A28C"/>
<path d="M163.194 63.5494L162.924 70.3138L166.664 70.1947L165.359 65.3236L163.194 63.5494Z" fill="#F4A28C"/>
<path d="M164.813 64.1575C164.813 64.1575 164.706 63.3676 164.116 63.5306C163.526 63.6936 163.683 64.7844 164.499 64.7844L164.813 64.1575Z" fill="#F4A28C"/>
<path d="M166.984 63.4302L167.649 64.1511C167.688 64.1922 167.715 64.2425 167.729 64.2972C167.743 64.3519 167.743 64.4093 167.729 64.4639C167.714 64.5185 167.686 64.5685 167.647 64.6092C167.608 64.6499 167.559 64.6799 167.505 64.6965L166.739 64.9348L166.984 63.4302Z" fill="#F4A28C"/>
<path opacity="0.31" d="M165.691 66.3767C165.215 66.3161 164.767 66.1154 164.405 65.7999C164.66 66.7478 165.265 67.5635 166.099 68.0819L165.691 66.3767Z" fill="#CE8172"/>
<path d="M155.099 79.4541C155.099 79.4541 154.873 70.3701 164.681 69.9C174.489 69.4298 174.225 79.8553 174.225 79.8553C174.225 79.8553 164.976 88.2998 155.099 79.4541Z" fill="#428CFF"/>
<path d="M159.567 67.0977C159.299 67.5335 159.13 68.0222 159.07 68.5299C159.011 69.0376 159.062 69.5522 159.222 70.038C159.335 70.4849 159.601 70.8784 159.973 71.1507C160.345 71.4231 160.801 71.5572 161.261 71.53C163.847 71.436 163.458 70.6774 163.771 66.9786C164.091 63.4993 164.399 62.4711 166.426 61.9633C168.452 61.4555 167.21 59.4557 165.397 59.4557C163.583 59.4557 160.483 59.5936 160.577 62.8347C160.642 64.3218 160.292 65.7975 159.567 67.0977Z" fill="#FFD200"/>
</svg>
