<svg width="261" height="197" viewBox="0 0 261 197" fill="none" xmlns="http://www.w3.org/2000/svg">
<path opacity="0.3" d="M60.291 39.1669C36.9249 47.7663 23.3073 56.6793 19.8882 83.0459C17.0106 105.263 18.6941 149.39 59.1948 156.389C137.997 170.007 205.355 165.341 225.419 130.421C244.035 97.9576 242.208 59.1885 200.317 42.3361C168.782 29.6527 105.914 22.3667 60.291 39.1669Z" fill="#E6E6E6"/>
<path d="M117.724 70.2449C117.724 70.2449 121.789 68.7223 122.761 68.0101C124.001 67.1083 127.459 64.1286 125.639 63.1354C124.83 62.691 121.417 64.8147 121.417 64.8147C121.417 64.8147 121.9 62.2859 121.137 62.8544C120.373 63.4229 119.016 65.8798 119.016 65.8798L115.669 67.5919L117.724 70.2449Z" fill="#F4A28C"/>
<path d="M112.23 50.3801C113.032 49.7226 113.766 48.9872 114.422 48.1845C114.742 47.5768 114.944 44.5905 115.401 43.9109C115.858 43.2314 117.013 43.0615 117.241 43.5254C117.405 43.9541 117.5 44.4063 117.522 44.865C117.522 44.865 118.024 43.9828 118.129 44.3226C118.184 45.8683 117.831 47.4013 117.104 48.7661C116.086 50.7264 114.161 53.5232 114.161 53.5232L112.23 50.3801Z" fill="#F4A28C"/>
<path d="M68.0232 60.6C68.0232 60.6 101.046 60.2798 112.941 49.0928L115.486 51.8961C115.486 51.8961 111.467 61.3057 96.4135 67.7944C81.3603 74.2832 71.9317 74.0545 71.9317 74.0545L68.0232 60.6Z" fill="#1C56AF"/>
<path opacity="0.08" d="M68.0232 60.6C68.0232 60.6 101.046 60.2798 112.941 49.0928L115.486 51.8961C115.486 51.8961 111.467 61.3057 96.4135 67.7944C81.3603 74.2832 71.9317 74.0545 71.9317 74.0545L68.0232 60.6Z" fill="#020407"/>
<path d="M54.908 144.241C54.908 144.241 54.1576 146.058 55.2929 147.286C56.4283 148.515 55.6583 150.018 54.262 149.319C52.8656 148.619 51.3062 144.588 51.3062 144.588L53.4659 142.418L54.908 144.241Z" fill="#428CFF"/>
<path d="M112.883 116.62C112.883 116.62 114.801 117.032 115.806 115.686C116.811 114.34 118.416 114.836 117.992 116.339C117.568 117.842 113.874 120.103 113.874 120.103L111.356 118.371L112.883 116.62Z" fill="#428CFF"/>
<path d="M67.86 45.6884C68.1655 47.5414 68.2204 49.4273 68.0231 51.295C67.945 51.7372 67.6953 52.1305 67.3285 52.3889C66.9617 52.6473 66.5076 52.7497 66.0656 52.6737C65.3458 52.5896 64.6659 52.2977 64.1087 51.8336C63.5515 51.3696 63.141 50.7534 62.9271 50.06L61.6938 47.2044C61.506 46.6057 61.5087 45.9633 61.7016 45.3662C61.8945 44.7691 62.268 44.2469 62.7705 43.8718C64.5975 42.3885 67.6512 43.6431 67.86 45.6884Z" fill="#F4A28C"/>
<path d="M61.9354 47.7533L61.061 58.7835L67.1619 58.8292L65.348 50.7853L61.9354 47.7533Z" fill="#F4A28C"/>
<path d="M67.0639 45.8974C66.0277 46.0179 64.9811 46.0179 63.9449 45.8974C64.2816 46.3305 64.4839 46.8529 64.5268 47.4C64.5697 47.9471 64.4513 48.4948 64.1863 48.9752C63.9393 49.4453 63.5364 49.8146 63.0471 50.0197C62.5577 50.2248 62.0123 50.2528 61.5046 50.0991L61.2175 45.7733C61.1568 45.1563 61.2636 44.5343 61.5266 43.9731C61.7896 43.4118 62.1991 42.9321 62.7117 42.5845C63.1578 42.2819 63.6219 42.0069 64.1015 41.7611C65.3021 41.1665 67.1878 41.8526 68.2384 40.9247C68.3445 40.8382 68.4708 40.7798 68.6054 40.755C68.74 40.7301 68.8787 40.7396 69.0087 40.7826C69.1387 40.8256 69.2559 40.9006 69.3493 41.0008C69.4427 41.101 69.5095 41.2231 69.5434 41.356C69.8435 42.6629 69.7717 44.7474 68.0491 45.6034C67.7389 45.7544 67.4061 45.8537 67.0639 45.8974Z" fill="#24285B"/>
<path d="M64.5387 48.838C64.5387 48.838 64.4147 47.5311 63.449 47.7206C62.4833 47.9101 62.653 49.7658 63.9906 49.8377L64.5387 48.838Z" fill="#F4A28C"/>
<path d="M68.1274 47.8055L69.1649 49.0275C69.2242 49.0973 69.2648 49.181 69.283 49.2708C69.3012 49.3606 69.2964 49.4536 69.2691 49.541C69.2417 49.6285 69.1927 49.7075 69.1265 49.7708C69.0604 49.8342 68.9793 49.8797 68.8908 49.9031L67.625 50.2429L68.1274 47.8055Z" fill="#F4A28C"/>
<path opacity="0.31" d="M65.8241 52.53C65.0516 52.4008 64.3344 52.0462 63.7622 51.5106C63.7622 51.5106 64.0102 53.5232 66.3722 55.3398L65.8241 52.53Z" fill="#CE8172"/>
<path d="M61.061 58.7769L65.2109 58.8161C66.2221 58.8271 67.233 58.7791 68.2385 58.6724C71.4619 58.313 81.0993 58.1104 85.9539 67.4155C91.8264 78.7006 80.4207 100.343 80.4207 100.343L59.5016 102.042C59.5016 102.042 31.4702 62.1879 61.061 58.7769Z" fill="#428CFF"/>
<path d="M59.5015 102.042C59.5015 102.042 60.8587 115.241 70.7179 113.856C80.5772 112.471 94.1688 100.016 111.042 118.868L113.809 115.731C113.809 115.731 105.02 96.3502 81.8365 97.4349L59.5015 102.042Z" fill="#24285B"/>
<path d="M60.6239 101.61C60.6239 101.61 73.6739 121.358 52.1414 140.589L54.908 144.241C54.908 144.241 78.2153 133.1 75.4682 103.113L60.6239 101.61Z" fill="#24285B"/>
<path opacity="0.08" d="M64.552 69.585C64.552 69.585 66.2224 74.4335 62.3008 82.6082C58.3793 90.7828 70.4701 99.8069 70.4701 99.8069L59.5081 102.068C59.5081 102.068 50.7124 88.9009 48.4744 79.1972C46.2363 69.4935 64.043 69.8137 64.043 69.8137L64.552 69.585Z" fill="black"/>
<path d="M55.8084 63.8673C65.896 62.3448 87.8396 75.9038 117.45 66.2851L118.318 70.9442C118.318 70.9442 93.1118 83.5361 62.3008 82.6082C45.8578 82.1051 45.7142 65.3899 55.8084 63.8673Z" fill="#68E1FD"/>
<g opacity="0.46" filter="url(#filter0_d)">
<path d="M55.8084 63.8673C65.896 62.3448 87.8396 75.9038 117.45 66.2851L118.318 70.9442C118.318 70.9442 93.1118 83.5361 62.3008 82.6082C45.8578 82.1051 45.7142 65.3899 55.8084 63.8673Z" fill="#1262DE"/>
</g>
<path opacity="0.08" d="M168.312 96.971C181.992 96.971 193.081 85.8654 193.081 72.1661C193.081 58.4667 181.992 47.3612 168.312 47.3612C154.633 47.3612 143.543 58.4667 143.543 72.1661C143.543 85.8654 154.633 96.971 168.312 96.971Z" fill="black"/>
<path d="M168.312 96.971C181.992 96.971 193.081 85.8654 193.081 72.1661C193.081 58.4667 181.992 47.3612 168.312 47.3612C154.633 47.3612 143.543 58.4667 143.543 72.1661C143.543 85.8654 154.633 96.971 168.312 96.971Z" fill="#FFD200"/>
<g opacity="0.08">
<path opacity="0.08" d="M167.529 91.8087C181.209 91.8087 192.298 80.7032 192.298 67.0038C192.298 53.3045 181.209 42.199 167.529 42.199C153.85 42.199 142.76 53.3045 142.76 67.0038C142.76 80.7032 153.85 91.8087 167.529 91.8087Z" fill="black"/>
</g>
<path opacity="0.08" d="M168.312 96.971C181.992 96.971 193.081 85.8654 193.081 72.1661C193.081 58.4667 181.992 47.3612 168.312 47.3612C154.633 47.3612 143.543 58.4667 143.543 72.1661C143.543 85.8654 154.633 96.971 168.312 96.971Z" fill="black"/>
<path d="M167.529 91.8087C181.209 91.8087 192.298 80.7032 192.298 67.0038C192.298 53.3045 181.209 42.199 167.529 42.199C153.85 42.199 142.76 53.3045 142.76 67.0038C142.76 80.7032 153.85 91.8087 167.529 91.8087Z" fill="#FFD200"/>
<path d="M163.653 56.5813C164.306 56.2873 164.586 56.4245 164.874 57.0584L165.493 58.4175C168.208 57.6138 170.257 58.2215 172.351 59.9466C173.004 60.4563 173.004 60.881 172.416 61.5606L171.34 62.7891C170.844 63.3837 170.472 63.3837 169.806 62.8871C168.404 61.7828 167.196 61.5083 165.291 62.3709C162.936 63.4491 162.172 64.6384 162.89 66.2197C163.36 67.2456 164.593 67.4547 165.65 67.1999C166.374 67.0462 167.087 66.8432 167.784 66.5922C169.068 66.0809 170.42 65.7574 171.797 65.6316C172.48 65.5514 173.172 65.5979 173.839 65.7688C174.57 66.0587 175.235 66.4926 175.796 67.0449C176.356 67.5971 176.8 68.2565 177.101 68.9838C178.485 72.0092 177.395 74.989 174.067 77.1453L174.72 78.5895C175.013 79.2429 174.922 79.5435 174.283 79.831L172.762 80.5302C172.11 80.8177 171.797 80.7001 171.509 80.0597L170.857 78.6483C167.921 79.5566 165.422 78.9881 163.366 76.9101C163.25 76.8133 163.157 76.6912 163.095 76.5531C163.034 76.415 163.004 76.2645 163.009 76.1132C163.014 75.9618 163.054 75.8137 163.125 75.68C163.196 75.5463 163.296 75.4306 163.419 75.3418L164.554 74.2179C165.128 73.6559 165.513 73.6821 166.133 74.2179C167.438 75.4899 169.039 75.6947 170.935 74.8321C173.487 73.669 174.394 72.2837 173.643 70.6435C173.493 70.2582 173.219 69.9336 172.865 69.7207C172.511 69.5079 172.096 69.4187 171.686 69.4673C170.661 69.5617 169.656 69.8084 168.704 70.1992C167.399 70.7063 166.023 71.0061 164.626 71.0879C163.946 71.152 163.261 71.0922 162.603 70.9115C161.883 70.6464 161.225 70.235 160.672 69.7031C160.118 69.1712 159.68 68.5302 159.386 67.8206C158.016 64.8213 158.988 61.9396 162.322 59.8682L161.67 58.509C161.376 57.8556 161.5 57.5484 162.133 57.2609L163.653 56.5813Z" fill="white"/>
<path d="M44.1089 155.03L144.424 103.956V122.913L210.568 88.0383L211.586 109.641L119.551 156.833L121.972 132.897L47.1169 167.641L44.1089 155.03Z" fill="#E6E6E6"/>
<path d="M198.634 131.937V81.909L242.025 75.1001L198.634 131.937Z" fill="#E6E6E6"/>
<path d="M138.709 85.7905C137.974 84.5759 137.537 83.2045 137.432 81.7883C137.328 80.3722 137.56 78.9514 138.108 77.642C138.156 77.4652 138.132 77.2766 138.042 77.1174C137.951 76.9582 137.802 76.8414 137.625 76.7925C137.449 76.7479 137.262 76.7733 137.104 76.8634C136.946 76.9535 136.829 77.1014 136.777 77.2761C136.177 78.7639 135.931 80.3715 136.06 81.971C136.189 83.5705 136.69 85.1178 137.521 86.4897C137.622 86.6301 137.771 86.7277 137.94 86.7635C138.109 86.7992 138.285 86.7705 138.433 86.6829C138.582 86.5954 138.693 86.4552 138.744 86.2901C138.795 86.125 138.782 85.9468 138.709 85.7905Z" fill="#E6E6E6"/>
<path d="M199.176 54.5752C199.075 54.4348 198.926 54.3371 198.757 54.3014C198.588 54.2656 198.412 54.2943 198.263 54.3819C198.114 54.4695 198.004 54.6096 197.953 54.7747C197.902 54.9399 197.915 55.1181 197.988 55.2744C200.012 58.7286 200.747 62.7898 200.063 66.7358C199.913 67.5984 201.238 67.9774 201.368 67.1018C202.141 62.798 201.364 58.3592 199.176 54.5752Z" fill="#E6E6E6"/>
<path d="M196.044 49.4914C195.99 49.32 195.877 49.1738 195.724 49.0797L193.799 47.7728C193.719 47.7258 193.631 47.6953 193.539 47.683C193.447 47.6706 193.354 47.6767 193.264 47.7009C193.093 47.7518 192.947 47.8634 192.853 48.0146C192.807 48.0951 192.778 48.1839 192.767 48.2759C192.755 48.3679 192.763 48.4612 192.788 48.5504C192.841 48.7202 192.952 48.8659 193.101 48.9621L195.058 50.269C195.219 50.3607 195.408 50.3864 195.587 50.3408C195.76 50.2912 195.907 50.1765 195.998 50.0206C196.042 49.9405 196.069 49.852 196.077 49.7609C196.085 49.6697 196.073 49.5779 196.044 49.4914Z" fill="#E6E6E6"/>
<defs>
<filter id="filter0_d" x="44.946" y="63.7466" width="77.3718" height="26.9105" filterUnits="userSpaceOnUse" color-interpolation-filters="sRGB">
<feFlood flood-opacity="0" result="BackgroundImageFix"/>
<feColorMatrix in="SourceAlpha" type="matrix" values="0 0 0 0 0 0 0 0 0 0 0 0 0 0 0 0 0 0 127 0" result="hardAlpha"/>
<feOffset dy="4"/>
<feGaussianBlur stdDeviation="2"/>
<feComposite in2="hardAlpha" operator="out"/>
<feColorMatrix type="matrix" values="0 0 0 0 0 0 0 0 0 0 0 0 0 0 0 0 0 0 0.25 0"/>
<feBlend mode="normal" in2="BackgroundImageFix" result="effect1_dropShadow"/>
<feBlend mode="normal" in="SourceGraphic" in2="effect1_dropShadow" result="shape"/>
</filter>
</defs>
</svg>
