<svg width="527" height="390" viewBox="0 0 527 390" fill="none" xmlns="http://www.w3.org/2000/svg">
<path opacity="0.1" d="M514.954 381.979C519.374 378.008 514.258 366.973 503.528 357.332C492.797 347.691 480.515 343.095 476.095 347.067C471.675 351.038 476.791 362.072 487.522 371.713C498.252 381.354 510.534 385.95 514.954 381.979Z" fill="#6C63FF"/>
<path d="M497.469 366.134C500.825 366.134 503.545 362.935 503.545 358.987C503.545 355.04 500.825 351.84 497.469 351.84C494.114 351.84 491.394 355.04 491.394 358.987C491.394 362.935 494.114 366.134 497.469 366.134Z" fill="#3F3D56"/>
<path d="M497.469 357.4C500.825 357.4 503.545 354.2 503.545 350.253C503.545 346.306 500.825 343.106 497.469 343.106C494.114 343.106 491.394 346.306 491.394 350.253C491.394 354.2 494.114 357.4 497.469 357.4Z" fill="#3F3D56"/>
<path d="M497.469 348.666C500.825 348.666 503.545 345.466 503.545 341.519C503.545 337.571 500.825 334.371 497.469 334.371C494.114 334.371 491.394 337.571 491.394 341.519C491.394 345.466 494.114 348.666 497.469 348.666Z" fill="#3F3D56"/>
<path d="M497.469 339.931C500.825 339.931 503.545 336.732 503.545 332.784C503.545 328.837 500.825 325.637 497.469 325.637C494.114 325.637 491.394 328.837 491.394 332.784C491.394 336.732 494.114 339.931 497.469 339.931Z" fill="#3F3D56"/>
<path d="M497.469 331.197C500.825 331.197 503.545 327.997 503.545 324.05C503.545 320.103 500.825 316.903 497.469 316.903C494.114 316.903 491.394 320.103 491.394 324.05C491.394 327.997 494.114 331.197 497.469 331.197Z" fill="#3F3D56"/>
<path d="M497.469 322.463C500.825 322.463 503.545 319.263 503.545 315.316C503.545 311.368 500.825 308.168 497.469 308.168C494.114 308.168 491.394 311.368 491.394 315.316C491.394 319.263 494.114 322.463 497.469 322.463Z" fill="#3F3D56"/>
<path d="M497.469 313.729C500.825 313.729 503.545 310.529 503.545 306.581C503.545 302.634 500.825 299.434 497.469 299.434C494.114 299.434 491.394 302.634 491.394 306.581C491.394 310.529 494.114 313.729 497.469 313.729Z" fill="#3F3D56"/>
<path d="M520.213 246.809C521.045 245.861 521.801 244.861 522.478 243.818L506.511 241.463L523.78 241.575C525.437 238.337 526.341 234.83 526.439 231.268C526.536 227.705 525.824 224.163 524.346 220.856L501.184 231.655L522.535 217.544C520.535 214.434 517.843 211.727 514.627 209.592C511.412 207.458 507.741 205.941 503.844 205.137C499.947 204.333 495.908 204.259 491.978 204.92C488.048 205.58 484.312 206.961 481.002 208.976C477.692 210.991 474.88 213.597 472.741 216.632C470.601 219.667 469.18 223.065 468.567 226.614C467.954 230.164 468.161 233.789 469.176 237.264C470.191 240.738 471.991 243.988 474.465 246.809C473.171 248.286 472.059 249.884 471.147 251.576L491.87 261.241L469.789 254.577C468.238 258.698 467.855 263.101 468.675 267.389C469.494 271.676 471.49 275.712 474.482 279.132C471.106 282.989 469.005 287.621 468.421 292.5C467.837 297.379 468.793 302.307 471.179 306.721C473.565 311.135 477.285 314.856 481.914 317.46C486.544 320.063 491.895 321.444 497.356 321.444C502.818 321.444 508.169 320.063 512.798 317.46C517.427 314.856 521.148 311.135 523.534 306.721C525.92 302.307 526.876 297.379 526.291 292.5C525.707 287.621 523.607 282.989 520.23 279.132C524.265 274.523 526.458 268.829 526.458 262.966C526.458 257.102 524.265 251.408 520.23 246.799L520.213 246.809Z" fill="#428CFF"/>
<path opacity="0.1" d="M468.237 262.976C468.226 268.841 470.421 274.538 474.465 279.142C471.089 282.999 468.989 287.632 468.404 292.51C467.82 297.389 468.776 302.317 471.162 306.731C473.548 311.145 477.268 314.866 481.897 317.47C486.527 320.074 491.878 321.454 497.339 321.454C502.801 321.454 508.152 320.074 512.781 317.47C517.41 314.866 521.131 311.145 523.517 306.731C525.903 302.317 526.859 297.389 526.274 292.51C525.69 287.632 523.59 282.999 520.213 279.142C524.114 274.696 468.237 260.041 468.237 262.976Z" fill="black"/>
<path d="M482.941 0V366.262L344.791 348.966L176.854 379.747L175.501 379.996L41.8809 346.931V28.487L180.597 0L332.335 28.487L338.105 27.3933L482.941 0Z" fill="#444053"/>
<path d="M468.237 13.7348V341.442L344.633 325.968L194.372 353.509L193.161 353.727L73.6045 324.147V39.2205L197.724 13.7348L333.485 39.2205L338.648 38.2438L468.237 13.7348Z" fill="white"/>
<path opacity="0.1" d="M363.838 355.07L195.901 385.852L199.643 6.10434L351.382 34.5914L357.151 33.4977L363.838 355.07Z" fill="black"/>
<g opacity="0.3">
<path opacity="0.3" d="M351.818 39.6783L351.886 146.25H401.144V102.502H485.506L495.414 91.0872" stroke="#444053" stroke-width="3" stroke-miterlimit="10"/>
<path opacity="0.3" d="M77.5676 73.5067H260.729L272.053 68.9284H276.583V171.685H355.849L359.246 180.842V227.133H420.394V284.361" stroke="#444053" stroke-width="3" stroke-miterlimit="10"/>
<path opacity="0.3" d="M300.776 284.361V171.685" stroke="#444053" stroke-width="3" stroke-miterlimit="10"/>
<path opacity="0.3" d="M495.414 254.175H300.776" stroke="#444053" stroke-width="3" stroke-miterlimit="10"/>
<path opacity="0.3" d="M446.665 39.6783V284.361" stroke="#444053" stroke-width="3" stroke-miterlimit="10"/>
<path opacity="0.3" d="M77.0015 232.546H495.414" stroke="#444053" stroke-width="3" stroke-miterlimit="10"/>
<path opacity="0.3" d="M127.924 284.361V39.6783" stroke="#444053" stroke-width="3" stroke-miterlimit="10"/>
<path opacity="0.3" d="M225.184 39.6783V284.361" stroke="#444053" stroke-width="3" stroke-miterlimit="10"/>
<path opacity="0.3" d="M77.5676 101.485L401.144 102.502" stroke="#444053" stroke-width="3" stroke-miterlimit="10"/>
<path opacity="0.3" d="M171.742 40.1209V284.361" stroke="#444053" stroke-width="3" stroke-miterlimit="10"/>
<path opacity="0.3" d="M77.0015 158.113H225.184L300.776 232.546" stroke="#444053" stroke-width="3" stroke-miterlimit="10"/>
<path opacity="0.3" d="M317.15 39.6783V171.685" stroke="#444053" stroke-width="3" stroke-miterlimit="10"/>
<path opacity="0.3" d="M300.776 195.329H495.414" stroke="#444053" stroke-width="3" stroke-miterlimit="10"/>
</g>
<path d="M255.917 240.868H198.732V218.485L252.803 218.231L256.2 226.879L255.917 240.868Z" fill="#428CFF"/>
<path d="M227.766 113.439C219.465 113.439 211.504 116.402 205.635 121.676C199.765 126.949 196.467 134.102 196.467 141.56C196.467 157.091 227.766 207.548 227.766 207.548C227.766 207.548 259.065 157.111 259.065 141.56C259.065 134.102 255.767 126.949 249.898 121.676C244.028 116.402 236.067 113.439 227.766 113.439ZM227.766 153.555C225.043 153.555 222.381 152.83 220.116 151.47C217.852 150.111 216.087 148.179 215.045 145.918C214.002 143.657 213.73 141.17 214.261 138.77C214.792 136.37 216.104 134.166 218.03 132.436C219.955 130.706 222.409 129.527 225.08 129.05C227.751 128.573 230.519 128.818 233.036 129.754C235.552 130.69 237.702 132.276 239.215 134.31C240.728 136.345 241.536 138.737 241.536 141.184C241.534 144.464 240.083 147.609 237.501 149.928C234.919 152.247 231.417 153.55 227.766 153.55V153.555Z" fill="#6C63FF"/>
<path opacity="0.1" d="M220.689 112.676C212.388 112.676 204.427 115.639 198.557 120.913C192.687 126.186 189.39 133.339 189.39 140.797C189.39 156.328 220.689 206.785 220.689 206.785C220.689 206.785 251.988 156.348 251.988 140.797C251.988 133.339 248.69 126.186 242.82 120.913C236.951 115.639 228.99 112.676 220.689 112.676ZM220.689 152.792C217.965 152.792 215.303 152.067 213.039 150.707C210.774 149.348 209.009 147.416 207.967 145.155C206.925 142.894 206.652 140.407 207.184 138.007C207.715 135.607 209.026 133.403 210.952 131.673C212.878 129.942 215.331 128.764 218.002 128.287C220.673 127.809 223.442 128.054 225.958 128.991C228.474 129.927 230.625 131.513 232.138 133.547C233.651 135.582 234.458 137.974 234.458 140.421C234.457 143.701 233.006 146.846 230.423 149.165C227.841 151.484 224.34 152.787 220.689 152.787V152.792Z" fill="black"/>
<path d="M227.766 113.439C219.465 113.439 211.504 116.402 205.635 121.676C199.765 126.949 196.467 134.102 196.467 141.56C196.467 157.091 227.766 207.548 227.766 207.548C227.766 207.548 259.065 157.111 259.065 141.56C259.065 134.102 255.767 126.949 249.898 121.676C244.028 116.402 236.067 113.439 227.766 113.439ZM227.766 153.555C225.043 153.555 222.381 152.83 220.116 151.47C217.852 150.111 216.087 148.179 215.045 145.918C214.002 143.657 213.73 141.17 214.261 138.77C214.792 136.37 216.104 134.166 218.03 132.436C219.955 130.706 222.409 129.527 225.08 129.05C227.751 128.573 230.519 128.818 233.036 129.754C235.552 130.69 237.702 132.276 239.215 134.31C240.728 136.345 241.536 138.737 241.536 141.184C241.534 144.464 240.083 147.609 237.501 149.928C234.919 152.247 231.417 153.55 227.766 153.55V153.555Z" fill="#428CFF"/>
<path opacity="0.1" d="M296.248 379.526C305.855 375.809 312.261 369.913 310.557 366.357C308.852 362.802 299.683 362.932 290.076 366.65C280.469 370.367 274.063 376.263 275.768 379.818C277.472 383.374 286.642 383.243 296.248 379.526Z" fill="#6C63FF"/>
<path d="M292.94 345.141C295.254 345.141 297.13 342.936 297.13 340.216C297.13 337.497 295.254 335.292 292.94 335.292C290.626 335.292 288.75 337.497 288.75 340.216C288.75 342.936 290.626 345.141 292.94 345.141Z" fill="#3F3D56"/>
<path d="M292.94 339.123C295.254 339.123 297.13 336.918 297.13 334.198C297.13 331.479 295.254 329.274 292.94 329.274C290.626 329.274 288.75 331.479 288.75 334.198C288.75 336.918 290.626 339.123 292.94 339.123Z" fill="#3F3D56"/>
<path opacity="0.1" d="M313.085 304.124C313.093 308.168 311.58 312.095 308.793 315.27C311.121 317.928 312.569 321.122 312.972 324.485C313.375 327.848 312.717 331.245 311.072 334.288C309.428 337.33 306.863 339.896 303.672 341.691C300.481 343.485 296.792 344.437 293.028 344.437C289.263 344.437 285.574 343.485 282.383 341.691C279.192 339.896 276.627 337.33 274.983 334.288C273.338 331.245 272.68 327.848 273.083 324.485C273.486 321.122 274.934 317.928 277.262 315.27C274.573 312.218 313.085 302.12 313.085 304.124Z" fill="black"/>
<path opacity="0.1" d="M46.8616 375.553C51.2816 371.582 46.1659 360.548 35.4354 350.907C24.705 341.266 12.4231 336.67 8.0031 340.641C3.58311 344.612 8.69876 355.647 19.4292 365.288C30.1597 374.928 42.4416 379.525 46.8616 375.553Z" fill="#6C63FF"/>
<path d="M29.3777 359.71C32.7329 359.71 35.4529 356.51 35.4529 352.562C35.4529 348.615 32.7329 345.415 29.3777 345.415C26.0224 345.415 23.3025 348.615 23.3025 352.562C23.3025 356.51 26.0224 359.71 29.3777 359.71Z" fill="#3F3D56"/>
<path d="M29.3777 350.975C32.7329 350.975 35.4529 347.775 35.4529 343.828C35.4529 339.881 32.7329 336.681 29.3777 336.681C26.0224 336.681 23.3025 339.881 23.3025 343.828C23.3025 347.775 26.0224 350.975 29.3777 350.975Z" fill="#3F3D56"/>
<path d="M29.3777 342.241C32.7329 342.241 35.4529 339.041 35.4529 335.094C35.4529 331.146 32.7329 327.947 29.3777 327.947C26.0224 327.947 23.3025 331.146 23.3025 335.094C23.3025 339.041 26.0224 342.241 29.3777 342.241Z" fill="#3F3D56"/>
<path d="M29.3777 333.507C32.7329 333.507 35.4529 330.307 35.4529 326.359C35.4529 322.412 32.7329 319.212 29.3777 319.212C26.0224 319.212 23.3025 322.412 23.3025 326.359C23.3025 330.307 26.0224 333.507 29.3777 333.507Z" fill="#3F3D56"/>
<path d="M29.3777 324.772C32.7329 324.772 35.4529 321.572 35.4529 317.625C35.4529 313.678 32.7329 310.478 29.3777 310.478C26.0224 310.478 23.3025 313.678 23.3025 317.625C23.3025 321.572 26.0224 324.772 29.3777 324.772Z" fill="#3F3D56"/>
<path d="M29.3777 316.038C32.7329 316.038 35.4529 312.838 35.4529 308.891C35.4529 304.943 32.7329 301.744 29.3777 301.744C26.0224 301.744 23.3025 304.943 23.3025 308.891C23.3025 312.838 26.0224 316.038 29.3777 316.038Z" fill="#3F3D56"/>
<path d="M29.3777 307.304C32.7329 307.304 35.4529 304.104 35.4529 300.156C35.4529 296.209 32.7329 293.009 29.3777 293.009C26.0224 293.009 23.3025 296.209 23.3025 300.156C23.3025 304.104 26.0224 307.304 29.3777 307.304Z" fill="#3F3D56"/>
<path d="M53.6891 219.871C54.5203 218.922 55.2771 217.923 55.9538 216.88L39.9873 214.524L57.2561 214.636C58.9126 211.398 59.8172 207.891 59.9146 204.329C60.0119 200.767 59.3 197.224 57.8222 193.917L34.6595 204.717L56.0104 190.605C54.0105 187.495 51.3187 184.788 48.1031 182.653C44.8874 180.519 41.2168 179.002 37.32 178.198C33.4233 177.395 29.384 177.321 25.454 177.981C21.5241 178.642 17.7877 180.022 14.4779 182.037C11.168 184.053 8.35575 186.659 6.21635 189.693C4.07694 192.728 2.65629 196.126 2.04299 199.676C1.42968 203.225 1.63688 206.85 2.65164 210.325C3.66641 213.799 5.46699 217.049 7.94111 219.871C6.64684 221.347 5.5344 222.945 4.62325 224.637L25.3457 234.302L3.2644 227.638C1.71394 231.759 1.33116 236.163 2.15068 240.45C2.97019 244.737 4.96616 248.773 7.9581 252.193C4.58163 256.05 2.48121 260.683 1.89701 265.561C1.3128 270.44 2.26838 275.368 4.65449 279.782C7.04061 284.196 10.7609 287.917 15.3902 290.521C20.0194 293.125 25.3706 294.505 30.8321 294.505C36.2935 294.505 41.6448 293.125 46.274 290.521C50.9032 287.917 54.6235 284.196 57.0097 279.782C59.3958 275.368 60.3514 270.44 59.7671 265.561C59.1829 260.683 57.0825 256.05 53.7061 252.193C57.7405 247.584 59.9338 241.891 59.9338 236.027C59.9338 230.163 57.7405 224.47 53.7061 219.86L53.6891 219.871Z" fill="#428CFF"/>
<path opacity="0.1" d="M15.2872 316.286C15.2762 322.151 17.4709 327.848 21.5152 332.452C18.1387 336.309 16.0383 340.942 15.4541 345.82C14.8699 350.699 15.8255 355.627 18.2116 360.041C20.5977 364.455 24.3181 368.176 28.9473 370.78C33.5765 373.384 38.9277 374.764 44.3892 374.764C49.8507 374.764 55.2019 373.384 59.8311 370.78C64.4603 368.176 68.1807 364.455 70.5668 360.041C72.9529 355.627 73.9085 350.699 73.3243 345.82C72.7401 340.942 70.6397 336.309 67.2632 332.452C71.1642 328.006 15.2872 313.351 15.2872 316.286Z" fill="black"/>
<path d="M501.47 316.613C501.417 316.739 501.311 316.841 501.175 316.898C501.038 316.954 500.883 316.959 500.742 316.912L50.7582 166.473C50.6178 166.425 50.5039 166.33 50.4417 166.207C50.3795 166.085 50.3739 165.945 50.4262 165.819C50.4785 165.693 50.5844 165.59 50.7206 165.534C50.8569 165.478 51.0124 165.472 51.1531 165.519L501.137 315.959C501.277 316.006 501.391 316.102 501.454 316.224C501.516 316.347 501.522 316.486 501.47 316.613Z" fill="#F2F2F2"/>
<path d="M332.43 208.98C333.163 209.334 333.974 209.539 334.805 209.581C335.636 209.623 336.467 209.501 337.24 209.224C338.013 208.946 338.708 208.52 339.278 207.974C339.847 207.429 340.277 206.778 340.536 206.067L360.766 205.753L354.827 197.958L336.527 199.451C335.169 199.139 333.731 199.285 332.486 199.862C331.24 200.439 330.273 201.406 329.768 202.581C329.263 203.755 329.255 205.055 329.746 206.235C330.236 207.414 331.191 208.391 332.43 208.98H332.43Z" fill="#FFB8B8"/>
<path d="M344.574 208.753C344.261 208.753 343.95 208.696 343.662 208.585C343.374 208.474 343.113 208.312 342.897 208.109C342.68 207.905 342.511 207.665 342.401 207.401C342.29 207.137 342.24 206.856 342.254 206.575L342.663 198.24C342.685 197.744 342.905 197.272 343.282 196.908C343.659 196.545 344.168 196.315 344.717 196.26L368.153 193.846L367.367 207.734L344.689 208.75C344.651 208.752 344.612 208.753 344.574 208.753Z" fill="#428CFF"/>
<path d="M373.116 322.991L366.517 324.927L355.065 302.982L364.803 300.125L373.116 322.991Z" fill="#FFB8B8"/>
<path d="M392.551 332.169L385.609 332.168L382.307 308.113L392.552 308.113L392.551 332.169Z" fill="#FFB8B8"/>
<path d="M382.008 326.314C381.44 326.313 380.893 326.126 380.468 325.787C380.044 325.449 379.772 324.982 379.705 324.476L370.755 257.254L357.655 276.149L373.025 311.44C373.235 311.928 373.233 312.469 373.022 312.956C372.811 313.443 372.405 313.842 371.884 314.074L358.845 319.807C358.547 319.938 358.222 320.01 357.891 320.018C357.56 320.027 357.23 319.972 356.925 319.856C356.619 319.741 356.345 319.568 356.12 319.349C355.895 319.131 355.725 318.872 355.621 318.589L341.171 279.364C340.082 276.412 339.94 273.245 340.76 270.224L350.104 235.774L350.213 235.72L371.275 225.355L371.395 225.395L396.199 233.528L393.603 277.692L395.489 323.53C395.515 324.074 395.301 324.606 394.894 325.01C394.486 325.414 393.919 325.658 393.313 325.689L382.153 326.31C382.104 326.312 382.056 326.314 382.008 326.314Z" fill="#2F2E41"/>
<path d="M368.345 248.864C364.639 248.864 361.517 247.916 359.564 245.505L359.501 245.428L360.764 233.511L349.523 239.118C349.29 239.234 349.023 239.283 348.757 239.258C348.492 239.234 348.242 239.137 348.04 238.98C347.838 238.824 347.695 238.615 347.629 238.383C347.563 238.151 347.578 237.907 347.672 237.682L361.692 204.231L370.949 176.982C371.408 174.801 372.593 172.796 374.348 171.234C376.104 169.672 378.345 168.626 380.777 168.234C389.023 166.873 393.935 169.373 399.606 174.921C400.978 176.271 401.988 177.884 402.56 179.638C403.132 181.392 403.25 183.241 402.905 185.042L397.54 212.593L399.116 237.296C399.237 237.722 399.204 238.171 399.024 238.579C398.843 238.988 398.523 239.334 398.11 239.569C393.725 242.077 380.279 248.863 368.345 248.864Z" fill="#428CFF"/>
<path d="M387.106 164.108C394.787 164.108 401.013 158.514 401.013 151.614C401.013 144.713 394.787 139.12 387.106 139.12C379.426 139.12 373.2 144.713 373.2 151.614C373.2 158.514 379.426 164.108 387.106 164.108Z" fill="#FFB8B8"/>
<path d="M390.729 240.675C391.485 240.364 392.157 239.907 392.695 239.337C393.234 238.767 393.627 238.097 393.847 237.376C394.067 236.655 394.108 235.899 393.968 235.162C393.827 234.425 393.508 233.724 393.034 233.11L404.96 218.426L394.458 217.978L384.743 231.991C383.647 232.776 382.909 233.894 382.669 235.134C382.43 236.375 382.705 237.651 383.443 238.722C384.18 239.792 385.33 240.582 386.672 240.942C388.015 241.302 389.458 241.207 390.729 240.675Z" fill="#FFB8B8"/>
<path d="M397.187 232.389C396.605 232.463 396.014 232.337 395.531 232.035L387.636 227.088C387.161 226.793 386.827 226.349 386.698 225.843C386.569 225.338 386.656 224.807 386.94 224.356L400.996 201.886L386.859 186.597C386.117 185.794 385.568 184.861 385.249 183.858C384.93 182.854 384.847 181.802 385.005 180.767C385.163 179.733 385.56 178.74 386.168 177.851C386.777 176.962 387.585 176.197 388.541 175.604C389.497 175.01 390.58 174.603 391.721 174.406C392.862 174.209 394.036 174.228 395.169 174.462C396.301 174.695 397.367 175.138 398.298 175.761C399.23 176.385 400.007 177.176 400.58 178.084L416.19 202.838C416.3 203.014 416.358 203.213 416.358 203.416C416.358 203.618 416.3 203.817 416.189 203.993L398.877 231.355C398.717 231.607 398.501 231.826 398.242 231.999C397.982 232.172 397.686 232.294 397.371 232.358C397.31 232.371 397.249 232.381 397.187 232.389Z" fill="#428CFF"/>
<path d="M381.549 150.019C380.172 149.096 378.267 149.24 376.636 148.756C375.665 148.468 374.796 147.956 374.115 147.27C373.434 146.585 372.965 145.751 372.756 144.852C372.547 143.952 372.605 143.019 372.924 142.147C373.242 141.274 373.811 140.491 374.573 139.878C376.334 138.46 378.84 138.139 381.187 137.879C384.403 137.524 387.65 137.168 390.874 137.45C394.099 137.733 397.345 138.712 399.702 140.709C402.301 142.911 403.581 146.189 403.589 149.399C403.499 152.623 402.513 155.777 400.723 158.572C400.17 159.635 399.335 160.559 398.293 161.266C397.208 161.909 395.68 162.077 394.635 161.382C393.732 160.782 393.401 159.73 392.994 158.79C392.586 157.849 391.89 156.848 390.778 156.703C389.346 156.516 388.254 157.824 386.888 158.252C384.978 158.85 382.855 157.526 382.076 155.849C381.297 154.171 381.502 152.273 381.721 150.466" fill="#2F2E41"/>
<path d="M374.409 332.739L353.133 338.983L353.045 338.741C352.69 337.764 352.552 336.733 352.64 335.709C352.728 334.684 353.04 333.685 353.558 332.768C354.076 331.851 354.789 331.035 355.658 330.367C356.527 329.698 357.534 329.19 358.621 328.87L358.622 328.87L371.616 325.057L374.409 332.739Z" fill="#2F2E41"/>
<path d="M391.842 342.709L369.46 342.709V342.454C369.46 341.427 369.686 340.409 370.123 339.459C370.561 338.509 371.203 337.647 372.012 336.92C372.821 336.193 373.781 335.616 374.838 335.223C375.895 334.83 377.028 334.627 378.172 334.627H378.172L391.842 334.628L391.842 342.709Z" fill="#2F2E41"/>
<path d="M501.642 342.364C501.642 342.498 501.582 342.628 501.476 342.723C501.37 342.818 501.226 342.872 501.076 342.872H20.949C20.7988 342.872 20.6548 342.819 20.5486 342.723C20.4425 342.628 20.3828 342.498 20.3828 342.364C20.3828 342.229 20.4425 342.099 20.5486 342.004C20.6548 341.908 20.7988 341.855 20.949 341.855H501.076C501.226 341.855 501.37 341.909 501.476 342.004C501.582 342.1 501.642 342.229 501.642 342.364Z" fill="#CCCCCC"/>
<path d="M306.019 188.012L288.131 195.915C286.729 196.536 285.792 197.469 285.525 198.51C285.259 199.551 285.684 200.615 286.709 201.468L287.891 202.451C287.847 202.461 287.807 202.477 287.775 202.498C287.743 202.519 287.72 202.544 287.707 202.571C287.694 202.599 287.691 202.628 287.7 202.656C287.708 202.684 287.727 202.711 287.756 202.734L288.665 203.489C288.692 203.512 288.728 203.532 288.77 203.545C288.811 203.559 288.858 203.566 288.905 203.567C288.952 203.568 288.999 203.562 289.041 203.55C289.084 203.538 289.122 203.52 289.151 203.497L290.528 204.641C290.483 204.651 290.444 204.667 290.412 204.688C290.38 204.709 290.356 204.735 290.343 204.762C290.33 204.789 290.328 204.818 290.336 204.847C290.345 204.875 290.364 204.901 290.392 204.924L292.665 206.813C292.692 206.836 292.728 206.855 292.77 206.869C292.812 206.882 292.858 206.89 292.905 206.89C292.952 206.891 292.999 206.885 293.042 206.873C293.084 206.861 293.122 206.843 293.151 206.821L293.982 207.511C293.938 207.522 293.899 207.538 293.867 207.559C293.835 207.58 293.811 207.605 293.798 207.632C293.785 207.66 293.783 207.689 293.791 207.717C293.799 207.745 293.819 207.772 293.847 207.795L296.12 209.683C296.147 209.706 296.183 209.725 296.225 209.739C296.266 209.752 296.313 209.76 296.36 209.761C296.407 209.762 296.454 209.756 296.497 209.744C296.539 209.732 296.577 209.714 296.606 209.691L320.608 229.633C321.636 230.485 323.178 231.055 324.896 231.22C326.613 231.384 328.367 231.129 329.771 230.51L347.659 222.608C349.061 221.987 349.998 221.054 350.265 220.012C350.531 218.971 350.106 217.907 349.081 217.054L315.182 188.89C314.154 188.038 312.612 187.467 310.894 187.303C309.177 187.138 307.423 187.394 306.019 188.012ZM347.962 217.549C348.77 218.221 349.106 219.06 348.895 219.881C348.685 220.702 347.946 221.438 346.84 221.928L328.953 229.83C327.845 230.318 326.463 230.52 325.108 230.39C323.754 230.26 322.538 229.81 321.727 229.139L287.828 200.974C287.02 200.301 286.684 199.462 286.895 198.641C287.105 197.82 287.844 197.084 288.95 196.595L306.837 188.692C307.945 188.204 309.327 188.003 310.682 188.133C312.036 188.262 313.252 188.712 314.063 189.384L347.962 217.549Z" fill="#3F3D56"/>
<path d="M347.328 222.323L329.346 230.267C328.067 230.831 326.471 231.065 324.91 230.917C323.348 230.769 321.947 230.253 321.015 229.48L287.073 201.281C286.144 200.507 285.76 199.541 286.006 198.595C286.251 197.649 287.106 196.8 288.383 196.234L306.365 188.29C307.644 187.727 309.24 187.493 310.802 187.64C312.364 187.788 313.764 188.305 314.696 189.077L348.638 217.277C349.567 218.051 349.951 219.017 349.706 219.963C349.46 220.909 348.605 221.757 347.328 222.323Z" fill="#E6E6E6"/>
<path d="M347.238 221.716L328.42 230.03C327.56 230.409 326.487 230.566 325.436 230.467C324.386 230.367 323.443 230.019 322.816 229.499L287.763 200.376C287.137 199.856 286.879 199.206 287.044 198.569C287.209 197.933 287.784 197.362 288.642 196.981L291.097 195.897C291.239 195.835 291.416 195.809 291.59 195.825C291.763 195.842 291.919 195.899 292.023 195.985C292.329 196.239 292.789 196.409 293.302 196.457C293.815 196.506 294.339 196.429 294.759 196.244L304.182 192.081C304.601 191.896 304.882 191.617 304.962 191.306C305.043 190.995 304.917 190.678 304.611 190.424C304.508 190.337 304.465 190.23 304.493 190.125C304.52 190.02 304.615 189.925 304.757 189.862L307.46 188.668C308.32 188.289 309.394 188.132 310.444 188.231C311.495 188.331 312.437 188.679 313.064 189.199L348.118 218.322C348.743 218.842 349.002 219.492 348.837 220.129C348.672 220.765 348.097 221.336 347.238 221.716Z" fill="white"/>
<path d="M299.52 193.038L297.241 194.045C297.174 194.074 297.091 194.088 297.012 194.082C296.933 194.077 296.863 194.053 296.818 194.016C296.773 193.979 296.757 193.931 296.773 193.884C296.788 193.836 296.835 193.793 296.902 193.763L299.181 192.756C299.248 192.727 299.331 192.713 299.41 192.719C299.489 192.724 299.559 192.748 299.604 192.785C299.649 192.823 299.665 192.87 299.649 192.917C299.633 192.965 299.587 193.008 299.52 193.038Z" fill="white"/>
<path d="M301.05 192.362C301.115 192.334 301.129 192.279 301.082 192.24C301.035 192.201 300.945 192.193 300.881 192.221C300.816 192.25 300.802 192.304 300.849 192.343C300.896 192.382 300.986 192.391 301.05 192.362Z" fill="white"/>
<path d="M318.339 192.694L291.644 204.487L291.983 204.769L318.677 192.975L318.339 192.694Z" fill="#E6E6E6"/>
<path d="M322.57 196.21L295.876 208.003L296.045 208.144L322.74 196.351L322.57 196.21Z" fill="#E6E6E6"/>
<path d="M331.033 203.241L304.339 215.035L304.677 215.316L331.372 203.523L331.033 203.241Z" fill="#E6E6E6"/>
<path d="M339.666 210.414L312.972 222.207L313.141 222.347L339.836 210.554L339.666 210.414Z" fill="#E6E6E6"/>
<path d="M346.437 216.039L319.742 227.832L319.912 227.973L346.606 216.18L346.437 216.039Z" fill="#E6E6E6"/>
<path d="M311.08 196.116L310.848 196.219L323.543 206.766L323.775 206.664L311.08 196.116Z" fill="#E6E6E6"/>
<path d="M310.543 212.509L310.311 212.612L325.545 225.268L325.777 225.166L310.543 212.509Z" fill="#E6E6E6"/>
<path d="M334.738 207.206L314.775 216.025L314.945 216.165L334.908 207.346L334.738 207.206Z" fill="#E6E6E6"/>
<path d="M339.009 219.32L338.777 219.423L343.516 223.361L343.748 223.258L339.009 219.32Z" fill="#E6E6E6"/>
<path d="M319.543 203.148L300.973 211.352L301.142 211.492L319.713 203.289L319.543 203.148Z" fill="#E6E6E6"/>
<path d="M289.035 196.545L288.854 196.728L300.325 200.935L300.506 200.753L289.035 196.545Z" fill="#E6E6E6"/>
<path d="M303.637 192.296L303.405 192.398L308.991 197.039L309.223 196.937L303.637 192.296Z" fill="#E6E6E6"/>
<path d="M319.757 196.236C321.621 197.785 321.987 203.15 322.054 204.685C322.056 204.732 322.04 204.778 322.006 204.819C321.972 204.861 321.922 204.897 321.859 204.925C321.797 204.952 321.725 204.97 321.649 204.977C321.573 204.984 321.496 204.979 321.423 204.964C319.032 204.456 310.711 202.604 308.847 201.056C307.799 200.185 307.368 199.096 307.65 198.028C307.931 196.96 308.903 196.001 310.349 195.362C311.796 194.723 313.6 194.456 315.364 194.62C317.128 194.784 318.709 195.365 319.757 196.236Z" fill="#6C63FF"/>
<path d="M316.104 200.143C317.579 199.492 317.864 198.208 316.743 197.276C315.621 196.344 313.516 196.117 312.042 196.768C310.568 197.42 310.282 198.703 311.404 199.635C312.526 200.567 314.63 200.795 316.104 200.143Z" fill="white"/>
<path d="M323.744 206.766L328.492 223.932L328.838 223.897L324.091 206.731L323.744 206.766Z" fill="#E6E6E6"/>
<path d="M324.737 207.316C325.442 207.004 325.635 206.437 325.168 206.048C324.7 205.66 323.75 205.598 323.045 205.909C322.339 206.221 322.147 206.788 322.614 207.176C323.082 207.565 324.032 207.627 324.737 207.316Z" fill="#6C63FF"/>
<path d="M299.985 222.068C301.577 222.439 304.374 224.793 305.157 225.472C305.18 225.493 305.196 225.517 305.201 225.541C305.206 225.566 305.202 225.591 305.187 225.615C305.173 225.638 305.15 225.659 305.119 225.675C305.088 225.692 305.052 225.703 305.012 225.709C303.694 225.9 299.069 226.528 297.476 226.158C297.032 226.055 296.625 225.9 296.278 225.702C295.931 225.504 295.651 225.266 295.454 225.004C295.256 224.741 295.146 224.457 295.128 224.17C295.11 223.882 295.186 223.596 295.351 223.327C295.516 223.059 295.766 222.813 296.088 222.604C296.411 222.396 296.798 222.228 297.228 222.111C297.658 221.994 298.123 221.93 298.596 221.923C299.069 221.916 299.541 221.965 299.985 222.068Z" fill="#F2F2F2"/>
<path d="M307.362 226.408C307.747 226.238 307.831 225.912 307.55 225.679C307.27 225.446 306.731 225.395 306.346 225.565C305.962 225.734 305.877 226.061 306.158 226.294C306.438 226.527 306.977 226.578 307.362 226.408Z" fill="#F2F2F2"/>
</svg>
